amiri-regular.sfdir

StartChar: exclam
Encoding: 33 33 319
Width: 420
Flags: W
LayerCount: 2
Fore
SplineSet
342 1260 m 0
 334 1197 334 1197 275 857 c 0
 227 583 227 583 233 422 c 1
 189 422 l 1
 194 612 194 612 145 857 c 0
 88 1149 88 1149 78 1260 c 0
 54 1541 54 1541 210 1540 c 0
 377 1539 377 1539 342 1260 c 0
EndSplineSet
Refer: 320 -1 N 1 0 0 1 -115 65 2
EndChar

StartChar: numbersign
Encoding: 35 35 687
Width: 1705
VWidth: 0
Flags: W
LayerCount: 2
Fore
SplineSet
848 1447 m 1,0,-1
 916 1427 l 1,1,-1
 724.676551345 757 l 1,2,-1
 1120.96540362 757 l 1,3,-1
 1318 1447 l 1,4,-1
 1386 1427 l 1,5,-1
 1194.67655135 757 l 1,6,-1
 1590 757 l 1,7,-1
 1590 687 l 1,8,-1
 1174.68753432 687 l 1,9,-1
 1080.45359692 357 l 1,10,-1
 1590 357 l 1,11,-1
 1590 287 l 1,12,-1
 1060.4645799 287 l 1,13,-1
 866 -394 l 1,14,-1
 798 -374 l 1,15,-1
 986.75343218 287 l 1,16,-1
 590.464579901 287 l 1,17,-1
 396 -394 l 1,18,-1
 328 -374 l 1,19,-1
 516.75343218 287 l 1,20,-1
 115 287 l 1,21,-1
 115 357 l 1,22,-1
 536.742449204 357 l 1,23,-1
 630.976386601 687 l 1,24,-1
 115 687 l 1,25,-1
 115 757 l 1,26,-1
 650.965403624 757 l 1,27,-1
 848 1447 l 1,0,-1
1100.9763866 687 m 1,28,-1
 704.687534322 687 l 1,29,-1
 610.453596925 357 l 1,30,-1
 1006.7424492 357 l 1,31,-1
 1100.9763866 687 l 1,28,-1
EndSplineSet
EndChar

StartChar: dollar
Encoding: 36 36 493
Width: 996
Flags: MW
HStem: -20 72<441 627> 1208 70<374 562>
VStem: 102 76<228 352> 138 154<870 1102> 344 70<-97 -17> 584 70<1279 1362> 728 168<171 414> 758 70<940 1055>
LayerCount: 2
Fore
SplineSet
514 1278 m 0,0,1
 597 1278 597 1278 696 1251 c 0,2,3
 768 1232 768 1232 804 1224 c 1,4,5
 828 1121 828 1121 828 950 c 1,6,7
 824 941 824 941 806 940 c 0,8,9
 770 940 770 940 762 948 c 0,10,11
 759 952 759 952 758 956 c 0,12,13
 748 1039 748 1039 687 1113 c 0,14,15
 608 1207 608 1207 502 1208 c 0,16,17
 345 1208 345 1208 304 1080 c 0,18,19
 292 1043 292 1043 292 1000 c 0,20,21
 292 892 292 892 397 809 c 0,22,23
 427 785 427 785 538 717 c 0,24,25
 552 709 552 709 562 702 c 0,26,27
 577 692 577 692 611 672 c 0,28,29
 745 591 745 591 800 536 c 0,30,31
 895 441 895 441 896 332 c 0,32,33
 896 181 896 181 777 80 c 0,34,35
 667 -13 667 -13 514 -20 c 0,36,37
 503 -20 503 -20 494 -20 c 0,38,39
 390 -20 390 -20 208 22 c 0,40,41
 166 32 166 32 148 36 c 1,42,43
 114 197 114 197 103 318 c 0,44,45
 102 327 102 327 102 330 c 1,46,47
 107 344 107 344 141 352 c 0,48,49
 148 353 148 353 152 354 c 0,50,51
 173 353 173 353 178 336 c 1,52,53
 215 158 215 158 341 89 c 0,54,55
 409 52 409 52 498 52 c 0,56,57
 608 52 608 52 674 126 c 0,58,59
 728 188 728 188 728 280 c 0,60,61
 728 388 728 388 643 455 c 0,62,63
 612 479 612 479 508 536 c 0,64,65
 487 548 487 548 472 556 c 0,66,67
 329 639 329 639 270 689 c 0,68,69
 138 802 138 802 138 940 c 0,70,71
 138 1087 138 1087 253 1185 c 0,72,73
 358 1274 358 1274 503 1278 c 0,74,75
 509 1278 509 1278 514 1278 c 0,0,1
584 1366 m 17,76,77
 652 1365 652 1365 654 1352 c 1,78,-1
 414 -104 l 1,79,80
 358 -104 358 -104 346 -90 c 0,81,82
 344 -87 344 -87 344 -86 c 2,83,-1
 584 1366 l 17,76,77
EndSplineSet
Comment: "From Crimson Text, svn trunk@50" 
Colour: aabbcc
EndChar

StartChar: percent
Encoding: 37 37 494
Width: 1334
Flags: MW
HStem: -14 50<903 1043> 578 48<877 1015> 650 50<326 462> 1242 48<299 437>
VStem: 80 128<816 1142> 542 132<799 1141> 656 128<152 476> 1118 132<133 477>
LayerCount: 2
Fore
SplineSet
372 1242 m 0,0,1
 272 1242 272 1242 230 1126 c 0,2,3
 208 1066 208 1066 208 992 c 0,4,5
 208 880 208 880 267 787 c 0,6,7
 323 700 323 700 392 700 c 0,8,9
 496 700 496 700 529 836 c 0,10,11
 542 889 542 889 542 952 c 0,12,13
 542 1073 542 1073 489 1162 c 1,14,15
 440 1241 440 1241 372 1242 c 0,0,1
380 1290 m 0,16,17
 513 1290 513 1290 598 1188 c 0,18,19
 674 1096 674 1096 674 968 c 0,20,21
 674 841 674 841 595 749 c 0,22,23
 510 651 510 651 380 650 c 0,24,25
 255 650 255 650 168 743 c 0,26,27
 81 837 81 837 80 968 c 0,28,29
 80 1109 80 1109 169 1202 c 0,30,31
 254 1290 254 1290 380 1290 c 0,16,17
950 578 m 0,32,33
 851 578 851 578 807 464 c 0,34,35
 784 403 784 403 784 328 c 0,36,37
 784 216 784 216 844 123 c 0,38,39
 901 36 901 36 970 36 c 0,40,41
 1076 36 1076 36 1107 179 c 0,42,43
 1118 229 1118 229 1118 288 c 0,44,45
 1118 410 1118 410 1065 499 c 1,46,47
 1017 577 1017 577 950 578 c 0,32,33
958 626 m 0,48,49
 1091 626 1091 626 1175 524 c 0,50,51
 1250 432 1250 432 1250 304 c 128,-1,52
 1250 176 1250 176 1171 84 c 0,53,54
 1086 -13 1086 -13 956 -14 c 0,55,56
 831 -14 831 -14 744 79 c 0,57,58
 657 173 657 173 656 304 c 0,59,60
 656 445 656 445 746 538 c 0,61,62
 832 626 832 626 958 626 c 0,48,49
1196 1248 m 1,63,-1
 230 0 l 2,64,65
 218 -15 218 -15 180 -22 c 0,66,67
 171 -24 171 -24 164 -24 c 0,68,69
 160 -24 160 -24 156.5 -23.5 c 128,-1,70
 153 -23 153 -23 150 -22 c 128,-1,71
 147 -21 147 -21 144.5 -20 c 128,-1,72
 142 -19 142 -19 140 -17.5 c 128,-1,73
 138 -16 138 -16 136.5 -14.5 c 128,-1,74
 135 -13 135 -13 133.5 -11.5 c 128,-1,75
 132 -10 132 -10 131 -8.5 c 128,-1,76
 130 -7 130 -7 129.5 -6 c 0,77,78
 128 -6 128 -6 128 -4 c 2,79,-1
 128 -2 l 1,80,-1
 1092 1248 l 1,81,82
 1112 1271 1112 1271 1132 1272 c 0,83,84
 1176 1272 1176 1272 1184 1262 c 0,85,86
 1185 1261 1185 1261 1187 1258 c 0,87,88
 1193 1251 1193 1251 1196 1248 c 1,63,-1
EndSplineSet
Comment: "From Linux Libertine, svn trunk@143" 
Colour: aabbcc
EndChar

StartChar: ampersand
Encoding: 38 38 525
Width: 1443
VWidth: 980
Flags: MW
LayerCount: 2
Fore
SplineSet
815 258 m 1,0,1
 601 540 601 540 512 692 c 1,2,3
 335 594 335 594 284 477 c 0,4,5
 256 411 256 411 256 319 c 0,6,7
 256 52 256 52 496 47 c 1,8,9
 615 47 615 47 702 125 c 0,10,11
 750 168 750 168 815 258 c 1,0,1
1368 180 m 1,12,13
 1303 -20 1303 -20 1135 -20 c 0,14,15
 1021 -20 1021 -20 922 117 c 1,16,-1
 862 193 l 1,17,18
 707 -20 707 -20 481 -20 c 0,19,20
 211 -20 211 -20 125 148 c 0,21,22
 88 220 88 220 88 319 c 0,23,24
 88 484 88 484 254 626 c 0,25,26
 337 697 337 697 467 770 c 1,27,28
 362 950 362 950 362 1051.5 c 128,-1,29
 362 1153 362 1153 445 1238.5 c 128,-1,30
 528 1324 528 1324 663.5 1324.5 c 128,-1,31
 799 1325 799 1325 869 1257 c 128,-1,32
 939 1189 939 1189 940 1104 c 1,33,34
 940 994 940 994 786 865 c 0,35,36
 719 809 719 809 635 760 c 1,37,38
 670 685 670 685 889 388 c 0,39,40
 891 385 891 385 893 383 c 1,41,42
 975 504 975 504 1041 626.5 c 128,-1,43
 1107 749 1107 749 1091 774 c 128,-1,44
 1075 799 1075 799 1001 804 c 0,45,46
 994 804 994 804 987 805 c 1,47,48
 974 818 974 818 978 842 c 128,-1,49
 982 866 982 866 987 872 c 1,50,51
 1069 868 1069 868 1170.5 868 c 128,-1,52
 1272 868 1272 868 1354 872 c 1,53,54
 1367 859 1367 859 1363 835 c 128,-1,55
 1359 811 1359 811 1354 805 c 1,56,57
 1270 800 1270 800 1236 779.5 c 128,-1,58
 1202 759 1202 759 1171.5 706.5 c 128,-1,59
 1141 654 1141 654 1081 548 c 128,-1,60
 1021 442 1021 442 938 322 c 1,61,-1
 1012 219 l 2,62,63
 1098 98 1098 98 1169 90 c 1,64,65
 1269 90 1269 90 1325 201 c 1,66,67
 1347 201 1347 201 1368 180 c 1,12,13
799 1104 m 0,68,69
 798 1257 798 1257 660 1257 c 0,70,71
 618 1257 618 1257 566 1206 c 128,-1,72
 514 1155 514 1155 514.5 1069.5 c 128,-1,73
 515 984 515 984 592 838 c 1,74,75
 727 926 727 926 778 1028 c 0,76,77
 799 1070 799 1070 799 1104 c 0,68,69
EndSplineSet
Comment: "From Linux Libertine, svn trunk@143" 
Colour: aabbcc
EndChar

StartChar: quotesingle
Encoding: 39 39 565
Width: 569
Flags: W
LayerCount: 2
Fore
SplineSet
356 1332 m 2,0,-1
 311 866 l 1,1,-1
 258 866 l 1,2,-1
 213 1332 l 2,3,4
 202 1444 202 1444 285 1444 c 0,5,6
 367 1444 367 1444 356 1332 c 2,0,-1
EndSplineSet
EndChar

StartChar: parenleft
Encoding: 40 40 613
Width: 940
VWidth: 0
Flags: W
LayerCount: 2
Fore
SplineSet
567.5 -226.5 m 128,-1,1
 470 64 470 64 470 340 c 256,2,3
 470 616 470 616 565 897 c 128,-1,4
 660 1178 660 1178 826 1420 c 0,5,6
 851 1457 851 1457 831 1476 c 128,-1,7
 811 1495 811 1495 778 1462 c 0,8,9
 677 1358 677 1358 594 1240 c 0,10,11
 301 822 301 822 300 340 c 152,-1,12
 299 -142 299 -142 594 -564 c 0,13,14
 677 -682 677 -682 778 -786 c 0,15,16
 811 -820 811 -820 831 -800.5 c 128,-1,17
 851 -781 851 -781 826 -744 c 0,18,0
 665 -517 665 -517 567.5 -226.5 c 128,-1,1
EndSplineSet
EndChar

StartChar: asterisk
Encoding: 42 42 622
Width: 1025
Flags: W
LayerCount: 2
Fore
SplineSet
562 1098 m 1,0,-1
 844 964 l 2,1,2
 923 926 923 926 890 872 c 0,3,4
 857 817 857 817 787 868 c 2,5,-1
 538 1053 l 1,6,-1
 568 744 l 2,7,8
 576 657 576 657 513 657 c 0,9,10
 449 657 449 657 457 744 c 2,11,-1
 487 1053 l 1,12,-1
 238 868 l 2,13,14
 168 816 168 816 135 872 c 0,15,16
 102 926 102 926 181 964 c 2,17,-1
 463 1098 l 1,18,-1
 181 1233 l 2,19,20
 102 1271 102 1271 135 1325 c 128,-1,21
 168 1379 168 1379 238 1328 c 2,22,-1
 487 1143 l 1,23,-1
 457 1451 l 2,24,25
 449 1538 449 1538 513 1538 c 0,26,27
 576 1538 576 1538 568 1451 c 2,28,-1
 538 1143 l 1,29,-1
 787 1328 l 2,30,31
 857 1380 857 1380 890 1325 c 128,-1,32
 923 1270 923 1270 844 1233 c 2,33,-1
 562 1098 l 1,0,-1
EndSplineSet
EndChar

StartChar: hyphen
Encoding: 45 45 665
Width: 1600
VWidth: 0
Flags: W
LayerCount: 2
Fore
SplineSet
280 280 m 1,0,-1
 280 400 l 1,1,-1
 1320 400 l 1,2,-1
 1320 280 l 1,3,-1
 280 280 l 1,0,-1
EndSplineSet
EndChar

StartChar: slash
Encoding: 47 47 675
Width: 678
VWidth: 0
Flags: W
LayerCount: 2
Fore
SplineSet
550 1447 m 1,0,-1
 618 1427 l 1,1,-1
 98 -394 l 1,2,-1
 30 -374 l 1,3,-1
 550 1447 l 1,0,-1
EndSplineSet
EndChar

StartChar: zero
Encoding: 48 48 474
Width: 1090
Flags: MW
LayerCount: 2
Fore
SplineSet
556 1208 m 1,0,1
 439 1208 439 1208 364 1056 c 0,2,3
 284 894 284 894 284 640 c 0,4,5
 284 381 284 381 365 214 c 1,6,7
 438 72 438 72 536 68 c 1,8,9
 666 68 666 68 739 246 c 0,10,11
 804 405 804 405 804 650 c 0,12,13
 804 916 804 916 721 1077 c 0,14,15
 653 1207 653 1207 556 1208 c 1,0,1
544 1282 m 0,16,17
 737 1282 737 1282 856 1107 c 0,18,19
 972 937 972 937 980 672 c 0,20,21
 980 655 980 655 980 638 c 0,22,23
 980 374 980 374 871 194 c 0,24,25
 763 16 763 16 586 -4 c 0,26,27
 565 -6 565 -6 544 -6 c 0,28,29
 361 -6 361 -6 241 161 c 0,30,31
 123 324 123 324 110 579 c 0,32,33
 108 609 108 609 108 638 c 0,34,35
 108 902 108 902 217 1082 c 0,36,37
 325 1260 325 1260 502 1280 c 0,38,39
 523 1282 523 1282 544 1282 c 0,16,17
EndSplineSet
EndChar

StartChar: one
Encoding: 49 49 480
Width: 1090
Flags: MW
LayerCount: 2
Fore
SplineSet
494 232 m 2,0,-1
 494 1040 l 2,1,2
 494 1109 494 1109 461 1115 c 0,3,4
 457 1116 457 1116 452 1116 c 0,5,6
 418 1116 418 1116 312 1076 c 1,7,8
 293 1093 293 1093 292 1110 c 1,9,10
 293 1121 293 1121 296 1122 c 0,11,12
 385 1162 385 1162 545 1238 c 0,13,14
 641 1284 641 1284 644 1284 c 2,15,-1
 648 1284 l 1,16,17
 661 1283 661 1283 668 1252 c 1,18,19
 668 1252 668 1252 657 1176 c 1,20,21
 652 1119 652 1119 652 1058 c 2,22,-1
 652 232 l 2,23,24
 652 116 652 116 662 84 c 0,25,26
 668 62 668 62 768 53 c 0,27,28
 782 52 782 52 790 52 c 1,29,30
 801 39 801 39 796 9 c 0,31,32
 794 -2 794 -2 790 -6 c 1,33,34
 764 -5 764 -5 717 -2 c 0,35,36
 621 4 621 4 568 4 c 0,37,38
 540 4 540 4 371 -5 c 0,39,40
 362 -6 362 -6 354 -6 c 1,41,42
 342 6 342 6 349 39 c 0,43,44
 351 48 351 48 354 52 c 1,45,46
 409 52 409 52 457 68 c 0,47,48
 479 75 479 75 482 84 c 0,49,50
 494 123 494 123 494 232 c 2,0,-1
EndSplineSet
EndChar

StartChar: two
Encoding: 50 50 476
Width: 1090
Flags: MW
LayerCount: 2
Fore
SplineSet
956 300 m 1,0,1
 912 193 912 193 848 0 c 1,2,3
 848 0 848 0 156 0 c 1,4,5
 143 6 143 6 137 23 c 0,6,7
 136 26 136 26 136 28 c 1,8,9
 453 379 453 379 612 612 c 0,10,11
 695 733 695 733 706 851 c 0,12,13
 708 879 708 879 708 912 c 0,14,15
 708 1031 708 1031 630 1101 c 0,16,17
 570 1154 570 1154 488 1154 c 0,18,19
 350 1154 350 1154 241 1034 c 1,20,21
 217 1006 217 1006 202 982 c 1,22,23
 184 982 184 982 168 1005 c 0,24,25
 164 1011 164 1011 164 1014 c 0,26,27
 176 1055 176 1055 233 1123 c 0,28,29
 349 1261 349 1261 490 1281 c 0,30,31
 511 1284 511 1284 532 1284 c 0,32,33
 669 1284 669 1284 772 1186 c 0,34,35
 866 1096 866 1096 877 975 c 0,36,37
 878 962 878 962 878 950 c 0,38,39
 877 788 877 788 764 648 c 0,40,41
 610 459 610 459 328 146 c 1,42,-1
 724 146 l 2,43,44
 806 146 806 146 857 228 c 0,45,46
 875 258 875 258 892 300 c 1,47,48
 898 312 898 312 916 312 c 0,49,50
 936 312 936 312 954 301 c 0,51,52
 955 300 955 300 956 300 c 1,0,1
EndSplineSet
EndChar

StartChar: three
Encoding: 51 51 485
Width: 918
Flags: MW
HStem: -10 80<275 519> 636 60<261 360> 1178 106<296 511>
VStem: 578 150<891 1112> 650 172<250 536>
LayerCount: 2
Fore
SplineSet
464 1284 m 0,0,1
 544 1284 544 1284 622 1227 c 1,2,3
 727 1147 727 1147 728 1028 c 1,4,5
 728 904 728 904 598 798 c 0,6,7
 570 775 570 775 542 758 c 1,8,9
 637 745 637 745 717 671 c 0,10,11
 821 575 821 575 822 436 c 0,12,13
 822 253 822 253 680 126 c 0,14,15
 556 16 556 16 381 -6 c 0,16,17
 346 -10 346 -10 312 -10 c 0,18,19
 213 -10 213 -10 124 28 c 0,20,21
 115 32 115 32 108 36 c 1,22,23
 89 49 89 49 76 83 c 0,24,25
 70 99 70 99 70 112 c 0,26,27
 70 173 70 173 115 198 c 0,28,29
 132 208 132 208 152 208 c 0,30,31
 192 208 192 208 230 161 c 0,32,33
 260 124 260 124 264 120 c 0,34,35
 315 70 315 70 412 70 c 0,36,37
 511 70 511 70 578 147 c 0,38,39
 650 231 650 231 650 380 c 0,40,41
 650 505 650 505 563 589 c 0,42,43
 487 661 487 661 392 662 c 0,44,45
 363 662 363 662 281 638 c 0,46,47
 275 636 275 636 272 636 c 1,48,49
 260 652 260 652 260 676 c 0,50,51
 261 690 261 690 264 696 c 1,52,53
 475 743 475 743 546 869 c 0,54,55
 577 925 577 925 578 992 c 0,56,57
 578 1085 578 1085 506 1139 c 0,58,59
 453 1178 453 1178 382 1178 c 0,60,61
 278 1178 278 1178 173 1064 c 0,62,63
 159 1049 159 1049 156 1046 c 1,64,65
 142 1046 142 1046 134 1074 c 0,66,67
 132 1083 132 1083 132 1090 c 1,68,69
 217 1216 217 1216 342 1262 c 0,70,71
 402 1284 402 1284 464 1284 c 0,0,1
EndSplineSet
Comment: "From Crimson Text, svn trunk@50" 
Colour: aabbcc
EndChar

StartChar: four
Encoding: 52 52 483
Width: 986
Flags: MW
HStem: -12 42G<654 717> 348 114<158 604 762 906> 1248 40G<724 742>
VStem: 604 158<-11 348 462 1048>
LayerCount: 2
Fore
SplineSet
732 1288 m 0,0,1
 755 1288 755 1288 761 1262 c 0,2,3
 762 1257 762 1257 762 1252 c 2,4,-1
 762 462 l 1,5,-1
 882 462 l 2,6,7
 895 462 895 462 905 421 c 0,8,9
 910 400 910 400 910 380 c 0,10,11
 910 360 910 360 902 348 c 1,12,-1
 762 348 l 1,13,-1
 762 -2 l 1,14,15
 747 -8 l 1,16,17
 723 -12 723 -12 678 -12 c 1,18,19
 608 -9 608 -9 604 4 c 1,20,-1
 604 348 l 1,21,-1
 40 348 l 1,22,23
 22 359 22 359 22 386 c 1,24,-1
 672 1238 l 2,25,26
 699 1274 699 1274 723 1285 c 0,27,28
 728 1288 728 1288 732 1288 c 0,0,1
604 1048 m 25,29,-1
 158 462 l 1,30,-1
 604 462 l 1,31,-1
 604 1048 l 25,29,-1
EndSplineSet
Comment: "From Crimson Text, svn trunk@50" 
Colour: aabbcc
EndChar

StartChar: five
Encoding: 53 53 488
Width: 906
Flags: MW
HStem: -10 80<275 519> 678 112<235 502> 1112 158<298 701> 1248 40G<558 746>
VStem: 650 172<254 533>
LayerCount: 2
Fore
SplineSet
444 790 m 0,0,1
 615 790 615 790 725 674 c 0,2,3
 816 578 816 578 822 452 c 0,4,5
 822 444 822 444 822 436 c 0,6,7
 822 253 822 253 680 126 c 0,8,9
 556 16 556 16 381 -6 c 0,10,11
 346 -10 346 -10 312 -10 c 0,12,13
 213 -10 213 -10 124 28 c 0,14,15
 115 32 115 32 108 36 c 1,16,17
 89 49 89 49 76 83 c 0,18,19
 70 99 70 99 70 112 c 0,20,21
 70 173 70 173 115 198 c 0,22,23
 132 208 132 208 152 208 c 0,24,25
 192 208 192 208 230 161 c 0,26,27
 260 124 260 124 264 120 c 0,28,29
 315 70 315 70 412 70 c 0,30,31
 513 70 513 70 580 148 c 0,32,33
 650 232 650 232 650 380 c 0,34,35
 650 486 650 486 582 569 c 0,36,37
 491 678 491 678 328 678 c 0,38,39
 261 678 261 678 187 658 c 0,40,41
 169 653 169 653 160 648 c 1,42,43
 148 652 148 652 146 676 c 1,44,45
 254 1228 254 1228 262 1270 c 1,46,-1
 558 1270 l 1,47,-1
 740 1288 l 1,48,49
 761 1274 761 1274 762 1273 c 0,50,51
 764 1269 764 1269 764 1266 c 0,52,53
 764 1244 764 1244 739 1185 c 0,54,55
 722 1145 722 1145 704 1124 c 1,56,57
 591 1112 591 1112 474 1112 c 2,58,-1
 306 1112 l 1,59,60
 234 752 l 1,61,62
 310 782 310 782 418 789 c 0,63,64
 433 790 433 790 444 790 c 0,0,1
EndSplineSet
Comment: "From Crimson Text, svn trunk@50" 
Colour: aabbcc
EndChar

StartChar: six
Encoding: 54 54 485
Width: 988
Flags: MW
HStem: -12 66<416 606> 692 98<368 618> 1236 58<774 843>
VStem: 100 172<239 627> 728 170<220 569>
LayerCount: 2
Fore
SplineSet
282 612 m 1,0,1
 272 542 272 542 272 476 c 0,2,3
 272 321 272 321 332 196 c 1,4,5
 401 55 401 55 510 54 c 0,6,7
 609 54 609 54 671 151 c 0,8,9
 727 240 727 240 728 368 c 0,10,11
 728 546 728 546 637 632 c 0,12,13
 573 692 573 692 476 692 c 0,14,15
 372 692 372 692 306 635 c 0,16,17
 293 624 293 624 282 612 c 1,0,1
532 790 m 0,18,19
 738 790 738 790 837 627 c 0,20,21
 898 525 898 525 898 406 c 0,22,23
 898 248 898 248 795 129 c 0,24,25
 693 10 693 10 542 -9 c 0,26,27
 517 -12 517 -12 492 -12 c 0,28,29
 327 -12 327 -12 214 122 c 0,30,31
 117 237 117 237 102 394 c 0,32,33
 100 418 100 418 100 440 c 0,34,35
 100 719 100 719 250 919 c 0,36,37
 270 946 270 946 292 970 c 0,38,39
 427 1119 427 1119 641 1223 c 0,40,41
 740 1271 740 1271 828 1294 c 1,42,43
 847 1286 847 1286 852 1236 c 1,44,45
 398 1088 398 1088 298 700 c 1,46,47
 382 769 382 769 490 786 c 0,48,49
 512 790 512 790 532 790 c 0,18,19
EndSplineSet
Comment: "From Crimson Text, svn trunk@50" 
Colour: aabbcc
EndChar

StartChar: seven
Encoding: 55 55 486
Width: 1090
Flags: MW
LayerCount: 2
Fore
SplineSet
816 1266 m 2,0,1
 851 1266 851 1266 924 1271 c 0,2,3
 948 1272 948 1272 952 1272 c 0,4,5
 964 1270 964 1270 964 1254 c 0,6,7
 964 1235 964 1235 923 1152 c 0,8,9
 914 1133 914 1133 908 1120 c 2,10,-1
 380 -4 l 1,11,12
 373 -10 373 -10 360 -10 c 0,13,14
 321 -10 321 -10 287 9 c 1,15,16
 273 18 273 18 272 26 c 1,17,18
 364 165 364 165 506 438.5 c 128,-1,19
 648 712 648 712 744 916 c 2,20,-1
 840 1120 l 1,21,-1
 332 1120 l 2,22,23
 259 1120 259 1120 223 1057 c 0,24,25
 204 1024 204 1024 188 966 c 0,26,27
 184 954 184 954 164 954 c 256,28,29
 144 954 144 954 126 965 c 0,30,31
 125 966 125 966 124 966 c 1,32,33
 184 1157 184 1157 208 1266 c 1,34,-1
 816 1266 l 2,0,1
EndSplineSet
EndChar

StartChar: eight
Encoding: 56 56 482
Width: 1090
Flags: MW
LayerCount: 2
Fore
SplineSet
544 54 m 0,0,1
 670 54 670 54 727 146 c 0,2,3
 760 201 760 201 760 276 c 0,4,5
 760 407 760 407 583 538 c 0,6,7
 544 567 544 567 504 590 c 1,8,9
 495 594 495 594 492 594 c 0,10,11
 486 593 486 593 484 592 c 0,12,13
 366 517 366 517 338 411 c 0,14,15
 326 367 326 367 326 314 c 0,16,17
 326 181 326 181 413 105 c 1,18,19
 473 54 473 54 544 54 c 0,0,1
544 1216 m 0,20,21
 466 1216 466 1216 415 1141 c 0,22,23
 372 1078 372 1078 372 996 c 0,24,25
 372 861 372 861 514 767 c 1,26,27
 534 755 534 755 580 728 c 0,28,29
 588 724 588 724 592 724 c 0,30,31
 599 725 599 725 604 728 c 0,32,33
 739 819 739 819 740 972 c 0,34,35
 740 1072 740 1072 680 1146 c 0,36,37
 623 1215 623 1215 544 1216 c 0,20,21
556 1286 m 0,38,39
 706 1286 706 1286 800 1197 c 0,40,41
 884 1117 884 1117 884 992 c 0,42,43
 884 845 884 845 719 727 c 0,44,45
 695 710 695 710 660 688 c 1,46,47
 650 684 650 684 660 676 c 1,48,49
 794 600 794 600 866 494 c 0,50,51
 922 412 922 412 922 334 c 0,52,53
 922 192 922 192 814 90 c 0,54,55
 711 -7 711 -7 567 -17 c 0,56,57
 553 -18 553 -18 540 -18 c 0,58,59
 361 -18 361 -18 256 87 c 0,60,61
 168 176 168 176 168 308 c 0,62,63
 168 462 168 462 362 593 c 0,64,65
 369 598 369 598 428 636 c 0,66,67
 436 642 436 642 428 648 c 1,68,69
 329 707 329 707 272 800 c 0,70,71
 224 879 224 879 224 960 c 0,72,73
 224 1080 224 1080 314 1177 c 0,74,75
 404 1273 404 1273 527 1285 c 0,76,77
 542 1286 542 1286 556 1286 c 0,38,39
EndSplineSet
EndChar

StartChar: nine
Encoding: 57 57 488
Width: 1090
Flags: MW
LayerCount: 2
Fore
SplineSet
764 670 m 1,0,1
 772 727 772 727 772 806 c 0,2,3
 772 963 772 963 713 1087 c 1,4,5
 645 1227 645 1227 536 1228 c 0,6,7
 437 1228 437 1228 375 1131 c 0,8,9
 318 1042 318 1042 318 914 c 0,10,11
 318 732 318 732 411 646 c 1,12,13
 474 590 474 590 568 590 c 0,14,15
 677 590 677 590 745 651 c 0,16,17
 755 660 755 660 764 670 c 1,0,1
192 46 m 1,18,19
 648 194 648 194 748 582 c 1,20,21
 666 514 666 514 557 496 c 0,22,23
 532 492 532 492 512 492 c 0,24,25
 306 492 306 492 208 656 c 0,26,27
 148 757 148 757 148 876 c 0,28,29
 148 1034 148 1034 250 1153 c 256,30,31
 352 1272 352 1272 503 1291 c 0,32,33
 528 1294 528 1294 552 1294 c 0,34,35
 717 1294 717 1294 830 1160 c 0,36,37
 927 1045 927 1045 942 888 c 0,38,39
 944 864 944 864 944 842 c 0,40,41
 944 563 944 563 794 363 c 0,42,43
 774 336 774 336 752 312 c 0,44,45
 617 163 617 163 403 59 c 0,46,47
 304 11 304 11 216 -12 c 1,48,49
 197 -4 197 -4 192 46 c 1,18,19
EndSplineSet
EndChar

StartChar: colon
Encoding: 58 58 11
Width: 640
VWidth: 0
Flags: W
LayerCount: 2
Fore
SplineSet
200 -150 m 0,0,1
 200 -87 200 -87 251 -51 c 0,2,3
 282 -30 282 -30 320 -30 c 0,4,5
 383 -30 383 -30 418 -82 c 0,6,7
 439 -113 439 -113 440 -150 c 0,8,9
 440 -213 440 -213 388 -249 c 0,10,11
 357 -270 357 -270 320 -270 c 0,12,13
 257 -270 257 -270 221 -218 c 0,14,15
 200 -187 200 -187 200 -150 c 0,0,1
200 679 m 0,16,17
 200 742 200 742 251 778 c 0,18,19
 282 799 282 799 320 799 c 0,20,21
 383 799 383 799 418 747 c 0,22,23
 439 716 439 716 440 679 c 0,24,25
 440 616 440 616 388 580 c 0,26,27
 357 559 357 559 320 559 c 0,28,29
 257 559 257 559 221 611 c 0,30,31
 200 642 200 642 200 679 c 0,16,17
EndSplineSet
EndChar

StartChar: greater
Encoding: 62 62 623
Width: 2048
VWidth: 0
Flags: W
LayerCount: 2
Fore
SplineSet
209 -575 m 1,0,-1
 156 -473 l 1,1,-1
 1643 302 l 1,2,-1
 156 1076 l 1,3,-1
 209 1178 l 1,4,-1
 1892 301 l 1,5,-1
 209 -575 l 1,0,-1
EndSplineSet
EndChar

StartChar: question
Encoding: 63 63 321
Width: 807
Flags: W
LayerCount: 2
Fore
SplineSet
142 1232 m 1
 175 1267 175 1267 232 1265 c 0
 288 1263 288 1263 316 1226 c 0
 343 1190 343 1190 343 1144 c 0
 343 1099 343 1099 311 1060 c 0
 278 1021 278 1021 219 1020 c 0
 136 1019 136 1019 96 1109 c 0
 81 1142 81 1142 76 1215 c 0
 71 1288 71 1288 87 1337 c 0
 122 1447 122 1447 199 1495 c 24
 276 1543 276 1543 370 1540 c 0
 550 1533 550 1533 667 1377 c 0
 784 1221 784 1221 716 1027 c 0
 675 912 675 912 464 738 c 0
 430 710 430 710 412 685 c 0
 402 671 402 671 398 591 c 0
 394 516 394 516 422 419 c 0
 427 400 427 400 416 395 c 0
 401 388 401 388 393 407 c 0
 349 503 349 503 361 692 c 0
 372 877 372 877 498 1125 c 0
 610 1348 610 1348 496 1457 c 0
 458 1491 458 1491 370 1501 c 0
 296 1509 296 1509 230 1473 c 0
 164 1437 164 1437 139 1366 c 0
 111 1287 111 1287 142 1232 c 1
EndSplineSet
Refer: 320 -1 N 1 0 0 1 98 65 2
EndChar

StartChar: at
Encoding: 64 64 422
Width: 1496
Flags: W
HStem: -248 36<523 571> -14 86<989 1168> -10 116<566 682> 778 92<780 995> 1076 80<628 1037>
VStem: 98 80<125 574> 388 148<130 464> 846 132<84 250> 1344 80<314 755>
LayerCount: 2
Fore
SplineSet
836 1156 m 0,0,1
 1106 1156 1106 1156 1268 975 c 0,2,3
 1401 826 1401 826 1421 605 c 0,4,5
 1424 572 1424 572 1424 540 c 0,6,7
 1424 322 1424 322 1317 164 c 0,8,9
 1219 19 1219 19 1072 -8 c 0,10,11
 1042 -14 1042 -14 1012 -14 c 0,12,13
 874 -14 874 -14 851 108 c 0,14,15
 847 132 847 132 846 158 c 0,16,17
 846 204 846 204 859 246 c 0,18,19
 860 248 860 248 860 250 c 1,20,21
 814 160 814 160 738 82 c 0,22,23
 649 -9 649 -9 578 -10 c 0,24,25
 476 -10 476 -10 423 96 c 0,26,27
 388 167 388 167 388 260 c 0,28,29
 388 432 388 432 510 601 c 0,30,31
 620 753 620 753 774 825 c 0,32,33
 870 870 870 870 960 870 c 0,34,35
 1036 870 1036 870 1106 844 c 1,36,-1
 984 212 l 1,37,38
 978 189 978 189 978 162 c 0,39,40
 978 85 978 85 1051 74 c 0,41,42
 1062 72 1062 72 1074 72 c 0,43,44
 1154 72 1154 72 1230 171 c 0,45,46
 1320 289 1320 289 1340 461 c 0,47,48
 1344 498 1344 498 1344 534 c 0,49,50
 1344 739 1344 739 1237 886 c 0,51,52
 1107 1064 1107 1064 867 1075 c 0,53,54
 851 1076 851 1076 836 1076 c 0,55,56
 586 1076 586 1076 404 894 c 0,57,58
 253 743 253 743 200 523 c 0,59,60
 178 431 178 431 178 340 c 0,61,62
 178 120 178 120 309 -40 c 0,63,64
 369 -112 369 -112 444 -156 c 0,65,66
 521 -200 521 -200 594 -212 c 1,67,68
 594 -228 594 -228 553 -242 c 0,69,70
 535 -248 535 -248 522 -248 c 0,71,72
 475 -248 475 -248 444 -236 c 0,73,74
 308 -186 308 -186 211 -43 c 0,75,76
 98 126 98 126 98 340 c 0,77,78
 98 582 98 582 221 791 c 0,79,80
 347 1006 347 1006 557 1099 c 0,81,82
 688 1156 688 1156 836 1156 c 0,0,1
876 778 m 0,83,84
 782 778 782 778 686 672 c 0,85,86
 584 560 584 560 549 411 c 0,87,88
 536 355 536 355 536 302 c 0,89,90
 537 107 537 107 638 106 c 0,91,92
 704 106 704 106 787 232 c 0,93,94
 874 364 874 364 912 520 c 0,95,96
 916 535 916 535 918 548 c 2,97,-1
 958 752 l 1,98,99
 934 778 934 778 876 778 c 0,83,84
EndSplineSet
Comment: "From Crimson Text, svn trunk@50" 
Colour: aabbcc
EndChar

StartChar: bracketleft
Encoding: 91 91 697
Width: 690
VWidth: 0
Flags: W
LayerCount: 2
Fore
SplineSet
640 1280 m 1,0,-1
 640 1180 l 1,1,-1
 350 1180 l 1,2,-1
 350 -500 l 1,3,-1
 640 -500 l 1,4,-1
 640 -600 l 1,5,-1
 250 -600 l 1,6,-1
 250 1280 l 1,7,-1
 640 1280 l 1,0,-1
EndSplineSet
EndChar

StartChar: asciicircum
Encoding: 94 94 529
Width: 1060
VWidth: 2045
Flags: W
LayerCount: 2
Fore
SplineSet
530 1214 m 1,0,-1
 322 709 l 1,1,-1
 229 709 l 1,2,-1
 489 1331 l 1,3,-1
 575 1331 l 1,4,-1
 834 709 l 1,5,-1
 741 709 l 1,6,-1
 530 1214 l 1,0,-1
EndSplineSet
Comment: "From Linux Libertine, svn trunk@143" 
Colour: aabbcc
EndChar

StartChar: underscore
Encoding: 95 95 497
Width: 1010
Flags: W
HStem: -86 112<36 953>
LayerCount: 2
Fore
SplineSet
28 -66 m 1,0,1
 38 -8 l 1,2,3
 47 25 47 25 58 26 c 1,4,-1
 956 26 l 1,5,6
 963 24 963 24 964 16 c 1,7,8
 964 -2 964 -2 944 -74 c 0,9,10
 942 -79 942 -79 939 -82 c 0,11,12
 936 -86 936 -86 934 -86 c 2,13,-1
 932 -86 l 1,14,-1
 42 -86 l 1,15,-1
 34 -83 l 1,16,17
 28 -76 28 -76 28 -66 c 1,0,1
EndSplineSet
Comment: "From Crimson Text, svn trunk@50" 
Colour: aabbcc
EndChar

StartChar: grave
Encoding: 96 96 528
Width: 802
VWidth: 2045
Flags: W
LayerCount: 2
Fore
SplineSet
365 1432 m 1,0,-1
 508 1174 l 1,1,2
 536 1117 536 1117 501 1104 c 0,3,4
 495 1102 495 1102 483.5 1103 c 128,-1,5
 472 1104 472 1104 430 1143 c 2,6,-1
 197 1366 l 1,7,-1
 201 1389 l 1,8,9
 265 1435 265 1435 334 1436 c 0,10,11
 349 1436 349 1436 365 1432 c 1,0,-1
EndSplineSet
Comment: "From Linux Libertine, svn trunk@143" 
Colour: aabbcc
EndChar

StartChar: braceleft
Encoding: 123 123 388
Width: 400
Flags: W
LayerCount: 2
Fore
SplineSet
144 340 m 1,0,1
 275 423 275 423 304 608 c 256,2,3
 333 793 333 793 234 958 c 0,4,5
 174 1057 174 1057 169 1138 c 0,6,7
 160 1288 160 1288 302 1445 c 0,8,-1
 303 1445 l 24,9,-1
 303 1446 l 0,10,11
 316 1463 316 1463 300.5 1479 c 128,-1,12
 285 1495 285 1495 266 1479 c 0,13,14
 109 1347 109 1347 105 1091 c 0,15,16
 103 977 103 977 162 820 c 0,17,18
 219 668 219 668 228 604 c 0,19,20
 248 461 248 461 90 366 c 1,21,-1
 90 314 l 1,22,23
 248 219 248 219 228 76 c 0,24,25
 219 12 219 12 162 -140 c 0,26,27
 103 -297 103 -297 105 -411 c 0,28,29
 109 -667 109 -667 266 -799 c 0,30,31
 285 -815 285 -815 300.5 -799 c 128,-1,32
 316 -783 316 -783 303 -766 c 0,33,-1
 303 -765 l 24,34,-1
 302 -765 l 0,35,36
 160 -608 160 -608 169 -458 c 0,37,38
 174 -377 174 -377 234 -278 c 0,39,40
 333 -113 333 -113 304 72 c 256,41,42
 275 257 275 257 144 340 c 1,0,1
EndSplineSet
EndChar

StartChar: bar
Encoding: 124 124 647
Width: 280
Flags: W
LayerCount: 2
Fore
SplineSet
90 1470 m 1,0,-1
 190 1470 l 1,1,-1
 190 -790 l 1,2,-1
 90 -790 l 1,3,-1
 90 1470 l 1,0,-1
EndSplineSet
EndChar

StartChar: asciitilde
Encoding: 126 126 529
Width: 919
VWidth: 2045
Flags: W
HStem: 436 121<501 730> 569 121<190 423>
VStem: 53 35<422 447> 819 35<663 691>
LayerCount: 2
Fore
SplineSet
53 428 m 1,0,1
 76 541 76 541 154 615 c 0,2,3
 232 689 232 689 307 689 c 0,4,5
 382 689 382 689 471 623 c 0,6,7
 560 557 560 557 624 557 c 0,8,9
 687 557 687 557 741 599 c 0,10,11
 795 641 795 641 819 694 c 1,12,13
 843 693 843 693 854 682 c 1,14,15
 801 496 801 496 673 449 c 0,16,17
 639 437 639 437 608 436 c 0,18,19
 543 437 543 437 454 503 c 0,20,21
 365 569 365 569 297 569 c 0,22,23
 230 569 230 569 172 518 c 0,24,25
 114 467 114 467 88 420 c 1,26,27
 69 421 69 421 53 428 c 1,0,1
EndSplineSet
Comment: "From Linux Libertine, svn trunk@143" 
Colour: aabbcc
EndChar

StartChar: brokenbar
Encoding: 166 166 603
Width: 280
Flags: W
LayerCount: 2
Fore
SplineSet
190 140 m 1,0,-1
 190 -790 l 1,1,-1
 90 -790 l 1,2,-1
 90 140 l 1,3,-1
 190 140 l 1,0,-1
90 540 m 1,4,-1
 90 1470 l 1,5,-1
 190 1470 l 1,6,-1
 190 540 l 1,7,-1
 90 540 l 1,4,-1
EndSplineSet
EndChar

StartChar: periodcentered
Encoding: 183 183 531
Width: 512
VWidth: 2045
Flags: MW
LayerCount: 2
Fore
SplineSet
146 532 m 0,0,1
 146 591 146 591 195 623 c 0,2,3
 223 641 223 641 256 642 c 0,4,5
 315 642 315 642 347 593 c 0,6,7
 365 565 365 565 366 532 c 0,8,9
 366 473 366 473 317 441 c 0,10,11
 289 423 289 423 256 422 c 0,12,13
 197 422 197 422 165 471 c 0,14,15
 146 499 146 499 146 532 c 0,0,1
EndSplineSet
EndChar
StartChar: uni030A
Encoding: 778 778 5774
Width: 0
GlyphClass: 4
Flags: W
AnchorPoint: "TashkilAbove" 254 1640 mark 0
AnchorPoint: "MarkAbove" 254 1640 mark 0
AnchorPoint: "TashkilTashkilAbove" 256 2214 basemark 0
LayerCount: 2
Fore
SplineSet
88 1898 m 0,0,1
 89 1836 89 1836 128 1789 c 0,2,3
 179 1732 179 1732 254 1732 c 0,4,5
 316 1733 316 1733 363 1772 c 0,6,7
 420 1823 420 1823 420 1898 c 0,8,9
 419 1960 419 1960 380 2007 c 0,10,11
 329 2064 329 2064 254 2064 c 0,12,13
 192 2063 192 2063 145 2024 c 0,14,15
 88 1973 88 1973 88 1898 c 0,0,1
12 1898 m 0,16,17
 13 2009 13 2009 97 2081 c 0,18,19
 166 2140 166 2140 254 2140 c 0,20,21
 365 2139 365 2139 437 2055 c 0,22,23
 494 1986 494 1986 496 1898 c 0,24,25
 495 1787 495 1787 411 1715 c 0,26,27
 342 1658 342 1658 254 1656 c 0,28,29
 143 1657 143 1657 71 1741 c 0,30,31
 13 1810 13 1810 12 1898 c 0,16,17
EndSplineSet
EndChar
StartChar: uni0600
Encoding: 1536 1536 4827
Width: 2324
VWidth: 0
Flags: W
LayerCount: 2
Back
SplineSet
2064 -128 m 9,0,-1
 2005 -114 l 2,1,2
 1905 -90 1905 -90 1905 -29 c 0,3,4
 1905 96 1905 96 2014 217 c 0,5,6
 2085 296 2085 296 2145 296 c 0,7,8
 2160 296 2160 296 2151 273 c 2,9,-1
 2107 165 l 2,10,11
 2096 139 2096 139 2085 136 c 0,12,13
 2025 120 2025 120 2004 93 c 0,14,15
 1992 78 1992 78 2034 61 c 128,-1,16
 2076 44 2076 44 2142 34.5 c 128,-1,17
 2208 25 2208 25 2208 -30 c 128,-1,18
 2208 -85 2208 -85 2149 -164 c 0,19,20
 2021 -335 2021 -335 1157 -335 c 0,21,22
 297 -335 297 -335 211 -300 c 0,23,24
 168 -283 168 -283 138 -249 c 2,25,-1
 71 -175 l 2,26,27
 60 -163 60 -163 60 -154.5 c 128,-1,28
 60 -146 60 -146 94 -152 c 0,29,30
 321 -192 321 -192 1147 -192 c 128,-1,31
 1973 -192 1973 -192 2064 -128 c 9,0,-1
EndSplineSet
Fore
SplineSet
1938 -136 m 1,0,1
 1907 -79 1907 -79 1904.5 -12.5 c 128,-1,2
 1902 54 1902 54 1920 106 c 0,3,4
 1992 310 1992 310 2130 331 c 0,5,6
 2198 341 2198 341 2251 287 c 0,7,8
 2268 269 2268 269 2264 256 c 0,9,10
 2248 197 2248 197 2227 165 c 0,11,12
 2219 153 2219 153 2208 163 c 0,13,14
 2129 233 2129 233 2050 189 c 128,-1,15
 1971 145 1971 145 1959.5 100.5 c 128,-1,16
 1948 56 1948 56 1954 35 c 0,17,18
 1980 -63 1980 -63 2034 -96 c 0,19,20
 2171 -146 l 0,21,22
 2194 -158 2194 -158 2193 -183 c 0,23,24
 2190 -254 2190 -254 2182 -292 c 0,25,26
 2177 -312 2177 -312 2160 -303 c 0,27,28
 2037 -236 2037 -236 1998 -235.5 c 128,-1,29
 1959 -235 1959 -235 1901 -262 c 0,30,31
 1746 -335 1746 -335 1157 -335 c 0,32,33
 330 -335 330 -335 211 -288 c 0,34,35
 180 -276 180 -276 138 -237 c 2,36,-1
 71 -175 l 2,37,38
 60 -164 60 -164 60 -155.5 c 128,-1,39
 60 -147 60 -147 94 -152 c 0,40,41
 465 -203 465 -203 1050.5 -203 c 128,-1,42
 1636 -203 1636 -203 1770.5 -182 c 128,-1,43
 1905 -161 1905 -161 1938 -136 c 1,0,1
EndSplineSet
EndChar

StartChar: uni0601
Encoding: 1537 1537 4871
Width: 3651
VWidth: 0
Flags: W
LayerCount: 2
Back
SplineSet
3524 -71 m 0,0,1
 3591 -71 3591 -71 3591 -117 c 0,2,3
 3591 -143 3591 -143 3575 -192.5 c 128,-1,4
 3559 -242 3559 -242 3526 -278.5 c 128,-1,5
 3493 -315 3493 -315 3402 -412 c 128,-1,6
 3311 -509 3311 -509 3250 -596 c 0,7,8
 3229 -625 3229 -625 3220.5 -615 c 128,-1,9
 3212 -605 3212 -605 3225 -581 c 1,10,11
 3301 -454 3301 -454 3371 -378.5 c 128,-1,12
 3441 -303 3441 -303 3511 -237 c 1,13,14
 3498 -207 3498 -207 3458.5 -207 c 128,-1,15
 3419 -207 3419 -207 3359 -232 c 0,16,17
 2994 -381 2994 -381 2770 -452 c 0,18,19
 2302 -601 2302 -601 1842 -601 c 0,20,21
 1530 -601 1530 -601 1341 -542 c 128,-1,22
 1152 -483 1152 -483 1010 -365 c 1,23,24
 994 -354 994 -354 983 -371 c 0,25,26
 927 -465 927 -465 855 -506 c 0,27,28
 810 -532 810 -532 767 -532 c 0,29,30
 690 -532 690 -532 616 -451 c 0,31,32
 605 -438 605 -438 570 -394.5 c 128,-1,33
 535 -351 535 -351 497 -351 c 128,-1,34
 459 -351 459 -351 414.5 -410 c 128,-1,35
 370 -469 370 -469 358.5 -497 c 128,-1,36
 347 -525 347 -525 322.5 -592.5 c 128,-1,37
 298 -660 298 -660 271.5 -694 c 128,-1,38
 245 -728 245 -728 208 -729 c 1,39,40
 133 -728 133 -728 96.5 -636.5 c 128,-1,41
 60 -545 60 -545 60 -299 c 0,42,43
 60 -279 60 -279 73.5 -274.5 c 128,-1,44
 87 -270 87 -270 91 -284.5 c 128,-1,45
 95 -299 95 -299 96 -392 c 0,46,47
 98 -600 98 -600 198 -615 c 1,48,-1
 203 -615 l 2,49,50
 243 -615 243 -615 285 -527 c 0,51,52
 296 -504 296 -504 315 -460 c 0,53,54
 418 -209 418 -209 532 -209 c 0,55,56
 570 -209 570 -209 624 -274 c 128,-1,57
 678 -339 678 -339 714 -362.5 c 128,-1,58
 750 -386 750 -386 797 -386 c 0,59,60
 910 -386 910 -386 1004 -233 c 0,61,62
 1033 -186 1033 -186 1054 -186 c 0,63,64
 1069 -186 1069 -186 1091 -221 c 0,65,66
 1161 -334 1161 -334 1377 -394.5 c 128,-1,67
 1593 -455 1593 -455 1945 -455 c 0,68,69
 2368 -455 2368 -455 2903 -277 c 0,70,71
 2974 -253 2974 -253 3201.5 -162 c 128,-1,72
 3429 -71 3429 -71 3524 -71 c 0,0,1
395 341 m 2,0,1
 397 346 397 346 400 346 c 0,2,3
 452 346 452 346 530 288 c 0,4,5
 538 282 538 282 533 275 c 1,6,-1
 471 151 l 1,7,8
 537 134 537 134 590 93 c 0,9,10
 598 87 598 87 592 79 c 1,11,-1
 524 -51 l 2,12,13
 524 -52 524 -52 516 -52 c 128,-1,14
 508 -52 508 -52 387 13 c 0,15,16
 380 17 380 17 384 23 c 2,17,-1
 453 143 l 1,18,19
 449 148 449 148 329 207 c 0,20,21
 322 211 322 211 326 216 c 1,22,-1
 395 341 l 2,0,1
884 194 m 2,23,24
 887 200 887 200 891 200 c 2,25,-1
 897 200 l 1,26,27
 965 189 965 189 1023 152 c 0,28,29
 1031 147 1031 147 1027 138 c 2,30,-1
 971 3 l 2,31,32
 971 2 971 2 961 2 c 128,-1,33
 951 2 951 2 829 54 c 0,34,35
 822 57 822 57 825 63 c 2,36,-1
 884 194 l 2,23,24
-69.705078125 234.931640625 m 1,121,122
 -41.1533203125 261.182617188 -41.1533203125 261.182617188 -4.9140625 240.67578125 c 0,123,124
 100.018554688 179.93359375 100.018554688 179.93359375 138.591796875 97.4619140625 c 0,125,126
 156.196289062 59.009765625 156.196289062 59.009765625 156.9609375 19.7890625 c 0,127,128
 157.544921875 -63.2646484375 157.544921875 -63.2646484375 120.227539062 -100.331054688 c 0,129,130
 105.034179688 -115.157226562 105.034179688 -115.157226562 82.056640625 -113.444335938 c 0,131,132
 48.5751953125 -110.685546875 48.5751953125 -110.685546875 -7.9365234375 -90.3857421875 c 1,133,134
 -39.51171875 -175.513671875 -39.51171875 -175.513671875 -121.845703125 -253.180664062 c 0,135,136
 -139.487304688 -269.6875 -139.487304688 -269.6875 -156.599609375 -282.923828125 c 0,137,138
 -298.381835938 -392.041992188 -298.381835938 -392.041992188 -464.967773438 -476.419921875 c 0,139,140
 -468.303710938 -478.106445312 -468.303710938 -478.106445312 -470.890625 -479.411132812 c 0,141,142
 -484.8359375 -486.436523438 -484.8359375 -486.436523438 -485.282226562 -477.55859375 c 1,143,144
 -484.665039062 -469.91796875 -484.665039062 -469.91796875 -476.025390625 -462.81640625 c 0,145,146
 -449.131835938 -442.361328125 -449.131835938 -442.361328125 -393.522460938 -401.76953125 c 0,147,148
 -261.239257812 -305.086914062 -261.239257812 -305.086914062 -197.763671875 -248.477539062 c 0,149,150
 -77.388671875 -140.557617188 -77.388671875 -140.557617188 -45.4033203125 -76.80859375 c 1,151,152
 -81.6181640625 -61.357421875 -81.6181640625 -61.357421875 -112.013671875 -42.1103515625 c 0,153,154
 -157.182617188 -12.2314453125 -157.182617188 -12.2314453125 -144.784179688 48.9619140625 c 0,155,156
 -143.373046875 55.7001953125 -143.373046875 55.7001953125 -141.09375 69.5966796875 c 0,157,158
 -136.213867188 98.50390625 -136.213867188 98.50390625 -131.549804688 112.0390625 c 0,159,160
 -113.33984375 162.59765625 -113.33984375 162.59765625 -89.921875 186.928710938 c 1,161,162
 -85.6318359375 219.1640625 -85.6318359375 219.1640625 -69.705078125 234.931640625 c 1,121,122
-56.22265625 118.19140625 m 0,163,164
 -75.73046875 120.120117188 -75.73046875 120.120117188 -87.9677734375 95.1083984375 c 0,165,166
 -100.205078125 68.330078125 -100.205078125 68.330078125 -85.400390625 50.96484375 c 0,167,168
 -73.0478515625 37.28515625 -73.0478515625 37.28515625 -32.7412109375 24.7998046875 c 0,169,170
 -30.4462890625 24.0849609375 -30.4462890625 24.0849609375 -29.234375 23.7060546875 c 0,171,172
 -21.875 23 -21.875 23 -20.7578125 28.880859375 c 0,173,174
 -14.51953125 113.3515625 -14.51953125 113.3515625 -56.22265625 118.19140625 c 0,163,164
48.7939453125 97.0888671875 m 1,175,176
 33.9609375 108.62890625 33.9609375 108.62890625 34.9609375 95.2890625 c 0,177,178
 39.1357421875 63.279296875 39.1357421875 63.279296875 21.64453125 7.2236328125 c 1,179,180
 53.669921875 -9.236328125 53.669921875 -9.236328125 80.0576171875 -12.7265625 c 0,181,182
 96.609375 -14.8154296875 96.609375 -14.8154296875 98.4921875 -11.4091796875 c 0,183,184
 100.047851562 -7.40234375 100.047851562 -7.40234375 100.118164062 3.3359375 c 0,185,186
 99.396484375 52.794921875 99.396484375 52.794921875 48.7939453125 97.0888671875 c 1,175,176
EndSplineSet
Fore
SplineSet
3524 -71 m 0,0,1
 3591 -71 3591 -71 3591 -117 c 0,2,3
 3591 -143 3591 -143 3575 -192.5 c 128,-1,4
 3559 -242 3559 -242 3526 -278.5 c 128,-1,5
 3493 -315 3493 -315 3402 -412 c 128,-1,6
 3311 -509 3311 -509 3250 -596 c 0,7,8
 3229 -625 3229 -625 3220.5 -615 c 128,-1,9
 3212 -605 3212 -605 3225 -581 c 1,10,11
 3301 -454 3301 -454 3371 -378.5 c 128,-1,12
 3441 -303 3441 -303 3511 -237 c 1,13,14
 3498 -207 3498 -207 3458.5 -207 c 128,-1,15
 3419 -207 3419 -207 3359 -232 c 0,16,17
 2994 -381 2994 -381 2770 -452 c 0,18,19
 2302 -601 2302 -601 1842 -601 c 0,20,21
 1530 -601 1530 -601 1341 -542 c 128,-1,22
 1152 -483 1152 -483 1010 -365 c 1,23,24
 994 -354 994 -354 983 -371 c 0,25,26
 927 -465 927 -465 855 -506 c 0,27,28
 810 -532 810 -532 767 -532 c 0,29,30
 690 -532 690 -532 616 -451 c 0,31,32
 605 -438 605 -438 570 -394.5 c 128,-1,33
 535 -351 535 -351 497 -351 c 128,-1,34
 459 -351 459 -351 414.5 -410 c 128,-1,35
 370 -469 370 -469 358.5 -497 c 128,-1,36
 347 -525 347 -525 322.5 -592.5 c 128,-1,37
 298 -660 298 -660 271.5 -694 c 128,-1,38
 245 -728 245 -728 208 -729 c 1,39,40
 133 -728 133 -728 96.5 -636.5 c 128,-1,41
 60 -545 60 -545 60 -299 c 0,42,43
 60 -279 60 -279 73.5 -274.5 c 128,-1,44
 87 -270 87 -270 91 -284.5 c 128,-1,45
 95 -299 95 -299 96 -392 c 0,46,47
 98 -600 98 -600 198 -615 c 1,48,-1
 203 -615 l 2,49,50
 243 -615 243 -615 285 -527 c 0,51,52
 296 -504 296 -504 315 -460 c 0,53,54
 418 -209 418 -209 532 -209 c 0,55,56
 570 -209 570 -209 624 -274 c 128,-1,57
 678 -339 678 -339 714 -362.5 c 128,-1,58
 750 -386 750 -386 797 -386 c 0,59,60
 910 -386 910 -386 1004 -233 c 0,61,62
 1033 -186 1033 -186 1054 -186 c 0,63,64
 1069 -186 1069 -186 1091 -221 c 0,65,66
 1161 -334 1161 -334 1377 -394.5 c 128,-1,67
 1593 -455 1593 -455 1945 -455 c 0,68,69
 2368 -455 2368 -455 2903 -277 c 0,70,71
 2974 -253 2974 -253 3201.5 -162 c 128,-1,72
 3429 -71 3429 -71 3524 -71 c 0,0,1
EndSplineSet
EndChar

StartChar: uni0602
Encoding: 1538 1538 4959
Width: 1664
VWidth: 1000
Flags: W
LayerCount: 2
Fore
SplineSet
226 -2 m 0,0,1
 153 -2 153 -2 153 -80 c 0,2,3
 153 -133 153 -133 222 -159 c 1,4,5
 256 -170 256 -170 339 -185 c 1,6,7
 339 -2 339 -2 226 -2 c 0,0,1
182 -278 m 0,8,9
 142 -259 142 -259 112.5 -224 c 128,-1,10
 83 -189 83 -189 83 -142 c 0,11,12
 83 -36 83 -36 158 50 c 0,13,14
 208 106 208 106 252.5 106 c 128,-1,15
 297 106 297 106 332 85 c 0,16,17
 387 53 387 53 387 -82 c 0,18,19
 387 -131 387 -131 380 -193 c 1,20,21
 507 -210 507 -210 791 -210 c 0,22,23
 1198 -208 1198 -208 1535 -150 c 0,24,25
 1581 -142 1581 -142 1581 -150 c 256,26,27
 1581 -157 1581 -157 1558 -173 c 2,28,-1
 1473 -231 l 2,29,30
 1435 -257 1435 -257 1388 -269 c 0,31,32
 1144 -331 1144 -331 719 -331 c 128,-1,33
 294 -331 294 -331 182 -278 c 0,8,9
EndSplineSet
EndChar

StartChar: uni0603
Encoding: 1539 1539 4924
Width: 2272
Flags: W
LayerCount: 2
Fore
SplineSet
1644 -418 m 0,0,1
 1620 -418 1620 -418 1620 -386.5 c 128,-1,2
 1620 -355 1620 -355 1648 -287 c 1,3,4
 1582 -276 1582 -276 1526 -230 c 1,5,6
 1345 -334 1345 -334 823 -334 c 0,7,8
 486 -334 486 -334 226 -263 c 0,9,10
 164 -246 164 -246 138 -217 c 2,11,-1
 71 -143 l 2,12,13
 60 -131 60 -131 60 -122 c 128,-1,14
 60 -113 60 -113 94 -120 c 0,15,16
 543 -210 543 -210 878 -210 c 0,17,18
 1362 -210 1362 -210 1561 -111 c 0,19,20
 1569 -107 1569 -107 1590 -131 c 0,21,22
 1633 -180 1633 -180 1720 -188 c 1,23,24
 1906 86 1906 86 2071 87 c 0,25,26
 2101 87 2101 87 2156.5 51 c 128,-1,27
 2212 15 2212 15 2212 -41 c 128,-1,28
 2212 -97 2212 -97 2174.5 -163.5 c 128,-1,29
 2137 -230 2137 -230 2124 -240 c 0,30,31
 2016 -322 2016 -322 1828 -322 c 0,32,33
 1755 -322 1755 -322 1692 -304 c 1,34,35
 1677 -324 1677 -324 1659 -404 c 16,36,37
 1656 -418 1656 -418 1644 -418 c 0,0,1
2124 -140 m 0,38,39
 2067 -43 2067 -43 1976.5 -43 c 128,-1,40
 1886 -43 1886 -43 1771 -201 c 1,41,42
 1802 -206 1802 -206 1849.5 -206 c 128,-1,43
 1897 -206 1897 -206 1997.5 -194.5 c 128,-1,44
 2098 -183 2098 -183 2124 -152 c 0,45,46
 2126 -150 2126 -150 2126 -147 c 128,-1,47
 2126 -144 2126 -144 2124 -140 c 0,38,39
EndSplineSet
EndChar

StartChar: uni0608
Encoding: 1544 1544 4801
Width: 1763
Flags: W
LayerCount: 2
Fore
SplineSet
1226 198 m 1,0,1
 1121 212 1121 212 1101 261 c 0,2,3
 1087 299 1087 299 1131 300 c 0,4,5
 1198 301 1198 301 1226 198 c 1,0,1
1289 -87 m 0,6,7
 1225 -219 1225 -219 1045 -290 c 0,8,9
 869 -360 869 -360 695 -338 c 0,10,11
 517 -316 517 -316 454 -219 c 0,12,13
 337 -41 337 -41 516 215 c 0,14,15
 530 235 530 235 512 249 c 0,16,17
 498 260 498 260 470 233 c 0,18,19
 304 78 304 78 117 69 c 0,20,21
 96 68 96 68 94 32 c 2,22,-1
 90 -38 l 2,23,24
 88 -71 88 -71 117 -67 c 0,25,26
 261 -46 261 -46 383 64 c 1,27,28
 292 -134 292 -134 342 -299 c 0,29,30
 376 -412 376 -412 480 -472 c 0,31,32
 606 -544 606 -544 784 -522 c 0,33,34
 1100 -483 1100 -483 1263 -266 c 0,35,36
 1304 -213 1304 -213 1332 -113 c 0,37,38
 1352 -46 1352 -46 1361 2 c 1,39,40
 1463 9 1463 9 1566 46 c 1,41,-1
 1557 22 l 2,42,43
 1548 -3 1548 -3 1568 -9 c 0,44,45
 1591 -16 1591 -16 1601 11 c 2,46,-1
 1673 198 l 2,47,48
 1697 261 1697 261 1620 234 c 0,49,50
 1478 186 1478 186 1366 188 c 1,51,52
 1321 456 1321 456 1195 456 c 0,53,54
 1138 456 1138 456 1067 317 c 0,55,56
 964 124 964 124 1033 62 c 0,57,58
 1096 5 1096 5 1282 0 c 1,59,60
 1299 -65 1299 -65 1289 -87 c 0,6,7
EndSplineSet
EndChar

StartChar: uni060B
Encoding: 1547 1547 4625
Width: 1026
Flags: W
LayerCount: 2
Fore
SplineSet
697 838 m 0,0,1
 724 838 724 838 763 804 c 0,2,3
 946 643 946 643 936 399 c 0,4,5
 931 285 931 285 873 194 c 0,6,7
 723 -41 723 -41 161 10 c 0,8,9
 120 14 120 14 113 46 c 2,10,-1
 92 143 l 2,11,12
 79 204 79 204 151 195 c 0,13,14
 652 139 652 139 846 331 c 1,15,16
 841 392 841 392 827 412 c 0,17,18
 813 432 813 432 804 430 c 0,19,20
 795 428 795 428 792 421 c 0,21,22
 757 332 757 332 686 316 c 0,23,24
 461 268 461 268 480 490 c 0,25,26
 489 599 489 599 561 719 c 0,27,28
 633 839 633 839 697 838 c 0,0,1
573 524 m 1,29,30
 683 504 683 504 714 544 c 1,31,32
 667 618 667 618 629 616 c 0,33,34
 577 614 577 614 573 524 c 1,29,30
EndSplineSet
Refer: 191 -1 N 1 0 0 1 621 1010 2
Refer: 255 1648 N 1 0 0 1 240 -2510 2
EndChar

StartChar: uni060C
Encoding: 1548 1548 310
Width: 756
VWidth: 0
Flags: W
LayerCount: 2
Fore
SplineSet
382 849 m 0,0,1
 415 872 415 872 436.5 848 c 128,-1,2
 458 824 458 824 430 795 c 0,3,4
 177 535 177 535 257 313 c 24,5,6
 266 289 266 289 280 304 c 0,7,8
 327 361 327 361 401 361 c 0,9,10
 465 361 465 361 510.5 315.5 c 128,-1,11
 556 270 556 270 556 206 c 128,-1,12
 556 142 556 142 506.5 95 c 128,-1,13
 457 48 457 48 393 50 c 0,14,15
 315 52 315 52 270 87 c 0,16,17
 141 187 141 187 164 456 c 0,18,19
 175 578 175 578 248.5 692.5 c 128,-1,20
 322 807 322 807 382 849 c 0,0,1
EndSplineSet
EndChar

StartChar: uni060D
Encoding: 1549 1549 4938
Width: 648
Flags: W
LayerCount: 2
Fore
SplineSet
549 942 m 2,0,-1
 519 876 l 2,1,2
 481 795 481 795 436 835 c 0,3,4
 386 878 386 878 309 802 c 0,5,6
 230 726 230 726 136 574 c 0,7,8
 112 535 112 535 92 544 c 0,9,10
 69 556 69 556 90 606 c 0,11,12
 144 731 144 731 260 900 c 0,13,14
 393 1087 393 1087 523 1063 c 0,15,16
 599 1049 599 1049 549 942 c 2,0,-1
EndSplineSet
EndChar

StartChar: uni060E
Encoding: 1550 1550 4981
Width: 1375
VWidth: 1000
Flags: W
LayerCount: 2
Fore
SplineSet
223 152 m 0,0,1
 150 152 150 152 150 74 c 0,2,3
 150 21 150 21 219 -5 c 0,4,5
 253 -16 253 -16 336 -31 c 1,6,7
 336 152 336 152 223 152 c 0,0,1
179 -124 m 0,8,9
 139 -105 139 -105 109.5 -70 c 128,-1,10
 80 -35 80 -35 80 12 c 0,11,12
 80 118 80 118 155 204 c 1,13,14
 205 260 205 260 249.5 260 c 128,-1,15
 294 260 294 260 329 239 c 0,16,17
 384 207 384 207 384 72 c 0,18,19
 384 23 384 23 377 -39 c 1,20,21
 506 -58 506 -58 678 -56 c 0,22,23
 912 -54 912 -54 1250 4 c 0,24,25
 1296 12 1296 12 1296 4 c 256,26,27
 1296 -3 1296 -3 1273 -19 c 2,28,-1
 1188 -77 l 2,29,30
 1150 -103 1150 -103 1103 -115 c 0,31,32
 859 -177 859 -177 602 -177 c 0,33,34
 291 -177 291 -177 179 -124 c 0,8,9
EndSplineSet
EndChar

StartChar: uni060F
Encoding: 1551 1551 4781
Width: 1658
Flags: W
LayerCount: 2
Fore
SplineSet
337 -363 m 1,0,1
 330 33 330 33 611 327 c 1,2,3
 450 391 450 391 399 462 c 0,4,5
 378 491 378 491 381 527 c 0,6,7
 389 623 389 623 432 702 c 0,8,9
 529 881 529 881 651 940 c 0,10,11
 711 969 711 969 795.5 919.5 c 128,-1,12
 880 870 880 870 915 820 c 0,13,14
 937 789 937 789 888 799 c 0,15,16
 624 852 624 852 452 622 c 0,17,18
 443 610 443 610 457 596 c 0,19,20
 592 461 592 461 794 485 c 0,21,22
 827 489 827 489 890 527 c 0,23,24
 1131 672 1131 672 1160 690 c 0,25,26
 1199 713 1199 713 1179 655 c 0,27,28
 1134 526 1134 526 1107 513 c 0,29,30
 914 420 914 420 701 263 c 0,31,32
 420 56 420 56 395 -307 c 1,33,34
 632 -86 632 -86 801 -4 c 0,35,36
 1140 160 1140 160 1357 68 c 0,37,38
 1504 5 1504 5 1550 -134 c 0,39,40
 1616 -342 1616 -342 1445 -608 c 0,41,42
 1209 -975 1209 -975 873 -976 c 0,43,44
 399 -977 399 -977 343 -470 c 1,45,46
 235 -577 235 -577 121 -712 c 0,47,48
 80 -760 80 -760 93 -713 c 2,49,-1
 128 -588 l 2,50,51
 137 -558 137 -558 337 -363 c 1,0,1
406 -411 m 1,52,53
 508 -794 508 -794 940 -794 c 0,54,55
 1342 -793 1342 -793 1457 -450 c 0,56,57
 1518 -267 1518 -267 1364 -125 c 128,-1,58
 1210 17 1210 17 856 -112 c 0,59,60
 668 -180 668 -180 406 -411 c 1,52,53
EndSplineSet
EndChar

StartChar: uni0610
Encoding: 1552 1552 4861
Width: 0
GlyphClass: 4
Flags: W
LayerCount: 2
Fore
SplineSet
574 2045 m 1,0,1
 511 2103 511 2103 439.5 2084.5 c 128,-1,2
 368 2066 368 2066 252 1976 c 1,3,4
 466 1964 466 1964 574 2045 c 1,0,1
83 2005 m 1,5,6
 126 1979 126 1979 203 1977 c 1,7,8
 292 2068 292 2068 382 2132 c 128,-1,9
 472 2196 472 2196 524 2196 c 1,10,11
 602 2198 602 2198 635 2106 c 1,12,13
 642 2080 642 2080 620 2035 c 128,-1,14
 598 1990 598 1990 584 1975 c 0,15,16
 510 1895 510 1895 308 1877 c 0,17,18
 205 1868 205 1868 111 1887 c 1,19,20
 117 1790 117 1790 75 1679 c 0,21,22
 66 1656 66 1656 50 1660 c 128,-1,23
 34 1664 34 1664 39 1686 c 0,24,25
 74 1842 74 1842 6 1962 c 0,26,27
 -2 1976 -2 1976 0 1980 c 2,28,-1
 32 2064 l 2,29,30
 39 2082 39 2082 54.5 2059.5 c 128,-1,31
 70 2037 70 2037 83 2005 c 1,5,6
EndSplineSet
EndChar

StartChar: uni0611
Encoding: 1553 1553 4824
Width: 0
GlyphClass: 4
Flags: W
LayerCount: 2
Fore
SplineSet
111 1887 m 1,0,1
 118 1790 118 1790 75 1679 c 0,2,3
 66 1656 66 1656 50 1660 c 128,-1,4
 34 1664 34 1664 39 1686 c 0,5,6
 74 1842 74 1842 6 1962 c 0,7,8
 -2 1976 -2 1976 0 1980 c 2,9,-1
 32 2064 l 2,10,11
 45 2096 45 2096 83 2005 c 1,12,13
 149 1975 149 1975 254 1977 c 1,14,15
 223 2016 223 2016 219 2068 c 0,16,17
 210 2166 210 2166 271 2225.5 c 128,-1,18
 332 2285 332 2285 392.5 2297 c 128,-1,19
 453 2309 453 2309 551 2224 c 0,20,21
 564 2213 564 2213 556 2199 c 1,22,23
 547 2186 547 2186 533 2192 c 24,24,25
 430 2232 430 2232 326 2194 c 0,26,27
 281 2178 281 2178 272 2154 c 1,28,29
 264 2129 264 2129 302.5 2068 c 128,-1,30
 341 2007 341 2007 371 2003 c 1,31,32
 438 1991 438 1991 542 2055 c 0,33,34
 580 2078 580 2078 587.5 2070.5 c 152,-1,35
 595 2063 595 2063 592 2056 c 2,36,-1
 552 1973 l 2,37,38
 545 1959 545 1959 539 1954 c 1,39,40
 350 1839 350 1839 111 1887 c 1,0,1
EndSplineSet
EndChar

StartChar: uni0612
Encoding: 1554 1554 4977
Width: 0
GlyphClass: 4
Flags: W
LayerCount: 2
Fore
SplineSet
0 1679 m 0
 0 1971 0 1971 260 2088 c 1
 144 2117 144 2117 52 2081 c 0
 34 2074 34 2074 35 2086 c 0
 39 2189 39 2189 144 2194 c 0
 184 2196 184 2196 270 2179 c 24
 356 2162 356 2162 416 2163 c 0
 476 2164 476 2164 564 2179 c 0
 594 2184 594 2184 583 2160 c 2
 558 2106 l 2
 554 2098 554 2098 547 2096 c 0
 295 2060 295 2060 204 2000 c 0
 35 1890 35 1890 35 1679 c 0
 32 1662 32 1662 16 1662 c 24
 4 1662 4 1662 0 1679 c 0
EndSplineSet
Refer: 48 -1 N 0.5 0 0 0.5 271 1873 2
EndChar

StartChar: uni0614
Encoding: 1556 1556 4910
Width: 0
VWidth: 0
GlyphClass: 4
Flags: W
LayerCount: 2
Fore
SplineSet
581 1810 m 1,0,1
 299 1696 299 1696 -19 1753 c 0,2,3
 -53 1760 -53 1760 -50 1786 c 0,4,5
 -47 1807 -47 1807 -13 1805 c 0,6,7
 459 1788 459 1788 616 1934 c 0,8,9
 634 1949 634 1949 643 1944 c 0,10,11
 657 1936 657 1936 649 1915 c 0,12,-1
 641 1894 l 1,13,14
 728 1828 728 1828 815 1834 c 1,15,16
 816 1848 816 1848 798 1878 c 0,17,18
 788 1895 788 1895 799 1919 c 2,19,-1
 831 1986 l 2,20,21
 843 2012 843 2012 858 1974 c 0,22,23
 878 1922 878 1922 865 1843 c 0,24,25
 848 1742 848 1742 803 1737 c 0,26,27
 694 1725 694 1725 581 1810 c 1,0,1
EndSplineSet
EndChar
StartChar: uni0616
Encoding: 1558 1558 4615
Width: 0
VWidth: 0
GlyphClass: 4
Flags: W
AnchorPoint: "MarkAbove" 439 1640 mark 0
AnchorPoint: "TashkilAboveDot" 437 1640 mark 0
AnchorPoint: "TashkilAbove" 437 1640 mark 0
LayerCount: 2
Fore
SplineSet
543 2379 m 0,0,1
 573 2127 573 2127 568 2030 c 128,-1,2
 563 1933 563 1933 546.5 1889.5 c 128,-1,3
 530 1846 530 1846 522 1846 c 0,4,5
 508 1845 508 1845 511 1871 c 1,6,7
 517 1972 517 1972 487 2288 c 0,8,9
 484 2317 484 2317 490 2327 c 2,10,-1
 514 2376 l 2,11,12
 537 2423 537 2423 543 2379 c 0,0,1
301 2371 m 0,13,14
 336 2147 336 2147 313 2027.5 c 128,-1,15
 290 1908 290 1908 157 1828 c 1,16,17
 362 1796 362 1796 876 1841 c 0,18,19
 902 1844 902 1844 888 1821 c 2,20,-1
 851 1767 l 2,21,22
 842 1754 842 1754 832 1751 c 0,23,24
 740 1737 740 1737 504.5 1729 c 128,-1,25
 269 1721 269 1721 153 1738 c 0,26,27
 117 1743 117 1743 111 1772 c 1,28,29
 105 1816 105 1816 131 1859 c 128,-1,30
 157 1902 157 1902 187 1924 c 0,31,32
 278 1988 278 1988 275 2064 c 1,33,34
 261 2212 261 2212 247 2311 c 0,35,36
 243 2337 243 2337 251 2350 c 2,37,-1
 270 2379 l 2,38,39
 295 2415 295 2415 301 2371 c 0,13,14
EndSplineSet
EndChar

StartChar: uni0617
Encoding: 1559 1559 4799
Width: 0
Flags: W
AnchorPoint: "MarkAbove" 478 2600 mark 0
LayerCount: 2
Fore
SplineSet
441 3624 m 2,0,1
 444 3629 444 3629 472.5 3619 c 128,-1,2
 501 3609 501 3609 539 3575 c 0,3,4
 545 3570 545 3570 541 3564 c 2,5,-1
 482 3471 l 2,6,7
 478 3466 478 3466 469.5 3473 c 128,-1,8
 461 3480 461 3480 383 3527 c 0,9,10
 377 3530 377 3530 381 3534 c 1,11,-1
 441 3624 l 2,0,1
567 3292 m 2,12,13
 571 3307 571 3307 589 3289 c 0,14,15
 637 3240 637 3240 661 3157 c 128,-1,16
 685 3074 685 3074 674 2979.5 c 128,-1,17
 663 2885 663 2885 591.5 2793.5 c 128,-1,18
 520 2702 520 2702 405 2672 c 0,19,20
 374 2664 374 2664 346 2673 c 0,21,22
 161 2736 161 2736 162.5 2750.5 c 128,-1,23
 164 2765 164 2765 177 2761 c 0,24,25
 261 2735 261 2735 322 2743 c 0,26,27
 525 2770 525 2770 633 2979 c 0,28,29
 638 2988 638 2988 635 2998 c 0,30,31
 617 3063 617 3063 539 3160 c 0,32,33
 535 3165 535 3165 537 3169 c 2,34,-1
 567 3292 l 2,12,13
EndSplineSet
EndChar

StartChar: uni0619
Encoding: 1561 1561 302
Width: 0
GlyphClass: 4
Flags: W
AnchorPoint: "TashkilAbove" 500 1640 mark 0
AnchorPoint: "TashkilAboveDot" 500 1640 mark 0
LayerCount: 2
Fore
SplineSet
551 2159 m 0,0,1
 577 2166 577 2166 593 2144 c 0,2,3
 607 2123 607 2123 609 2086 c 128,-1,4
 611 2049 611 2049 577 1971 c 1,5,6
 606 1953 606 1953 619 1946 c 128,-1,7
 632 1939 632 1939 622 1919 c 2,8,-1
 602 1879 l 2,9,10
 594 1861 594 1861 536 1895 c 1,11,12
 444 1776 444 1776 369 1735 c 0,13,14
 335 1717 335 1717 325 1731 c 128,-1,15
 315 1745 315 1745 357 1775 c 0,16,17
 437 1832 437 1832 501 1917 c 1,18,19
 400 1966 400 1966 437 2044 c 0,20,21
 482 2140 482 2140 551 2159 c 0,0,1
540 2049 m 128,-1,23
 528 2071 528 2071 498 2057.5 c 128,-1,24
 468 2044 468 2044 476 2035 c 0,25,26
 492 2016 492 2016 540 1990 c 1,27,22
 552 2027 552 2027 540 2049 c 128,-1,23
EndSplineSet
EndChar

StartChar: uni064B
Encoding: 1611 1611 520
Width: 0
VWidth: 0
GlyphClass: 4
Flags: W
AnchorPoint: "TashkilAboveDot" 499 1640 mark 0
AnchorPoint: "TashkilAbove" 499 1640 mark 0
LayerCount: 2
Fore
SplineSet
541 1966 m 128,-1,1
 710 2075 710 2075 737 2093 c 0,2,3
 809 2142 809 2142 794 2071 c 2,4,-1
 777 1991 l 2,5,6
 766 1938 766 1938 726 1914 c 0,7,8
 619 1851 619 1851 463.5 1754 c 128,-1,9
 308 1657 308 1657 278 1639 c 128,-1,10
 248 1621 248 1621 235 1626 c 0,11,12
 218 1631 218 1631 223 1653 c 2,13,-1
 241 1732 l 2,14,15
 248 1764 248 1764 283 1791 c 0,16,0
 372 1857 372 1857 541 1966 c 128,-1,1
527.5 2205.5 m 128,-1,18
 699 2310 699 2310 727 2328 c 0,19,20
 802 2375 802 2375 782 2299 c 2,21,-1
 764 2231 l 2,22,23
 750 2177 750 2177 711 2155 c 0,24,25
 603 2095 603 2095 445 2002 c 0,26,27
 264 1895 264 1895 257 1892 c 0,28,29
 186 1854 186 1854 203 1916 c 2,30,-1
 220 1977 l 2,31,32
 230 2012 230 2012 266 2037 c 0,33,17
 356 2101 356 2101 527.5 2205.5 c 128,-1,18
EndSplineSet
EndChar

StartChar: uni064C
Encoding: 1612 1612 521
Width: 0
GlyphClass: 4
Flags: W
AnchorPoint: "TashkilTashkilAbove" 0 950 mark 0
AnchorPoint: "TashkilAboveDot" 0 950 mark 0
AnchorPoint: "TashkilAbove" 0 950 mark 0
LayerCount: 2
Fore
SplineSet
-76 1028 m 24,0,1
 -79 1018 -79 1018 -92 995 c 257,2,3
 -168 983 -168 983 -171 977 c 1,4,5
 -81 1137 -81 1137 -161 1154 c 0,6,7
 -182 1158 -182 1158 -203 1088 c 0,8,9
 -207 1075 -207 1075 -219 1076 c 25,10,11
 -230 1078 -230 1078 -232 1111 c 0,12,13
 -234 1144 -234 1144 -214 1204 c 0,14,15
 -194 1264 -194 1264 -149 1264 c 0,16,17
 -80 1264 -80 1264 -62 1184 c 0,18,19
 -47 1121 -47 1121 -76 1028 c 24,0,1
EndSplineSet
Refer: 524 1615 N 0.999005 -0.0445984 0.0445984 0.999005 -20 2 2
EndChar

StartChar: uni064D
Encoding: 1613 1613 522
Width: 0
VWidth: 0
GlyphClass: 4
Flags: W
AnchorPoint: "TashkilBelow" 499 -670 mark 0
AnchorPoint: "TashkilBelowDot" 499 -670 mark 0
LayerCount: 2
Fore
SplineSet
541 -1054 m 128,-1,1
 710 -945 710 -945 737 -927 c 0,2,3
 809 -878 809 -878 794 -949 c 2,4,-1
 777 -1029 l 2,5,6
 766 -1082 766 -1082 726 -1106 c 0,7,8
 619 -1169 619 -1169 463.5 -1266 c 128,-1,9
 308 -1363 308 -1363 278 -1381 c 128,-1,10
 248 -1399 248 -1399 235 -1394 c 0,11,12
 218 -1389 218 -1389 223 -1367 c 2,13,-1
 241 -1288 l 2,14,15
 248 -1256 248 -1256 283 -1229 c 0,16,0
 372 -1163 372 -1163 541 -1054 c 128,-1,1
527.5 -814.5 m 128,-1,18
 699 -710 699 -710 727 -692 c 0,19,20
 802 -645 802 -645 782 -721 c 2,21,-1
 764 -789 l 2,22,23
 750 -843 750 -843 711 -865 c 0,24,25
 603 -925 603 -925 445 -1018 c 0,26,27
 264 -1125 264 -1125 257 -1128 c 0,28,29
 186 -1166 186 -1166 203 -1104 c 2,30,-1
 220 -1043 l 2,31,32
 230 -1008 230 -1008 266 -983 c 0,33,17
 356 -919 356 -919 527.5 -814.5 c 128,-1,18
EndSplineSet
EndChar

StartChar: uni064E
Encoding: 1614 1614 523
Width: 0
GlyphClass: 4
Flags: W
AnchorPoint: "TashkilTashkilAbove" 807 1912 basemark 0
AnchorPoint: "TashkilTashkilAbove" 626 1638 mark 0
AnchorPoint: "TashkilAbove" 626 1638 mark 0
AnchorPoint: "TashkilAboveDot" 626 1638 mark 0
LayerCount: 2
Fore
SplineSet
777 2054 m 0,0,1
 834 2088 834 2088 813 2008 c 2,2,-1
 795 1940 l 2,3,4
 786 1906 786 1906 776 1893 c 0,5,6
 762 1874 762 1874 743 1864 c 0,7,8
 574 1770 574 1770 244 1576 c 0,9,10
 199 1551 199 1551 200 1600 c 2,11,-1
 201 1663 l 2,12,13
 201 1690 201 1690 245 1721 c 0,14,15
 301 1766 301 1766 525 1901 c 0,16,17
 726 2022 726 2022 777 2054 c 0,0,1
EndSplineSet
EndChar

StartChar: uni064F
Encoding: 1615 1615 524
Width: 0
VWidth: 0
GlyphClass: 4
Flags: W
AnchorPoint: "TashkilAboveDot" 500 1640 mark 0
AnchorPoint: "TashkilAbove" 500 1640 mark 0
LayerCount: 2
Fore
SplineSet
667 2379 m 0,0,1
 711 2385 711 2385 741 2338 c 0,2,3
 805 2239 805 2239 739 2070 c 1,4,5
 780 2046 780 2046 800 2037 c 0,6,7
 834 2023 834 2023 815 1986 c 2,8,-1
 786 1931 l 2,9,10
 772 1904 772 1904 747.5 1913 c 128,-1,11
 723 1922 723 1922 678 1947 c 1,12,13
 516 1736 516 1736 277 1601 c 0,14,15
 235 1578 235 1578 209 1610 c 0,16,17
 184 1641 184 1641 244 1681 c 24,18,19
 515 1864 515 1864 612 1985 c 1,20,21
 539 2023 539 2023 505 2057 c 0,22,23
 443 2116 443 2116 471 2183 c 0,24,25
 545 2360 545 2360 667 2379 c 0,0,1
641 2212 m 0,26,27
 583 2264 583 2264 548 2206 c 0,28,29
 538 2192 538 2192 561.5 2168 c 128,-1,30
 585 2144 585 2144 667 2104 c 1,31,32
 678 2179 678 2179 641 2212 c 0,26,27
EndSplineSet
Substitution2: "HamzaCombined-1" uni064F.small2
Substitution2: "ShaddaCombined-1" uni064F.small
EndChar

StartChar: uni0651
Encoding: 1617 1617 412
Width: 0
GlyphClass: 4
Flags: W
AnchorPoint: "TashkilAbove" 437 1640 mark 0
AnchorPoint: "TashkilAboveDot" 437 1640 mark 0
LayerCount: 2
Fore
SplineSet
596 1958 m 0,0,1
 633 1966 633 1966 623 1878 c 1,2,3
 605 1730 605 1730 544.5 1708 c 128,-1,4
 484 1686 484 1686 437 1742 c 1,5,6
 391 1678 391 1678 346 1674 c 0,7,8
 270 1668 270 1668 253 1738.5 c 128,-1,9
 236 1809 236 1809 282 1913 c 0,10,11
 294 1940 294 1940 308.5 1928 c 128,-1,12
 323 1916 323 1916 318 1890 c 0,13,14
 303 1812 303 1812 360 1811 c 0,15,16
 409 1810 409 1810 429 1899 c 0,17,18
 444 1965 444 1965 481 1942 c 0,19,20
 491 1936 491 1936 490 1903 c 0,21,22
 487 1853 487 1853 523 1851 c 0,23,24
 568 1848 568 1848 578 1925 c 0,25,26
 582 1955 582 1955 596 1958 c 0,0,1
EndSplineSet
EndChar

StartChar: uni0652
Encoding: 1618 1618 527
Width: 0
VWidth: 0
GlyphClass: 4
Flags: W
AnchorPoint: "TashkilTashkilAbove" 372 1638 mark 0
AnchorPoint: "TashkilAboveDot" 372 1638 mark 0
AnchorPoint: "TashkilAbove" 372 1638 mark 0
LayerCount: 2
Fore
SplineSet
237 1888 m 0,0,1
 317 2034 317 2034 451 1939 c 0,2,3
 549 1869 549 1869 542 1782 c 0,4,5
 533 1673 533 1673 474 1618 c 0,6,7
 436 1582 436 1582 340 1586 c 0,8,9
 172 1593 172 1593 205 1793 c 0,10,11
 214 1846 214 1846 237 1888 c 0,0,1
445 1738 m 0,12,13
 496 1750 496 1750 434 1799 c 0,14,15
 378 1843 378 1843 346 1844 c 0,16,17
 283 1845 283 1845 276 1789 c 0,18,19
 273 1760 273 1760 300 1746 c 0,20,21
 358 1719 358 1719 445 1738 c 0,12,13
EndSplineSet
EndChar

StartChar: uni0653
Encoding: 1619 1619 199
Width: 0
VWidth: 2738
GlyphClass: 4
AnchorPoint: "MarkAbove" -1 1570 mark 0
AnchorPoint: "TashkilAbove" 0 1640 mark 0
LayerCount: 2
Fore
SplineSet
401 1868 m 0,0,1
 439 1878 439 1878 450.5 1846 c 128,-1,2
 462 1814 462 1814 433 1795 c 0,3,4
 213 1650 213 1650 -282 1665 c 1,5,6
 -300 1624 -300 1624 -318.5 1603.5 c 128,-1,7
 -337 1583 -337 1583 -349 1596 c 2,8,-1
 -444 1693 l 1,9,10
 -472 1719 -472 1719 -380 1825 c 0,11,12
 -363 1844 -363 1844 -323 1837 c 0,13,14
 41 1778 41 1778 401 1868 c 0,0,1
EndSplineSet
EndChar

StartChar: uni0658
Encoding: 1624 1624 4788
Width: 0
GlyphClass: 4
Flags: W
AnchorPoint: "MarkAbove" 369 1640 mark 0
AnchorPoint: "TashkilAboveDot" 372 1640 mark 0
AnchorPoint: "TashkilAbove" 372 1640 mark 0
LayerCount: 2
Fore
SplineSet
302 2067 m 0,0,1
 316 2089 316 2089 329.5 2088 c 128,-1,2
 343 2087 343 2087 339 2061 c 0,3,4
 318 1894 318 1894 442 1879 c 0,5,6
 482 1874 482 1874 512 1918 c 256,7,8
 534 1950 534 1950 545 1944.5 c 128,-1,9
 556 1939 556 1939 547 1906 c 0,10,11
 492 1728 492 1728 375 1727 c 0,12,13
 246 1726 246 1726 236 1852 c 256,14,15
 229 1957 229 1957 302 2067 c 0,0,1
EndSplineSet
EndChar

StartChar: uni0659
Encoding: 1625 1625 4785
Width: 0
GlyphClass: 4
Flags: W
AnchorPoint: "MarkAbove" 549 1640 mark 0
AnchorPoint: "TashkilAbove" 556 1640 mark 0
AnchorPoint: "TashkilAboveDot" 556 1640 mark 0
LayerCount: 2
Fore
SplineSet
270 1730 m 0,0,1
 208 1729 208 1729 248 1767 c 2,2,-1
 300 1815 l 2,3,4
 320 1833 320 1833 362 1834 c 0,5,-1
 842 1834 l 0,6,7
 904 1835 904 1835 864 1797 c 2,8,-1
 812 1749 l 2,9,10
 792 1731 792 1731 750 1730 c 0,11,-1
 270 1730 l 0,0,1
EndSplineSet
EndChar

StartChar: uni065A
Encoding: 1626 1626 483
Width: 0
VWidth: 0
GlyphClass: 4
Flags: W
AnchorPoint: "VAbove" 0 0 mark 0
LayerCount: 2
Back
SplineSet
-135.71 364.472 m 1,0,-1
 -102.943 341.528 l 1,1,2
 -24.2193 222.247 -24.2193 222.247 23.6182 93.0371 c 1,3,-1
 105.898 246.093 l 1,4,-1
 163.256 328.008 l 1,5,-1
 196.021 305.064 l 1,6,7
 136.193 189.929 136.193 189.929 45.0615 29.4863 c 1,8,-1
 -12.2959 -52.4287 l 1,9,-1
 -45.0615 -29.4863 l 1,10,11
 -95.0098 133.981 -95.0098 133.981 -193.067 282.557 c 1,12,-1
 -135.71 364.472 l 1,0,-1
-216 406 m 0,0,1
 -66 216 -66 216 0 0 c 17,2,3
 142 250 142 250 208 390 c 0,4,-1
EndSplineSet
Fore
SplineSet
-143 357 m 2,0,1
 -137 366 -137 366 -128 366 c 0,2,3
 -118 366 -118 366 -106 352 c 0,4,5
 -18 245 -18 245 24 93 c 1,6,7
 102 224 102 224 130 299 c 0,8,9
 143 333 143 333 168 325 c 0,10,11
 187 319 187 319 187 301 c 0,12,13
 187 291 187 291 181 277 c 8,14,15
 115 113 115 113 -2 -31 c 0,16,17
 -10 -41 -10 -41 -18 -41 c 0,18,19
 -23 -41 -23 -41 -27 -38 c 2,20,-1
 -46 -24 l 0,21,22
 -81 97 -81 97 -181 263 c 0,23,24
 -188 272 -188 272 -188 282 c 0,25,26
 -188 290 -188 290 -181 301 c 2,27,-1
 -143 357 l 2,0,1
EndSplineSet
EndChar

StartChar: uni065B
Encoding: 1627 1627 252
Width: 0
GlyphClass: 4
Flags: W
AnchorPoint: "MarkAbove" 0 840 mark 0
AnchorPoint: "TashkilTashkilAbove" 0 1500 basemark 0
AnchorPoint: "TashkilAboveDot" 0 950 mark 0
AnchorPoint: "VAbove" 0 950 mark 0
LayerCount: 2
Fore
SplineSet
158 937 m 2,0,1
 190 997 l 2,2,3
 196 1009 196 1009 195 1017 c 0,4,5
 194 1027 194 1027 186 1035 c 0,6,7
 69 1189 69 1189 21 1306 c 0,8,-1
 1 1318 l 2,9,10
 -3 1321 -3 1321 -8 1320 c 0,11,12
 -16 1319 -16 1319 -23 1308 c 0,13,14
 -124 1152 -124 1152 -172 982 c 16,15,16
 -176 967 -176 967 -176 958 c 0,17,18
 -174 940 -174 940 -154 936 c 0,19,20
 -128 931 -128 931 -119 966 c 0,21,22
 -99 1044 -99 1044 -36 1182 c 1,23,24
 22 1035 22 1035 121 938 c 0,25,26
 134 925 134 925 144 927 c 0,27,28
 153 927 153 927 158 937 c 2,0,1
EndSplineSet
EndChar

StartChar: uni065E
Encoding: 1630 1630 4738
Width: 0
GlyphClass: 4
Flags: W
AnchorPoint: "MarkAbove" 549 1640 mark 0
AnchorPoint: "TashkilAbove" 556 1640 mark 0
AnchorPoint: "TashkilAboveDot" 556 1640 mark 0
LayerCount: 2
Fore
SplineSet
313 2082 m 2
 314 2085 314 2085 317 2085 c 0
 346 2085 346 2085 394 2041 c 0
 398 2037 398 2037 396 2032 c 2
 347 1955 l 2
 344 1950 344 1950 337 1956 c 0
 330 1962 330 1962 296 1982 c 0
 262 2002 262 2002 262 2004 c 0
 262 2006 262 2006 263 2007 c 2
 313 2082 l 2
677 1867 m 2
 680 1870 680 1870 682 1870 c 0
 684 1870 684 1870 708 1862 c 0
 732 1854 732 1854 746 1838 c 0
 762 1820 762 1820 760 1817 c 2
 711 1740 l 2
 710 1738 710 1738 708 1738 c 0
 706 1738 706 1738 686 1754 c 0
 666 1770 666 1770 646 1778 c 0
 626 1786 626 1786 626 1789 c 0
 626 1791 626 1791 627 1792 c 2
 677 1867 l 2
EndSplineSet
Refer: 242 1614 N 1 0 0 1 0 0 2
EndChar

StartChar: uni065F
Encoding: 1631 1631 564
Width: 0
VWidth: 0
Flags: W
AnchorPoint: "TashkilBelowDot" 0 -1014 basemark 0
AnchorPoint: "HamzaBelow" 0 -500 mark 0
LayerCount: 2
Back
SplineSet
-178 -966 m 0,0,1
 -209.698 -983.679 -209.698 -983.679 -320.167 -937.425 c 0,2,3
 -371.366 -916.707 -371.366 -916.707 -416.167 -948.162 c 0,4,5
 -443.896 -968.104 -443.896 -968.104 -486.167 -1030 c 0,6,7
151 -900 m 0,0,1
 40 -922 40 -922 -6 -936.5 c 128,-1,2
 -52 -951 -52 -951 -179 -1007 c 0,3,4
 -206 -1018 -206 -1018 -218 -1000 c 0,5,6
 -243 -963 -243 -963 -138 -898 c 1,7,8
 -214 -860 -214 -860 -223 -812 c 0,9,10
 -239 -729 -239 -729 -154 -611 c 1,11,12
 -68 -494 -68 -494 29 -502 c 0,13,14
 91 -507 91 -507 84.5 -571.5 c 128,-1,15
 78 -636 78 -636 48 -678 c 128,-1,16
 18 -720 18 -720 -3 -687 c 128,-1,17
 -24 -654 -24 -654 -64.5 -650 c 128,-1,18
 -105 -646 -105 -646 -128 -673 c 128,-1,19
 -151 -700 -151 -700 -124 -726 c 0,20,21
 -56 -790 -56 -790 75 -794 c 0,22,23
 96 -794 96 -794 138 -784 c 128,-1,24
 180 -774 180 -774 196.5 -774.5 c 128,-1,25
 213 -775 213 -775 220.5 -787.5 c 128,-1,26
 228 -800 228 -800 223 -811 c 0,27,28
 184 -893 184 -893 151 -900 c 0,0,1
EndSplineSet
Fore
SplineSet
-173 -922 m 128,-1,1
 -195 -932 -195 -932 -304 -889 c 0,2,3
 -353 -869 -353 -869 -400 -901 c 0,4,5
 -450.849 -935.621 -450.849 -935.621 -522 -1058 c 0,6,7
 -526 -1067 -526 -1067 -517.5 -1076.5 c 128,-1,8
 -509 -1086 -509 -1086 -503 -1078 c 1,9,10
 -461 -1016 -461 -1016 -424.5 -990.5 c 128,-1,11
 -388 -965 -388 -965 -337 -986 c 0,12,13
 -231 -1029 -231 -1029 -179 -1007 c 0,14,15
 -5 -933 -5 -933 151 -900 c 0,16,17
 186 -893 186 -893 223 -811 c 0,18,19
 228 -800 228 -800 220.5 -787.5 c 128,-1,20
 213 -775 213 -775 196.5 -774.5 c 128,-1,21
 180 -774 180 -774 138 -784 c 128,-1,22
 96 -794 96 -794 75 -794 c 0,23,24
 -56 -790 -56 -790 -124 -726 c 0,25,26
 -151 -700 -151 -700 -128 -673 c 128,-1,27
 -105 -646 -105 -646 -64.5 -650 c 128,-1,28
 -24 -654 -24 -654 -3 -687 c 128,-1,29
 18 -720 18 -720 48 -678 c 128,-1,30
 78 -636 78 -636 84.5 -571.5 c 128,-1,31
 91 -507 91 -507 29 -502 c 0,32,33
 -68 -494 -68 -494 -154 -611 c 1,34,35
 -239 -729 -239 -729 -223 -812 c 0,36,37
 -214 -860 -214 -860 -138 -898 c 1,38,0
 -151 -912 -151 -912 -173 -922 c 128,-1,1
EndSplineSet
EndChar

StartChar: uni0660
Encoding: 1632 1632 580
Width: 640
VWidth: 0
Flags: W
LayerCount: 2
Fore
SplineSet
234 489 m 2,0,1
 249 532 249 532 296 502 c 2,2,-1
 465 393 l 2,3,4
 502 369 502 369 486 323 c 2,5,6
 421 121 l 2,7,8
 404 69 404 69 351 101 c 2,9,-1
 165 211 l 2,10,11
 140 226 140 226 156 271 c 2,12,-1
 234 489 l 2,0,1
EndSplineSet
EndChar

StartChar: uni0661
Encoding: 1633 1633 575
Width: 698
VWidth: 0
Flags: W
LayerCount: 2
Fore
SplineSet
261 819 m 2,0,1
 285 890 285 890 329 788 c 1,2,3
 430 532 430 532 464 296 c 0,4,5
 510 -34 510 -34 450 -211 c 0,6,7
 441 -238 441 -238 418.5 -234 c 128,-1,8
 396 -230 396 -230 396 -199 c 0,9,10
 401 238 401 238 219 560 c 0,11,12
 190 611 190 611 203 648 c 2,13,-1
 261 819 l 2,0,1
EndSplineSet
EndChar

StartChar: uni0662
Encoding: 1634 1634 576
Width: 821
VWidth: 0
Flags: W
LayerCount: 2
Fore
SplineSet
144 811 m 2,0,1
 156 861 156 861 187 826 c 1,2,-1
 187 826 l 1,3,4
 188 826 188 826 191 822 c 0,5,6
 206 805 206 805 211 795 c 0,7,8
 296 634 296 634 435 636 c 0,9,10
 640 637 640 637 660 807 c 0,11,12
 666 838 666 838 690 838 c 0,13,14
 712 838 712 838 719.5 817 c 128,-1,15
 727 796 727 796 705.5 686.5 c 128,-1,16
 684 577 684 577 641 515 c 0,17,18
 556 391 556 391 366 423 c 1,19,20
 489 23 489 23 411 -211 c 0,21,22
 405 -229 405 -229 392 -234.5 c 128,-1,23
 379 -240 379 -240 368 -231 c 128,-1,24
 357 -222 357 -222 356 -203 c 0,25,26
 328 247 328 247 124 556 c 0,27,28
 94 602 94 602 102 637 c 2,29,-1
 144 811 l 2,0,1
EndSplineSet
EndChar

StartChar: uni0663
Encoding: 1635 1635 577
Width: 968
VWidth: 0
Flags: W
LayerCount: 2
Fore
SplineSet
815 825 m 0,0,1
 817 856 817 856 843.5 856 c 128,-1,2
 870 856 870 856 868 805 c 0,3,4
 864 701 864 701 830 574 c 0,5,6
 785 407 785 407 624 458 c 0,7,8
 574 474 574 474 537 502 c 1,9,10
 456 414 456 414 356 421 c 1,11,12
 458 10 458 10 412 -213 c 0,13,14
 408 -230 408 -230 394 -236 c 128,-1,15
 380 -242 380 -242 369 -233 c 128,-1,16
 358 -224 358 -224 357 -204 c 0,17,18
 331 218 331 218 127 534 c 0,19,20
 93 585 93 585 101 618 c 2,21,-1
 143 792 l 2,22,23
 158 855 158 855 202 786 c 24,24,25
 274 673 274 673 323 644.5 c 128,-1,26
 372 616 372 616 444 623 c 0,27,28
 543 632 543 632 581 809 c 0,29,30
 588 842 588 842 607.5 840.5 c 128,-1,31
 627 839 627 839 632.5 817.5 c 128,-1,32
 638 796 638 796 625.5 731.5 c 128,-1,33
 613 667 613 667 706 641 c 1,34,35
 801 616 801 616 815 825 c 0,0,1
EndSplineSet
EndChar

StartChar: uni0664
Encoding: 1636 1636 578
Width: 899
VWidth: 0
Flags: W
LayerCount: 2
Fore
SplineSet
418 996 m 0,0,1
 431 1010 431 1010 450.5 1010.5 c 128,-1,2
 470 1011 470 1011 484 996 c 0,3,4
 496 982 496 982 493 967 c 2,5,-1
 461 808 l 2,6,7
 457 791 457 791 432 781 c 0,8,9
 328 735 328 735 294 666 c 0,10,11
 276 629 276 629 318 608 c 0,12,13
 454 541 454 541 599 530 c 0,14,15
 646 526 646 526 625 457 c 2,16,-1
 572 276 l 2,17,18
 561 238 561 238 518 254 c 1,19,20
 397 159 397 159 318 58 c 24,21,22
 280 10 280 10 329 -26 c 0,23,24
 499 -145 499 -145 709 -165 c 0,25,26
 762 -170 762 -170 746 -224 c 2,27,-1
 694 -401 l 2,28,29
 684 -433 684 -433 648 -430 c 0,30,31
 436 -410 436 -410 210 -260 c 0,32,33
 166 -231 166 -231 186 -155 c 2,34,-1
 236 36 l 2,35,36
 267 154 267 154 409 288 c 1,37,38
 307 322 307 322 182 398 c 0,39,40
 127 432 127 432 166 536 c 2,41,-1
 226 697 l 2,42,43
 282 848 282 848 418 996 c 0,0,1
EndSplineSet
EndChar

StartChar: uni0665
Encoding: 1637 1637 579
Width: 778
VWidth: 0
Flags: W
LayerCount: 2
Fore
SplineSet
292 604 m 0,0,1
 343 662 343 662 404 647 c 0,2,3
 517 619 517 619 599 533 c 0,4,5
 712 413 712 413 663 172 c 0,6,7
 639 52 639 52 555.5 -11.5 c 128,-1,8
 472 -75 472 -75 343 -75 c 128,-1,9
 214 -75 214 -75 157 -22.5 c 128,-1,10
 100 30 100 30 100 150 c 0,11,12
 99 386 99 386 292 604 c 0,0,1
556 297 m 0,13,14
 432 438 432 438 302 427 c 0,15,16
 223 422 223 422 209 303 c 0,17,18
 199 226 199 226 235 185 c 0,19,20
 291 120 291 120 419 150 c 0,21,22
 512 171 512 171 565 221 c 0,23,24
 598 249 598 249 556 297 c 0,13,14
EndSplineSet
EndChar

StartChar: uni0666
Encoding: 1638 1638 582
Width: 1051
VWidth: 0
Flags: W
LayerCount: 2
Fore
SplineSet
183 836 m 2,0,1
 198 919 198 919 258 833 c 0,2,3
 384 652 384 652 731 760 c 0,4,5
 784 776 784 776 780 726 c 0,6,7
 738 326 738 326 879 72 c 0,8,9
 909 18 909 18 899 -34 c 2,10,-1
 864 -230 l 2,11,12
 845 -339 845 -339 800 -241 c 0,13,14
 645 100 645 100 662 490 c 0,15,16
 663 518 663 518 651 515 c 0,17,18
 326 431 326 431 173 603 c 0,19,20
 144 635 144 635 152 675 c 2,21,-1
 183 836 l 2,0,1
EndSplineSet
EndChar

StartChar: uni0667
Encoding: 1639 1639 582
Width: 1181
VWidth: 0
Flags: W
LayerCount: 2
Fore
SplineSet
627 -168 m 0,0,1
 622 -190 622 -190 607.5 -197 c 128,-1,2
 593 -204 593 -204 581 -195 c 128,-1,3
 569 -186 569 -186 568 -166 c 0,4,5
 561 -28 561 -28 445.5 249.5 c 128,-1,6
 330 527 330 527 156 819 c 0,7,8
 146 836 146 836 152 868 c 2,9,-1
 178 1035 l 2,10,11
 194 1142 194 1142 227 1082 c 24,12,13
 441 702 441 702 609 215 c 0,14,15
 632 150 632 150 645 207 c 0,16,17
 728 579 728 579 971 1037 c 0,18,19
 985 1067 985 1067 1001 1068.5 c 128,-1,20
 1017 1070 1017 1070 1019 1043 c 2,21,-1
 1031 845 l 2,22,23
 1032 821 1032 821 1013 786 c 0,24,25
 874 553 874 553 783.5 329.5 c 128,-1,26
 693 106 693 106 627 -168 c 0,0,1
EndSplineSet
EndChar

StartChar: uni0668
Encoding: 1640 1640 583
Width: 1181
VWidth: 0
Flags: W
LayerCount: 2
Fore
SplineSet
554 1056 m 0,0,1
 559 1078 559 1078 573.5 1085 c 128,-1,2
 588 1092 588 1092 600 1083 c 128,-1,3
 612 1074 612 1074 613 1054 c 0,4,5
 620 916 620 916 735.5 638.5 c 128,-1,6
 851 361 851 361 1025 69 c 0,7,8
 1035 52 1035 52 1029 20 c 2,9,-1
 1003 -147 l 2,10,11
 987 -254 987 -254 954 -194 c 24,12,13
 740 186 740 186 572 673 c 0,14,15
 549 738 549 738 536 681 c 0,16,17
 453 309 453 309 210 -149 c 0,18,19
 196 -179 196 -179 180 -180.5 c 128,-1,20
 164 -182 164 -182 162 -155 c 2,21,-1
 150 43 l 2,22,23
 149 67 149 67 168 102 c 0,24,25
 307 335 307 335 397.5 558.5 c 128,-1,26
 488 782 488 782 554 1056 c 0,0,1
EndSplineSet
EndChar

StartChar: uni0669
Encoding: 1641 1641 585
Width: 790
VWidth: 0
Flags: W
LayerCount: 2
Fore
SplineSet
114 508 m 0,0,1
 182 697 182 697 293.5 809.5 c 128,-1,2
 405 922 405 922 494 793 c 0,3,4
 572 680 572 680 582 412 c 128,-1,5
 592 144 592 144 671 -5 c 0,6,7
 695 -50 695 -50 689 -89 c 2,8,9
 667 -236 l 2,10,11
 657 -303 657 -303 651 -309 c 0,12,13
 627 -338 627 -338 607 -302 c 0,14,15
 509 -126 509 -126 483 127 c 0,16,17
 476 207 476 207 473.5 210 c 128,-1,18
 471 213 471 213 409 213 c 0,19,20
 116 211 116 211 101 407 c 0,21,22
 97 458 97 458 114 508 c 0,0,1
419 495 m 0,23,24
 404 554 404 554 350 580 c 128,-1,25
 296 606 296 606 255 570.5 c 128,-1,26
 214 535 214 535 265.5 499.5 c 128,-1,27
 317 464 317 464 399 472 c 0,28,29
 424 474 424 474 419 495 c 0,23,24
EndSplineSet
EndChar

StartChar: uni066B
Encoding: 1643 1643 597
Width: 614
VWidth: 0
Flags: W
LayerCount: 2
Fore
SplineSet
297 300 m 18,0,1
 312 375 312 375 405 322 c 0,2,3
 539 246 539 246 511 60 c 0,4,5
 479 -156 479 -156 369 -297 c 128,-1,6
 259 -438 259 -438 129 -444 c 0,7,8
 3 -450 3 -450 90 -387 c 0,9,10
 217 -295 217 -295 312 -176 c 0,11,12
 399 -70 399 -70 441 72 c 0,13,14
 449 100 449 100 406 109 c 10,15,-1
 310 129 l 18,16,17
 265 138 265 138 274 185 c 10,18,-1
 297 300 l 18,0,1
EndSplineSet
EndChar

StartChar: uni066C
Encoding: 1644 1644 348
Width: 614
Flags: W
LayerCount: 2
Fore
SplineSet
317 438 m 18,0,1
 302 363 302 363 209 416 c 0,2,3
 75 492 75 492 103 678 c 0,4,5
 135 894 135 894 245 1035 c 128,-1,6
 355 1176 355 1176 485 1182 c 0,7,8
 611 1188 611 1188 524 1125 c 0,9,10
 404 1038 404 1038 302 914 c 0,11,12
 213 805 213 805 173 666 c 0,13,14
 165 638 165 638 208 629 c 10,15,-1
 304 609 l 18,16,17
 349 600 349 600 340 553 c 10,18,-1
 317 438 l 18,0,1
EndSplineSet
EndChar

StartChar: uni066D
Encoding: 1645 1645 674
Width: 1116
Flags: W
LayerCount: 2
Fore
SplineSet
87 758.6 m 1,0,-1
 446.4 758.6 l 1,1,-1
 558 1100 l 1,2,-1
 670.2 758.6 l 1,3,-1
 1029 758.6 l 1,4,-1
 738.6 546.8 l 1,5,-1
 850.2 206 l 1,6,-1
 558 417.2 l 1,7,-1
 266.4 206 l 1,8,-1
 377.4 546.8 l 1,9,-1
 87 758.6 l 1,0,-1
EndSplineSet
EndChar

StartChar: uni0670
Encoding: 1648 1648 567
Width: 0
VWidth: 0
GlyphClass: 4
Flags: W
AnchorPoint: "AlefAbove" 395 1640 mark 0
LayerCount: 2
Fore
SplineSet
241 2379 m 2,0,1
 251 2411 251 2411 279 2377 c 0,2,3
 474 2162 474 2162 412 1829 c 0,4,5
 408 1809 408 1809 392 1807 c 0,6,7
 373 1804 373 1804 371 1828 c 0,8,9
 344 2041 344 2041 212 2203 c 0,10,11
 195 2223 195 2223 202 2248 c 2,12,-1
 241 2379 l 2,0,1
EndSplineSet
EndChar

StartChar: uni06D4
Encoding: 1748 1748 4664
Width: 1007
Flags: W
LayerCount: 2
Fore
SplineSet
836 185 m 0,0,1
 872 184 872 184 848 158 c 10,2,-1
 729 29 l 18,3,4
 702 0 702 0 648 0 c 0,5,-1
 172 0 l 0,6,7
 136 1 136 1 160 27 c 10,8,-1
 279 156 l 18,9,10
 306 185 306 185 360 185 c 0,11,-1
 836 185 l 0,0,1
EndSplineSet
EndChar

StartChar: uni06D6
Encoding: 1750 1750 4683
Width: 0
VWidth: 0
GlyphClass: 4
Flags: W
AnchorPoint: "MarkAbove" 499 2600 mark 0
LayerCount: 2
Fore
SplineSet
212 3127 m 0,0,1
 210 3185 210 3185 203 3294 c 0,2,3
 201 3322 201 3322 195 3443 c 0,4,5
 193 3482 193 3482 201 3494 c 2,6,-1
 225 3530 l 2,7,8
 263 3587 263 3587 266 3521 c 0,9,10
 282 3164 282 3164 301 3120 c 0,11,12
 328 3057 328 3057 378 3062 c 0,13,14
 425 3067 425 3067 486 3136 c 0,15,16
 506 3159 506 3159 520 3150 c 24,17,18
 589 3107 589 3107 611 3100 c 1,19,20
 617 3103 617 3103 689 3170 c 0,21,22
 813 3281 813 3281 905 3289 c 0,23,24
 960 3294 960 3294 988 3250 c 0,25,26
 1016 3205 1016 3205 979 3120 c 0,27,28
 921 2994 921 2994 800 2975 c 0,29,30
 647 2955 647 2955 489 3038 c 1,31,32
 447 2988 447 2988 435 2978 c 0,33,34
 367 2917 367 2917 302 2973 c 1,35,36
 258 3013 258 3013 242 3092 c 1,37,38
 227 3002 227 3002 187 2939 c 0,39,40
 148 2877 148 2877 60 2823 c 1,41,42
 155 2808 155 2808 304 2804 c 0,43,44
 507 2798 507 2798 702 2814 c 0,45,46
 751 2821 751 2821 982 2841 c 0,47,48
 1016 2844 1016 2844 997 2815 c 2,49,-1
 951 2746 l 2,50,51
 940 2729 940 2729 925 2726 c 0,52,53
 806 2708 806 2708 491 2697 c 0,54,55
 203 2687 203 2687 56 2709 c 0,56,57
 10 2716 10 2716 2 2752 c 1,58,59
 -7 2808 -7 2808 25 2861 c 0,60,61
 60 2919 60 2919 99 2947 c 0,62,63
 215 3029 215 3029 212 3127 c 0,0,1
903 3162 m 0,64,65
 828 3242 828 3242 648 3092 c 1,66,67
 766 3066 766 3066 913 3090 c 1,68,69
 924 3139 924 3139 903 3162 c 0,64,65
EndSplineSet
EndChar

StartChar: uni06D7
Encoding: 1751 1751 4686
Width: 0
VWidth: 0
GlyphClass: 4
Flags: W
AnchorPoint: "MarkAbove" 499 2600 mark 0
LayerCount: 2
Fore
SplineSet
419 3058 m 0,0,1
 530 3059 530 3059 612 3142 c 1,2,3
 610 3175 610 3175 601 3189 c 0,4,5
 587 3210 587 3210 580 3194 c 0,6,7
 552 3127 552 3127 495 3125 c 0,8,9
 404 3122 404 3122 400 3234 c 0,10,11
 398 3293 398 3293 443 3367 c 0,12,13
 515 3484 515 3484 603 3374 c 0,14,15
 667 3294 667 3294 664 3182 c 0,16,17
 662 3119 662 3119 627 3063 c 0,18,19
 554 2945 554 2945 419 2946 c 0,20,21
 272 2946 272 2946 242 3092 c 1,22,23
 227 3002 227 3002 187 2939 c 0,24,25
 148 2877 148 2877 60 2823 c 1,26,27
 155 2808 155 2808 304 2804 c 0,28,29
 541 2798 541 2798 702 2814 c 0,30,31
 868 2831 868 2831 982 2841 c 0,32,33
 1016 2844 1016 2844 997 2815 c 2,34,-1
 951 2746 l 2,35,36
 940 2729 940 2729 925 2726 c 0,37,38
 806 2708 806 2708 491 2697 c 0,39,40
 203 2687 203 2687 56 2709 c 0,41,42
 10 2716 10 2716 2 2752 c 1,43,44
 -7 2808 -7 2808 25 2861 c 0,45,46
 60 2919 60 2919 99 2947 c 0,47,48
 215 3029 215 3029 212 3127 c 0,49,50
 210 3185 210 3185 203 3294 c 0,51,52
 201 3322 201 3322 195 3443 c 0,53,54
 193 3482 193 3482 201 3494 c 2,55,-1
 225 3530 l 2,56,57
 263 3587 263 3587 266 3521 c 0,58,59
 282 3164 282 3164 301 3120 c 0,60,61
 329 3058 329 3058 419 3058 c 0,0,1
439 3685 m 2,62,63
 442 3690 442 3690 449 3687 c 0,64,65
 489 3674 489 3674 520 3649 c 1,66,-1
 562 3712 l 2,67,68
 566 3717 566 3717 572 3714 c 0,69,70
 590 3708 590 3708 656 3665 c 0,71,72
 662 3661 662 3661 658 3654 c 2,73,-1
 601 3565 l 2,74,75
 597 3559 597 3559 589 3567 c 0,76,77
 583 3573 583 3573 523 3609 c 1,78,-1
 478 3538 l 2,79,80
 476 3535 476 3535 466 3540 c 0,81,82
 441 3552 441 3552 383 3592 c 0,83,84
 379 3595 379 3595 381 3599 c 2,85,-1
 439 3685 l 2,62,63
EndSplineSet
EndChar

StartChar: uni06D8
Encoding: 1752 1752 4789
Width: 0
Flags: W
LayerCount: 2
Fore
SplineSet
411 2921 m 1,0,1
 477 2897 477 2897 577 2893 c 0,2,3
 593 2892 593 2892 599 2905 c 2,4,-1
 634 2982 l 17,5,6
 634 3202 634 3202 514 3206 c 0,7,8
 406 3209 406 3209 363 2960 c 1,9,10
 268 2819 268 2819 74 2723 c 0,11,12
 31 2702 31 2702 43 2675 c 0,13,14
 50 2661 50 2661 94 2671 c 0,15,16
 297 2717 297 2717 411 2921 c 1,0,1
EndSplineSet
EndChar

StartChar: uni06D9
Encoding: 1753 1753 4786
Width: 0
VWidth: 3729
GlyphClass: 4
Flags: W
LayerCount: 2
Fore
SplineSet
467 2797 m 1,0,1
 545 2969 545 2969 521 3292 c 0,2,3
 518 3338 518 3338 525 3350 c 0,4,5
 550 3395 550 3395 554.5 3402.5 c 128,-1,6
 559 3410 559 3410 566 3408.5 c 128,-1,7
 573 3407 573 3407 575 3400 c 0,8,9
 593 3331 593 3331 610.5 3311.5 c 128,-1,10
 628 3292 628 3292 612 3276 c 2,11,-1
 579 3242 l 1,12,13
 589 2949 589 2949 488 2749 c 1,14,15
 522 2663 522 2663 526 2595 c 1,16,17
 530 2528 530 2528 491 2518 c 0,18,19
 381 2490 381 2490 250 2511 c 0,20,21
 236 2513 236 2513 233 2519 c 1,22,23
 212 2570 212 2570 239 2606 c 0,24,25
 248 2618 248 2618 255 2616 c 0,26,27
 278 2614 278 2614 299 2612 c 0,28,29
 300 2613 l 0,30,31
 384 2660 384 2660 436 2740 c 1,32,33
 317 2991 317 2991 142 3158 c 1,34,-1
 125 3127 l 1,35,36
 109 3117 109 3117 96 3132 c 1,37,-1
 14 3220 l 1,38,39
 -3 3240 -3 3240 1 3266 c 2,40,-1
 16 3370 l 2,41,42
 18 3386 18 3386 27 3386 c 0,43,44
 51 3388 51 3388 160 3257 c 0,45,46
 373 3002 373 3002 467 2797 c 1,0,1
456 2694 m 1,47,48
 425 2648 425 2648 386 2609 c 0,49,50
 385 2608 l 1,51,52
 448 2607 448 2607 475 2618 c 1,53,54
 472 2652 472 2652 456 2694 c 1,47,48
EndSplineSet
EndChar

StartChar: uni06DA
Encoding: 1754 1754 4785
Width: 0
VWidth: 4287
GlyphClass: 4
Flags: W
LayerCount: 2
Fore
SplineSet
369 2988 m 2,0,1
 372 2993 372 2993 379 2990 c 0,2,3
 426 2974 426 2974 462 2941 c 0,4,5
 467 2936 467 2936 464 2931 c 2,6,-1
 407 2841 l 2,7,8
 404 2836 404 2836 395.5 2843 c 128,-1,9
 387 2850 387 2850 313 2895 c 0,10,11
 308 2898 308 2898 311 2902 c 2,12,-1
 369 2988 l 2,0,1
674 3371 m 2,13,-1
 646 3307 l 2,14,15
 641 3297 641 3297 633 3297 c 0,16,17
 350 3259 350 3259 236 3185 c 0,18,19
 13 3039 13 3039 62 2834 c 0,20,21
 89 2720 89 2720 233 2656 c 0,22,23
 311 2622 311 2622 480.5 2611.5 c 128,-1,24
 650 2601 650 2601 795 2614 c 0,25,26
 813 2616 813 2616 818.5 2609.5 c 128,-1,27
 824 2603 824 2603 818.5 2595 c 128,-1,28
 813 2587 813 2587 804 2584 c 0,29,30
 732 2563 732 2563 691 2538 c 0,31,32
 630 2502 630 2502 616 2501 c 0,33,34
 268 2470 268 2470 114 2582.5 c 128,-1,35
 -40 2695 -40 2695 14.5 2935.5 c 128,-1,36
 69 3176 69 3176 301 3287 c 1,37,38
 141 3326 141 3326 61 3279 c 0,39,40
 54 3275 54 3275 47.5 3276.5 c 128,-1,41
 41 3278 41 3278 41 3284 c 0,42,43
 42 3312 42 3312 53 3343 c 0,44,45
 75 3405 75 3405 167 3410 c 0,46,47
 213 3412 213 3412 313 3392.5 c 152,-1,48
 413 3373 413 3373 482 3374 c 128,-1,49
 551 3375 551 3375 652 3392 c 0,50,51
 686 3398 686 3398 674 3371 c 2,13,-1
EndSplineSet
EndChar

StartChar: uni06DB
Encoding: 1755 1755 4782
Width: 0
Flags: W
LayerCount: 2
Fore
SplineSet
364 2911 m 2,0,1
 369 2917 369 2917 378 2912 c 0,2,3
 438 2878 438 2878 480 2824 c 0,4,5
 486 2816 486 2816 480 2809 c 2,6,-1
 380 2701 l 2,7,8
 374 2695 374 2695 364.5 2706.5 c 128,-1,9
 355 2718 355 2718 265 2799 c 0,10,11
 259 2804 259 2804 264 2809 c 2,12,-1
 364 2911 l 2,0,1
507 2711 m 2,13,14
 512 2716 512 2716 521 2712 c 0,15,16
 581 2678 581 2678 622 2624 c 0,17,18
 628 2616 628 2616 622 2609 c 2,19,-1
 522 2502 l 2,20,21
 517 2496 517 2496 507 2507 c 0,22,23
 506 2508 506 2508 407 2599 c 0,24,25
 402 2604 402 2604 406 2609 c 2,26,-1
 507 2711 l 2,13,14
220 2711 m 2,27,28
 226 2717 226 2717 233 2712 c 0,29,30
 293 2678 293 2678 335 2624 c 0,31,32
 341 2616 341 2616 335 2609 c 2,33,-1
 235 2502 l 2,34,35
 231 2497 231 2497 219 2507 c 0,36,37
 218 2508 218 2508 120 2599 c 0,38,39
 115 2604 115 2604 119 2609 c 2,40,-1
 220 2711 l 2,27,28
EndSplineSet
EndChar

StartChar: uni06DC
Encoding: 1756 1756 4784
Width: 0
VWidth: 3956
GlyphClass: 4
Flags: W
AnchorPoint: "SeenAbove" 510 2500 mark 0
LayerCount: 2
Fore
SplineSet
982 3203 m 2,0,1
 985 3215 985 3215 994 3215 c 128,-1,2
 1003 3215 1003 3215 1009 3205 c 0,3,4
 1025 3179 1025 3179 1025 3125 c 0,5,6
 1025 3038 1025 3038 983 2971 c 0,7,8
 972 2953 972 2953 954 2949 c 0,9,10
 899 2938 899 2938 826 2982 c 1,11,12
 773 2887 773 2887 673 2901 c 1,13,14
 667 2799 667 2799 642 2725 c 128,-1,15
 617 2651 617 2651 555 2602 c 24,16,17
 419 2496 419 2496 255 2501 c 0,18,19
 53 2506 53 2506 6 2670 c 0,20,21
 -7 2716 -7 2716 10.5 2802 c 128,-1,22
 28 2888 28 2888 82 2989 c 0,23,24
 86 2997 86 2997 93.5 2997.5 c 128,-1,25
 101 2998 101 2998 104 2992 c 128,-1,26
 107 2986 107 2986 104 2979 c 0,27,28
 30 2835 30 2835 44 2786 c 0,29,30
 87 2632 87 2632 267 2627 c 0,31,32
 513 2621 513 2621 618 2785 c 1,33,34
 624 2876 624 2876 571 2990 c 0,35,36
 565 3002 565 3002 568 3010 c 0,37,38
 593 3064 593 3064 610 3090 c 0,39,40
 615 3097 615 3097 621 3091.5 c 128,-1,41
 627 3086 627 3086 646.5 3053 c 128,-1,42
 666 3020 666 3020 676 3018 c 0,43,44
 737 3005 737 3005 798 3055 c 0,45,46
 822 3075 822 3075 843 3163 c 0,47,48
 845 3173 845 3173 852 3176 c 128,-1,49
 859 3179 859 3179 865 3175 c 0,50,51
 877 3167 877 3167 866 3107 c 1,52,53
 913 3072 913 3072 971 3078 c 1,54,55
 972 3096 972 3096 965.5 3103.5 c 128,-1,56
 959 3111 959 3111 961 3117 c 2,57,-1
 982 3203 l 2,0,1
EndSplineSet
EndChar

StartChar: uni06DD
Encoding: 1757 1757 4760
Width: 3440
VWidth: 0
Flags: W
LayerCount: 2
Back
SplineSet
1720 -778 m 1,100,101
878 1510 m 1,0,-1
 2547 1510 l 1,1,2
879 -100 m 1,5,-1
 2547 -100 l 1,6,-1
878 625 m 1,7,-1
 2547 625 l 1,8,-1
EndSplineSet
Fore
SplineSet
2416 912 m 1,0,1
 2424 895 2424 895 2416 855 c 128,-1,2
 2408 815 2408 815 2361 796 c 1,3,4
 2296 776 2296 776 2239 816 c 1,5,6
 2214 835 2214 835 2233 842 c 24,7,8
 2273 856 2273 856 2275 882 c 1,9,10
 2273 921 2273 921 2221 952 c 1,11,12
 1932 976 1932 976 1791 849 c 1,13,14
 1829 795 1829 795 1778 769 c 1,15,16
 1749 760 1749 760 1735.5 774 c 128,-1,17
 1722 788 1722 788 1720 803 c 1,18,19
 1718 788 1718 788 1704.5 774 c 128,-1,20
 1691 760 1691 760 1662 769 c 1,21,22
 1611 795 1611 795 1649 849 c 1,23,24
 1508 976 1508 976 1218 952 c 1,25,26
 1166 921 1166 921 1164 882 c 1,27,28
 1166 856 1166 856 1206 842 c 24,29,30
 1225 835 1225 835 1200 816 c 1,31,32
 1143 776 1143 776 1078 796 c 1,33,34
 1031 815 1031 815 1023 855 c 128,-1,35
 1015 895 1015 895 1023 912 c 1,36,37
 909 872 909 872 805 795 c 1,38,39
 556 607 556 607 556 264 c 128,-1,40
 556 -79 556 -79 805 -268 c 1,41,42
 909 -344 909 -344 1023 -384 c 1,43,44
 1015 -368 1015 -368 1023 -327 c 128,-1,45
 1031 -286 1031 -286 1078 -268 c 1,46,47
 1143 -249 1143 -249 1200 -289 c 1,48,49
 1223 -307 1223 -307 1196 -316 c 1,50,51
 1166 -323 1166 -323 1164 -354 c 1,52,53
 1167 -394 1167 -394 1218 -425 c 1,54,55
 1509 -447 1509 -447 1649 -321 c 1,56,57
 1611 -267 1611 -267 1662 -241 c 1,58,59
 1691 -232 1691 -232 1704.5 -246 c 128,-1,60
 1718 -260 1718 -260 1720 -275 c 1,61,62
 1722 -260 1722 -260 1735.5 -246 c 128,-1,63
 1749 -232 1749 -232 1778 -241 c 1,64,65
 1829 -267 1829 -267 1791 -321 c 1,66,67
 1931 -447 1931 -447 2222 -425 c 1,68,69
 2273 -394 2273 -394 2276 -354 c 1,70,71
 2274 -323 2274 -323 2244 -316 c 1,72,73
 2217 -307 2217 -307 2240 -289 c 1,74,75
 2297 -249 2297 -249 2362 -268 c 1,76,77
 2409 -286 2409 -286 2417 -327 c 128,-1,78
 2425 -368 2425 -368 2417 -384 c 1,79,80
 2531 -344 2531 -344 2635 -268 c 1,81,82
 2884 -79 2884 -79 2884 264 c 128,-1,83
 2884 607 2884 607 2635 795 c 1,84,85
 2531 872 2531 872 2416 912 c 1,0,1
1690 -328 m 0,86,87
 1542 -436 1542 -436 1544 -549 c 1,88,89
 1548 -649 1548 -649 1720 -778 c 1,90,91
 1892 -649 1892 -649 1896 -549 c 1,92,93
 1898 -436 1898 -436 1750 -328 c 0,94,95
 1724 -309 1724 -309 1720 -288 c 1,96,97
 1716 -309 1716 -309 1690 -328 c 0,86,87
2119 -615 m 0,98,99
 2117 -587 2117 -587 2139 -566 c 0,100,101
 2159 -547 2159 -547 2188 -546 c 0,102,103
 2211 -545 2211 -545 2237 -566 c 0,104,105
 2256 -582 2256 -582 2257 -615 c 256,106,107
 2257 -644 2257 -644 2237 -664 c 0,108,109
 2218 -683 2218 -683 2188 -684 c 0,110,111
 2159 -685 2159 -685 2139 -664 c 0,112,113
 2121 -646 2121 -646 2119 -615 c 0,98,99
1182 -615 m 0,114,115
 1180 -587 1180 -587 1202 -566 c 0,116,117
 1222 -547 1222 -547 1251 -546 c 0,118,119
 1274 -545 1274 -545 1300 -566 c 0,120,121
 1319 -582 1319 -582 1320 -615 c 256,122,123
 1320 -644 1320 -644 1300 -664 c 0,124,125
 1281 -683 1281 -683 1251 -684 c 0,126,127
 1222 -685 1222 -685 1202 -664 c 0,128,129
 1184 -646 1184 -646 1182 -615 c 0,114,115
2119 1141 m 0,130,131
 2117 1169 2117 1169 2139 1190 c 0,132,133
 2159 1209 2159 1209 2188 1210 c 0,134,135
 2211 1211 2211 1211 2237 1190 c 0,136,137
 2256 1174 2256 1174 2257 1141 c 256,138,139
 2257 1112 2257 1112 2237 1092 c 0,140,141
 2218 1073 2218 1073 2188 1072 c 0,142,143
 2159 1071 2159 1071 2139 1092 c 0,144,145
 2121 1110 2121 1110 2119 1141 c 0,130,131
1182 1141 m 0,146,147
 1180 1169 1180 1169 1202 1190 c 0,148,149
 1222 1209 1222 1209 1251 1210 c 0,150,151
 1274 1211 1274 1211 1300 1190 c 0,152,153
 1319 1174 1319 1174 1320 1141 c 256,154,155
 1320 1112 1320 1112 1300 1092 c 0,156,157
 1281 1073 1281 1073 1251 1072 c 0,158,159
 1222 1071 1222 1071 1202 1092 c 0,160,161
 1184 1110 1184 1110 1182 1141 c 0,146,147
1720 -840 m 1,162,163
 1706 -827 1706 -827 1586 -742 c 128,-1,164
 1466 -657 1466 -657 1440.5 -592 c 128,-1,165
 1415 -527 1415 -527 1443 -471 c 1,166,167
 1367 -480 1367 -480 1296 -480 c 0,168,169
 999 -477 999 -477 774 -309 c 0,170,171
 500 -104 500 -104 500 263.5 c 128,-1,172
 500 631 500 631 774 837 c 1,173,174
 1000 1004 1000 1004 1296 1007 c 0,175,176
 1366 1007 1366 1007 1443 998 c 1,177,178
 1415 1055 1415 1055 1440 1120 c 128,-1,179
 1465 1185 1465 1185 1585 1270 c 128,-1,180
 1705 1355 1705 1355 1720 1368 c 1,181,182
 1735 1355 1735 1355 1855 1270 c 128,-1,183
 1975 1185 1975 1185 2000 1120 c 128,-1,184
 2025 1055 2025 1055 1997 998 c 1,185,186
 2074 1007 2074 1007 2144 1007 c 0,187,188
 2440 1004 2440 1004 2666 837 c 1,189,190
 2940 631 2940 631 2940 263.5 c 128,-1,191
 2940 -104 2940 -104 2666 -309 c 0,192,193
 2441 -477 2441 -477 2144 -480 c 0,194,195
 2073 -480 2073 -480 1997 -471 c 1,196,197
 2025 -527 2025 -527 1999.5 -592 c 128,-1,198
 1974 -657 1974 -657 1854 -742 c 128,-1,199
 1734 -827 1734 -827 1720 -840 c 1,162,163
1720 816 m 1,200,201
 1724 837 1724 837 1750 856 c 0,202,203
 1896 965 1896 965 1896 1077 c 1,204,205
 1892 1180 1892 1180 1720 1306 c 1,206,207
 1548 1180 1548 1180 1544 1077 c 1,208,209
 1543 963 1543 963 1690 856 c 0,210,211
 1716 837 1716 837 1720 816 c 1,200,201
EndSplineSet
EndChar

StartChar: uni06DE
Encoding: 1758 1758 4771
Width: 1336
VWidth: 0
Flags: W
LayerCount: 2
Fore
SplineSet
947 644 m 2,0,1
 1018 731 1018 731 1076 673 c 0,2,3
 1135 614 1135 614 1048 543 c 2,4,-1
 751 298 l 1,5,-1
 1134 335 l 2,6,7
 1246 346 1246 346 1246 264 c 0,8,9
 1246 181 1246 181 1134 192 c 2,10,-1
 752 229 l 1,11,-1
 1048 -15 l 2,12,13
 1135 -86 1135 -86 1077 -145 c 0,14,15
 1018 -204 1018 -204 947 -116 c 2,16,-1
 702 181 l 1,17,-1
 739 -202 l 2,18,19
 750 -314 750 -314 668 -314 c 0,20,21
 585 -314 585 -314 596 -202 c 2,22,-1
 633 180 l 1,23,-1
 389 -117 l 2,24,25
 318 -204 318 -204 259 -145 c 0,26,27
 201 -87 201 -87 288 -15 c 2,28,-1
 585 229 l 1,29,-1
 202 192 l 2,30,31
 90 181 90 181 90 264 c 0,32,33
 90 346 90 346 202 335 c 2,34,-1
 585 298 l 1,35,-1
 288 543 l 2,36,37
 201 614 201 614 260 673 c 0,38,39
 318 731 318 731 389 644 c 2,40,-1
 633 348 l 1,41,-1
 596 730 l 2,42,43
 585 842 585 842 668 842 c 0,44,45
 750 842 750 842 739 730 c 2,46,-1
 702 346 l 1,47,-1
 947 644 l 2,0,1
EndSplineSet
EndChar
StartChar: uni06DF
Encoding: 1759 1759 4582
Width: 0
GlyphClass: 4
Flags: W
AnchorPoint: "MarkAbove" 368 1640 mark 0
AnchorPoint: "TashkilAbove" 372 1640 mark 0
LayerCount: 2
Fore
SplineSet
246.75 1976.84960938 m 0,0,1
 322.150390625 2113.34960938 322.150390625 2113.34960938 445.650390625 2024.95019531 c 0,2,3
 536.650390625 1958.65039062 536.650390625 1958.65039062 531.450195312 1878.04980469 c 0,4,5
 523.650390625 1776.65039062 523.650390625 1776.65039062 467.75 1724.65039062 c 0,6,7
 432.650390625 1690.84960938 432.650390625 1690.84960938 341.650390625 1696.04980469 c 0,8,9
 184.349609375 1701.25 184.349609375 1701.25 215.549804688 1888.45019531 c 0,10,11
 224.650390625 1937.84960938 224.650390625 1937.84960938 246.75 1976.84960938 c 0,0,1
460.450195312 1836.45019531 m 0,12,13
 497.300627748 1844.41747218 497.300627748 1844.41747218 450.049804688 1893.65039062 c 0,14,15
 399.611595123 1944.20440126 399.611595123 1944.20440126 348.150390625 1946.54980469 c 0,16,17
 268.370362281 1947.84960938 268.370362281 1947.84960938 262.150390625 1884.54980469 c 0,18,19
 259.41539646 1855.83904169 259.41539646 1855.83904169 282.950195312 1845.54980469 c 0,20,21
 357.894639065 1814.27709021 357.894639065 1814.27709021 460.450195312 1836.45019531 c 0,12,13
EndSplineSet
EndChar

StartChar: uni06E1
Encoding: 1761 1761 4754
Width: 0
GlyphClass: 4
Flags: W
AnchorPoint: "TashkilAbove" 372 1640 mark 0
AnchorPoint: "TashkilAboveDot" 372 1640 mark 0
LayerCount: 2
Fore
SplineSet
461 2054 m 2,0,-1
 550 2010 l 2,1,2
 640 1965 640 1965 564 1890 c 0,3,4
 435 1763 435 1763 395 1750 c 0,5,6
 311 1725 311 1725 146 1750 c 0,7,8
 133 1752 133 1752 134 1766 c 128,-1,9
 135 1780 135 1780 153 1781 c 0,10,11
 353 1796 353 1796 473 1891 c 1,12,13
 379 1944 379 1944 317 1962 c 0,14,15
 268 1976 268 1976 190 1935 c 0,16,17
 173 1926 173 1926 167 1933 c 0,18,19
 162 1939 162 1939 173 1952 c 0,20,21
 226 2014 226 2014 294 2058 c 0,22,23
 364 2102 364 2102 461 2054 c 2,0,-1
EndSplineSet
EndChar

StartChar: uni06E2
Encoding: 1762 1762 4773
Width: 0
GlyphClass: 4
Flags: W
AnchorPoint: "TashkilTashkilAbove2" 450 2150 mark 0
AnchorPoint: "TashkilTashkilAbove" 450 2150 mark 0
AnchorPoint: "TashkilAbove" 320 1640 mark 0
AnchorPoint: "TashkilAboveDot" 320 1640 mark 0
LayerCount: 2
Fore
SplineSet
183 2182 m 0,0,1
 224 2188 224 2188 273 2156 c 1,2,3
 59 2070 59 2070 59 1911 c 1,4,5
 57 1867 57 1867 104 1741 c 0,6,7
 144 1632 144 1632 156 1581 c 0,8,9
 164 1546 164 1546 184 1549 c 0,10,11
 203 1552 203 1552 200 1592 c 0,12,13
 193 1693 193 1693 118 1907 c 1,14,15
 146 2004 146 2004 368 2063 c 0,16,17
 398 2071 398 2071 401 2089 c 2,18,19
 412 2157 l 2,20,21
 415 2176 415 2176 406 2192 c 0,22,23
 374 2251 374 2251 320 2283 c 0,24,25
 254 2322 254 2322 211 2281 c 0,26,27
 171 2243 171 2243 156 2196 c 0,28,29
 150 2177 150 2177 183 2182 c 0,0,1
EndSplineSet
EndChar

StartChar: uni06E4
Encoding: 1764 1764 4678
Width: 0
VWidth: 2738
GlyphClass: 4
Flags: W
AnchorPoint: "MarkAbove" -2 1600 mark 0
AnchorPoint: "TashkilTashkilAbove2" 0 1658 mark 0
AnchorPoint: "TashkilAbove" 0 1658 mark 0
LayerCount: 2
Fore
SplineSet
321 1841 m 0,0,1
 351 1849 351 1849 360.5 1823.5 c 128,-1,2
 370 1798 370 1798 347 1782 c 0,3,4
 171 1666 171 1666 -225 1678 c 1,5,6
 -239 1645 -239 1645 -254 1629 c 128,-1,7
 -269 1613 -269 1613 -279 1623 c 2,8,-1
 -355 1701 l 1,9,10
 -377 1722 -377 1722 -303 1806 c 0,11,12
 -289 1821 -289 1821 -258 1816 c 0,13,14
 33 1769 33 1769 321 1841 c 0,0,1
EndSplineSet
EndChar

StartChar: uni06E5
Encoding: 1765 1765 4756
Width: 682
VWidth: 0
Flags: W
AnchorPoint: "TashkilAbove" 400 855 basechar 0
LayerCount: 2
Fore
SplineSet
516 210 m 1,0,1
 479 203 479 203 428 212 c 0,2,3
 372 222 372 222 359 276 c 0,4,5
 349 316 349 316 360 365 c 0,6,7
 377 435 377 435 426 499 c 0,8,9
 449 529 449 529 479 529 c 0,10,11
 512 529 512 529 542 494 c 0,12,13
 620 395 620 395 578 200 c 0,14,15
 551 72 551 72 465 -9 c 0,16,17
 412 -58 412 -58 356 -68 c 0,18,19
 226 -91 226 -91 112 -29 c 0,20,21
 84 -13 84 -13 92 -1 c 256,22,23
 100 11 100 11 128 10 c 0,24,25
 243 6 243 6 341 49 c 0,26,27
 465 102 465 102 516 210 c 1,0,1
EndSplineSet
EndChar

StartChar: uni06E6
Encoding: 1766 1766 4776
Width: 834
VWidth: 0
Flags: W
AnchorPoint: "TashkilAbove" 419 855 basechar 0
LayerCount: 2
Fore
SplineSet
426 489 m 0,0,1
 446 530 446 530 494 530 c 0,2,3
 553 530 553 530 571 448 c 0,4,5
 587 377 587 377 581 304 c 0,6,7
 580 276 580 276 559.5 274 c 128,-1,8
 539 272 539 272 534 297 c 0,9,10
 499 458 499 458 425 357 c 0,11,12
 317 208 317 208 173 134 c 0,13,14
 153 123 153 123 159 119 c 1,15,16
 369 65 369 65 678 123 c 0,17,18
 737 134 737 134 741 124 c 0,19,20
 751 103 751 103 719 79 c 0,21,22
 641 19 641 19 598 13 c 0,23,24
 511 0 511 0 381 -3.5 c 128,-1,25
 251 -7 251 -7 171 13 c 0,26,27
 58 41 58 41 114 145 c 0,28,29
 154 219 154 219 203 250 c 0,30,31
 304 312 304 312 340 354 c 0,32,33
 386 406 386 406 426 489 c 0,0,1
EndSplineSet
EndChar

StartChar: uni06E8
Encoding: 1768 1768 4606
Width: 0
GlyphClass: 4
Flags: W
AnchorPoint: "MarkAbove" 288 1640 mark 0
AnchorPoint: "NoonAbove" 290 1640 mark 0
LayerCount: 2
Fore
SplineSet
264 2469 m 2,0,1
 267 2474 267 2474 274 2472 c 0,2,3
 321 2456 321 2456 358 2423 c 0,4,5
 363 2418 363 2418 360 2412 c 2,6,-1
 303 2323 l 2,7,8
 300 2318 300 2318 291.5 2324.5 c 128,-1,9
 283 2331 283 2331 208 2376 c 0,10,11
 203 2379 203 2379 206 2383 c 2,12,-1
 264 2469 l 2,0,1
484 2291 m 1,13,14
 526 2214 526 2214 552 2104.5 c 128,-1,15
 578 1995 578 1995 562 1892 c 0,16,17
 553 1837 553 1837 527 1796 c 0,18,19
 458 1688 458 1688 287 1671 c 0,20,21
 164 1659 164 1659 99.5 1719 c 128,-1,22
 35 1779 35 1779 41 1885 c 128,-1,23
 47 1991 47 1991 114 2084 c 0,24,25
 123 2097 123 2097 131 2091 c 128,-1,26
 139 2085 139 2085 130 2068 c 0,27,28
 57 1945 57 1945 102 1868 c 128,-1,29
 147 1791 147 1791 280 1791 c 1,30,31
 435 1793 435 1793 530 1895 c 0,32,33
 532 1897 532 1897 532 1905 c 0,34,35
 533 1960 533 1960 498.5 2053 c 128,-1,36
 464 2146 464 2146 435 2187 c 0,37,38
 427 2199 427 2199 431 2207 c 2,39,-1
 467 2295 l 2,40,41
 472 2311 472 2311 484 2291 c 1,13,14
EndSplineSet
EndChar

StartChar: uni06E9
Encoding: 1769 1769 4798
Width: 1336
VWidth: 0
Flags: W
LayerCount: 2
Fore
SplineSet
881.5 856.5 m 128,-1,1
 820 882 820 882 800 792 c 2,2,-1
 739 533 l 2,3,4
 736 521 736 521 741.5 518.5 c 128,-1,5
 747 516 747 516 754 526 c 2,6,-1
 895 752 l 2,7,0
 943 831 943 831 881.5 856.5 c 128,-1,1
1184.5 126.5 m 128,-1,9
 1210 188 1210 188 1120 208 c 2,10,-1
 861 269 l 2,11,12
 849 272 849 272 846.5 266.5 c 128,-1,13
 844 261 844 261 854 254 c 2,14,-1
 1080 113 l 2,15,8
 1159 65 1159 65 1184.5 126.5 c 128,-1,9
454.5 -176.5 m 128,-1,17
 516 -202 516 -202 537 -112 c 2,18,-1
 597 147 l 2,19,20
 600 159 600 159 594 161.5 c 128,-1,21
 588 164 588 164 582 154 c 2,22,-1
 442 -73 l 2,23,16
 393 -151 393 -151 454.5 -176.5 c 128,-1,17
151.5 553.5 m 128,-1,25
 126 492 126 492 216 471 c 2,26,-1
 475 411 l 2,27,28
 487 408 487 408 489.5 414 c 128,-1,29
 492 420 492 420 482 426 c 2,30,-1
 255 566 l 2,31,24
 177 615 177 615 151.5 553.5 c 128,-1,25
1120 471 m 2,32,33
 1210 492 1210 492 1184.5 553.5 c 128,-1,34
 1159 615 1159 615 1081 566 c 2,35,-1
 854 426 l 2,36,37
 844 419 844 419 846 413.5 c 128,-1,38
 848 408 848 408 860 411 c 2,39,-1
 1120 471 l 2,32,33
799 -112 m 2,40,41
 820 -202 820 -202 881.5 -176.5 c 128,-1,42
 943 -151 943 -151 894 -73 c 2,43,-1
 754 154 l 2,44,45
 747 164 747 164 741.5 162 c 128,-1,46
 736 160 736 160 739 148 c 2,47,-1
 799 -112 l 2,40,41
216 208 m 2,48,49
 127 187 127 187 152.5 125.5 c 128,-1,50
 178 64 178 64 256 113 c 2,51,-1
 482 254 l 2,52,53
 492 260 492 260 489.5 266 c 128,-1,54
 487 272 487 272 476 269 c 2,55,-1
 216 208 l 2,48,49
536 792 m 2,56,57
 515 881 515 881 453.5 855.5 c 128,-1,58
 392 830 392 830 441 752 c 2,59,-1
 582 526 l 2,60,61
 588 516 588 516 594 518.5 c 128,-1,62
 600 521 600 521 597 532 c 2,63,-1
 536 792 l 2,56,57
1063 735 m 128,-1,65
 1016 782 1016 782 963 707 c 2,66,-1
 807 491 l 2,67,68
 800 481 800 481 804.5 476.5 c 128,-1,69
 809 472 809 472 819 479 c 2,70,-1
 1036 634 l 2,71,64
 1110 688 1110 688 1063 735 c 128,-1,65
1063 -55 m 128,-1,73
 1110 -8 1110 -8 1035 45 c 2,74,-1
 819 201 l 2,75,76
 809 208 809 208 804.5 203.5 c 128,-1,77
 800 199 800 199 807 189 c 2,78,-1
 962 -28 l 2,79,72
 1016 -102 1016 -102 1063 -55 c 128,-1,73
273 -55 m 128,-1,81
 320 -102 320 -102 374 -28 c 2,82,-1
 529 189 l 2,83,84
 536 199 536 199 531.5 203.5 c 128,-1,85
 527 208 527 208 517 201 c 2,86,-1
 301 45 l 2,87,80
 226 -8 226 -8 273 -55 c 128,-1,81
273 735 m 128,-1,89
 226 688 226 688 300 634 c 2,90,-1
 517 479 l 2,91,92
 527 472 527 472 531.5 476.5 c 128,-1,93
 536 481 536 481 529 491 c 2,94,-1
 373 707 l 2,95,88
 320 782 320 782 273 735 c 128,-1,89
1136 288 m 2,96,97
 1226 273 1226 273 1226 339.5 c 131,-1,98
 1226 406 1226 406 1136 391 c 2,99,-1
 873 348 l 2,100,101
 861 346 861 346 861 340 c 131,-1,102
 861 334 861 334 873 332 c 2,103,-1
 1136 288 l 2,96,97
616 -128 m 2,104,105
 601 -218 601 -218 667.5 -218 c 131,-1,106
 734 -218 734 -218 719 -128 c 2,107,-1
 676 135 l 2,108,109
 674 147 674 147 668 147 c 131,-1,110
 662 147 662 147 660 135 c 2,111,-1
 616 -128 l 2,104,105
200 391 m 2,112,113
 110 406 110 406 110 339.5 c 131,-1,114
 110 273 110 273 200 288 c 2,115,-1
 463 332 l 2,116,117
 475 334 475 334 475 340 c 131,-1,118
 475 346 475 346 463 348 c 2,119,-1
 200 391 l 2,112,113
719 808 m 2,120,121
 734 898 734 898 667.5 898 c 131,-1,122
 601 898 601 898 616 808 c 2,123,-1
 660 545 l 2,124,125
 662 533 662 533 668 533 c 131,-1,126
 674 533 674 533 676 545 c 2,127,-1
 719 808 l 2,120,121
668 976 m 1,128,129
 686 1078 686 1078 733 1157 c 1,130,131
 690 1198 690 1198 668 1252 c 1,132,133
 646 1198 646 1198 602 1157 c 1,134,135
 650 1078 650 1078 668 976 c 1,128,129
693 1482 m 0,136,137
 693 1364 693 1364 698 1334 c 0,138,139
 712 1248 712 1248 763 1200 c 1,140,141
 785 1224 785 1224 786 1225 c 0,142,143
 875 1315 875 1315 970 1315 c 0,144,145
 1010 1315 1010 1315 1034 1299 c 0,146,147
 1079 1269 1079 1269 1079 1216 c 0,148,149
 1079 1188 1079 1188 1064 1164 c 0,150,151
 1035 1118 1035 1118 980 1118 c 0,152,153
 953 1118 953 1118 928 1133 c 0,154,155
 882 1161 882 1161 882 1216 c 0,156,157
 888 1243 888 1243 846 1213 c 0,158,159
 733 1118 733 1118 712 929 c 1,160,161
 769 902 769 902 758 794 c 1,162,163
 803 941 803 941 907 887 c 0,164,165
 989 844 989 844 925 725 c 1,166,167
 1023 845 1023 845 1099 753 c 0,168,169
 1157 682 1157 682 1053 597 c 1,170,171
 1190 670 1190 670 1225 556 c 0,172,173
 1251 469 1251 469 1122 430 c 1,174,175
 1266 444 1266 444 1266 340 c 0,176,177
 1266 235 1266 235 1127 249 c 1,178,179
 1270 205 1270 205 1215 100 c 0,180,181
 1172 20 1172 20 1053 83 c 1,182,183
 1173 -16 1173 -16 1081 -92 c 0,184,185
 1011 -149 1011 -149 925 -45 c 1,186,187
 998 -182 998 -182 884 -217 c 0,188,189
 797 -243 797 -243 758 -114 c 1,190,191
 769 -222 769 -222 712 -249 c 1,192,193
 733 -438 733 -438 846 -533 c 0,194,195
 888 -563 888 -563 882 -536 c 0,196,197
 882 -481 882 -481 928 -453 c 0,198,199
 953 -438 953 -438 980 -438 c 0,200,201
 1035 -438 1035 -438 1064 -484 c 0,202,203
 1079 -508 1079 -508 1079 -536 c 0,204,205
 1079 -589 1079 -589 1034 -619 c 0,206,207
 1010 -635 1010 -635 970 -635 c 0,208,209
 875 -635 875 -635 786 -545 c 0,210,211
 785 -544 785 -544 763 -520 c 1,212,213
 712 -568 712 -568 698 -654 c 0,214,215
 693 -684 693 -684 693 -802 c 0,216,217
 693 -836 693 -836 668 -836 c 0,218,219
 642 -836 642 -836 642 -802 c 0,220,221
 642 -684 642 -684 637 -654 c 0,222,223
 623 -568 623 -568 572 -520 c 1,224,225
 550 -544 550 -544 549 -545 c 0,226,227
 460 -635 460 -635 365 -635 c 0,228,229
 325 -635 325 -635 301 -619 c 0,230,231
 256 -589 256 -589 256 -536 c 0,232,233
 256 -508 256 -508 271 -484 c 0,234,235
 300 -438 300 -438 355 -438 c 0,236,237
 382 -438 382 -438 407 -453 c 0,238,239
 453 -481 453 -481 453 -536 c 0,240,241
 447 -563 447 -563 489 -533 c 0,242,243
 602 -438 602 -438 623 -249 c 1,244,245
 566 -223 566 -223 576 -121 c 1,246,247
 533 -261 533 -261 429 -207 c 0,248,249
 347 -164 347 -164 410 -47 c 1,250,251
 314 -164 314 -164 237 -75 c 0,252,253
 177 -4 177 -4 280 80 c 1,254,255
 147 9 147 9 111 123 c 0,256,257
 85 210 85 210 214 249 c 1,258,259
 70 235 70 235 70 340 c 0,260,261
 70 444 70 444 214 430 c 1,262,263
 66 475 66 475 122 582 c 0,264,265
 164 660 164 660 283 597 c 1,266,267
 164 695 164 695 255 771 c 0,268,269
 325 829 325 829 408 728 c 1,270,271
 337 861 337 861 451 897 c 0,272,273
 538 923 538 923 577 794 c 1,274,275
 566 902 566 902 623 929 c 1,276,277
 602 1118 602 1118 489 1213 c 0,278,279
 447 1243 447 1243 453 1216 c 0,280,281
 453 1161 453 1161 407 1133 c 0,282,283
 382 1118 382 1118 355 1118 c 0,284,285
 300 1118 300 1118 271 1164 c 0,286,287
 256 1188 256 1188 256 1216 c 0,288,289
 256 1269 256 1269 301 1299 c 0,290,291
 325 1315 325 1315 365 1315 c 0,292,293
 460 1315 460 1315 549 1225 c 0,294,295
 550 1224 550 1224 572 1200 c 1,296,297
 623 1248 623 1248 637 1334 c 0,298,299
 642 1364 642 1364 642 1482 c 0,300,301
 642 1516 642 1516 668 1516 c 0,302,303
 693 1516 693 1516 693 1482 c 0,136,137
668 -296 m 1,304,305
 650 -398 650 -398 602 -477 c 1,306,307
 646 -518 646 -518 668 -572 c 1,308,309
 690 -518 690 -518 733 -477 c 1,310,311
 686 -398 686 -398 668 -296 c 1,304,305
EndSplineSet
EndChar

StartChar: uni06EA
Encoding: 1770 1770 4707
Width: 0
GlyphClass: 4
Flags: W
AnchorPoint: "MarkBelow" 520 -760 mark 0
LayerCount: 2
Fore
SplineSet
521 -1570 m 1,0,-1
 691 -1278 l 1,1,-1
 521 -988 l 1,2,-1
 351 -1278 l 1,3,-1
 521 -1570 l 1,0,-1
521 -1710 m 1,4,-1
 269 -1278 l 1,5,-1
 521 -850 l 1,6,-1
 773 -1278 l 1,7,-1
 521 -1710 l 1,4,-1
EndSplineSet
EndChar

StartChar: uni06EC
Encoding: 1772 1772 4788
Width: 0
GlyphClass: 4
Flags: W
AnchorPoint: "MarkAbove" 228 1640 mark 0
AnchorPoint: "TashkilAbove" 224 1640 mark 0
LayerCount: 2
Fore
SplineSet
384 2026 m 256,0,1
 318 2094 318 2094 223 2094 c 256,2,3
 130 2094 130 2094 64 2028 c 280,4,5
 -2 1962 -2 1962 -2 1869 c 280,6,7
 -2 1776 -2 1776 64 1710 c 280,8,9
 130 1644 130 1644 223 1644 c 280,10,11
 316 1644 316 1644 382 1710 c 280,12,13
 448 1776 448 1776 448 1869 c 280,14,15
 448 1963 448 1963 384 2026 c 256,0,1
EndSplineSet
EndChar

StartChar: uni06F4
Encoding: 1780 1780 606
Width: 1025
VWidth: 0
Flags: W
LayerCount: 2
Fore
SplineSet
198 1031 m 2,0,1
 224 1143 224 1143 281 1020 c 0,2,3
 323 926 323 926 398 874 c 1,4,5
 460 1162 460 1162 586.5 1196.5 c 128,-1,6
 713 1231 713 1231 824 1129 c 0,7,8
 853 1103 853 1103 841.5 1079 c 128,-1,9
 830 1055 830 1055 803 1061 c 0,10,11
 678 1085 678 1085 613 1064 c 0,12,13
 495 1027 495 1027 461 840 c 1,14,15
 511 822 511 822 586 828 c 0,16,17
 767 844 767 844 812 980 c 0,18,19
 822 1009 822 1009 848 1008 c 128,-1,20
 874 1007 874 1007 875 979 c 0,21,22
 881 829 881 829 785.5 696.5 c 128,-1,23
 690 564 690 564 451 600 c 1,24,25
 582 116 582 116 521 -173 c 0,26,27
 516 -193 516 -193 499 -200.5 c 128,-1,28
 482 -208 482 -208 469 -197 c 128,-1,29
 456 -186 456 -186 455 -163 c 0,30,31
 424 352 424 352 176 732 c 0,32,33
 140 788 140 788 154 845 c 2,34,-1
 198 1031 l 2,0,1
EndSplineSet
EndChar

StartChar: uni06F5
Encoding: 1781 1781 607
Width: 828
VWidth: 0
Flags: W
LayerCount: 2
Back
SplineSet
377 681 m 0,0,1
 418.565802353 720.971942752 418.565802353 720.971942752 495 701 c 24,2,3
 596.041753124 674.5982038 596.041753124 674.5982038 670.678225875 518.154819163 c 0,4,5
 744.687190639 363.026736141 744.687190639 363.026736141 733.343595319 197.51336807 c 128,-1,6
 722 32 722 32 688 -43 c 0,7,8
 620 -198 620 -198 520 -198 c 128,-1,9
 420 -198 420 -198 382 -130 c 1,10,11
 297.200012207 -234 297.200012207 -234 212.600006104 -218.5 c 128,-1,12
 128 -203 128 -203 95.5 -125.5 c 128,-1,13
 63 -48 63 -48 74.5 76 c 128,-1,14
 86 200 86 200 167.600006104 378 c 0,15,16
 250.92218172 559.756693019 250.92218172 559.756693019 377 681 c 0,0,1
529.200012207 451.547137736 m 24,17,18
 486.443822934 509.801307417 486.443822934 509.801307417 395.221911467 507.900653708 c 128,-1,19
 304 506 304 506 230 373.5 c 128,-1,20
 156 241 156 241 166.690120997 118.115911617 c 128,-1,21
 177.380241994 -4.76817676631 177.380241994 -4.76817676631 284 -10 c 0,22,23
 371.729228221 -13.8203125 371.729228221 -13.8203125 408 126 c 0,24,25
 414.634765625 151.766601562 414.634765625 151.766601562 436.521484375 148.639648438 c 128,-1,26
 458.408203125 145.512695312 458.408203125 145.512695312 460 117 c 0,27,28
 467.119857524 -10.542687318 467.119857524 -10.542687318 572 5 c 0,29,30
 608.244906608 10.3713051582 608.244906608 10.3713051582 644.536409148 68.9836701819 c 128,-1,31
 680.827911688 127.596035206 680.827911688 127.596035206 642.013961948 241.798017603 c 0,32,33
 606.539567468 346.174052533 606.539567468 346.174052533 529.200012207 451.547137736 c 24,17,18
EndSplineSet
Fore
SplineSet
323.407308187 570.001794401 m 1,0,1
 312.647303033 583.790770452 312.647303033 583.790770452 311.200195312 604 c 0,2,3
 307.378246573 649.861285509 307.378246573 649.861285509 353.200195312 690 c 0,4,5
 403.301135086 733.886988062 403.301135086 733.886988062 495 701 c 0,6,7
 601.702950546 662.731929135 601.702950546 662.731929135 670.678225875 518.154819163 c 0,8,9
 744.687190639 363.026736141 744.687190639 363.026736141 733.343595319 197.51336807 c 128,-1,10
 722 32 722 32 688 -43 c 1,11,12
 620 -198 620 -198 520 -198 c 128,-1,13
 420 -198 420 -198 382 -130 c 1,14,15
 297.200012207 -234 297.200012207 -234 212.600006104 -218.5 c 128,-1,16
 128 -203 128 -203 95.5 -125.5 c 0,17,18
 61.4891697837 -44.3972510227 61.4891697837 -44.3972510227 74.5 76 c 0,19,20
 87.0813377524 192.422891883 87.0813377524 192.422891883 185.599609375 370 c 0,21,22
 250.834362749 487.584267994 250.834362749 487.584267994 323.407308187 570.001794401 c 1,0,1
364.023754288 545.775620648 m 1,23,24
 321.483036699 488.690435424 321.483036699 488.690435424 248 365.5 c 0,25,26
 158.976867418 216.257413439 158.976867418 216.257413439 166.690120997 118.115911617 c 0,27,28
 176.343976932 -4.71732732031 176.343976932 -4.71732732031 284 -10 c 0,29,30
 371.729228221 -13.8203125 371.729228221 -13.8203125 408 126 c 0,31,32
 414.634765625 151.766601562 414.634765625 151.766601562 436.521484375 148.639648438 c 128,-1,33
 458.408203125 145.512695312 458.408203125 145.512695312 460 117 c 0,34,35
 467.119857524 -10.542687318 467.119857524 -10.542687318 572 5 c 0,36,37
 608.244906608 10.3713051582 608.244906608 10.3713051582 644.536409148 68.9836701819 c 0,38,39
 675.016247637 118.209943396 675.016247637 118.209943396 642.013961948 241.798017603 c 0,40,41
 574.481884778 488.213422861 574.481884778 488.213422861 364.023754288 545.775620648 c 1,23,24
EndSplineSet
EndChar

StartChar: uni06F6
Encoding: 1782 1782 608
Width: 1119
VWidth: 150
Flags: W
LayerCount: 2
Fore
SplineSet
1047 -996 m 0,0,-1
157 -216 m 0,1,2
 236 49 236 49 508 382 c 1,3,4
 299 408 299 408 207 535 c 0,5,6
 187 565 187 565 191 630 c 0,7,8
 196 692 196 692 241 774 c 0,9,10
 337 955 337 955 463.5 1013 c 152,-1,11
 590 1071 590 1071 721 915 c 0,12,13
 776 849 776 849 694 859 c 0,14,15
 442 890 442 890 296 694 c 0,16,17
 285 680 285 680 301 669 c 0,18,19
 546 502 546 502 919 753 c 0,20,21
 981 795 981 795 967 727 c 2,22,-1
 925 524 l 2,23,24
 912 459 912 459 859 430 c 0,25,26
 678 330 678 330 506 150 c 0,27,28
 342 -24 342 -24 225 -239 c 0,29,30
 201 -283 201 -283 179 -284 c 24,31,32
 137 -283 137 -283 157 -216 c 0,1,2
EndSplineSet
EndChar
StartChar: uni08AC
Encoding: 2220 2220 6093
Width: 1171
Flags: W
AnchorPoint: "TashkilAbove" 846 1640 basechar 0
AnchorPoint: "TashkilBelow" 726 -670 basechar 0
LayerCount: 2
Fore
SplineSet
883 560 m 1
 786 568 786 568 705 455 c 1
 682 426 682 426 727 365 c 0
 772 304 772 304 832 304 c 0
 892 304 892 304 967 382 c 1
 972 540 972 540 883 560 c 1
975 776 m 0
 987 776 987 776 995 772 c 0
 1044 742 1044 742 1058 660 c 0
 1085 503 1085 503 1023 367 c 0
 993 301 993 301 949 236 c 1
 1076 189 1076 189 1171 185 c 0
 1190 184 1190 184 1194 134 c 0
 1206 3 1206 3 1171 0 c 0
 1003 -17 1003 -17 748 118 c 1
 490 -17 490 -17 260 14 c 0
 239 17 239 17 231 -26 c 0
 224 -64 224 -64 226 -170 c 0
 229 -355 229 -355 228 -385 c 0
 227 -404 227 -404 213 -406 c 0
 199 -408 199 -408 195 -385 c 0
 156 -168 156 -168 130 115 c 0
 122 205 122 205 196 194 c 0
 408 159 408 159 613 237 c 1
 598 328 598 328 637 432 c 0
 700 602 700 602 868 728 c 0
 932 776 932 776 975 776 c 0
EndSplineSet
Refer: 195 -1 N 1 0 0 1 777 -440 2
EndChar
StartChar: uni08E4
Encoding: 2276 2276 6068
Width: 0
Flags: W
AnchorPoint: "TashkilAboveDot" 556 1640 mark 0
AnchorPoint: "TashkilAbove" 556 1640 mark 0
AnchorPoint: "TashkilTashkilAbove" 297 1955 basemark 0
AnchorPoint: "MarkAbove" 549 1640 mark 0
LayerCount: 2
Back
SplineSet
667 2132 m 0,10,11
 748 2055 748 2055 731 1984 c 0,12,13
 722 1941 722 1941 678 1914.5 c 128,-1,14
 634 1888 634 1888 533 1871 c 128,-1,15
 432 1854 432 1854 402 1817 c 1,16,17
 359 1756 359 1756 412 1683 c 0,18,19
 427 1663 427 1663 421 1663 c 0,20,21
 396 1664 396 1664 359 1716 c 0,22,23
 283 1822 283 1822 338 1881 c 1,24,25
 369 1919 369 1919 470.5 1936 c 128,-1,26
 572 1953 572 1953 615 1979 c 0,27,28
 684 2021 684 2021 665 2090 c 0,29,30
 659 2111 659 2111 638 2131 c 128,-1,31
 617 2151 617 2151 620.5 2162 c 128,-1,32
 624 2173 624 2173 667 2132 c 0,10,11
653 2131 m 0,0,1
 712.711758134 2074.16926874 712.711758134 2074.16926874 699 2015 c 0,2,3
 690.187084124 1973.53600042 690.187084124 1973.53600042 653 1951 c 0,4,5
 602.959449258 1920.76608725 602.959449258 1920.76608725 500 1903 c 0,6,7
 400.716214676 1885.86816406 400.716214676 1885.86816406 370.099906398 1849 c 0,8,9
 321.069460292 1788.70218125 321.069460292 1788.70218125 388 1696 c 0,10,-1
724 2092 m 0,44,45
 776 2123 776 2123 761 2071 c 2,46,-1
 741 2004 l 2,47,48
 734 1979 734 1979 697 1956 c 0,49,-1
 298 1726 l 0,50,51
 262 1706 262 1706 262 1745 c 2,52,-1
 263 1779 l 2,53,54
 264 1799 264 1799 298 1826 c 0,55,-1
 724 2092 l 0,44,45
EndSplineSet
Fore
SplineSet
667 2132 m 0,0,1
 748 2055 748 2055 731 1984 c 0,2,3
 722 1941 722 1941 678 1914.5 c 128,-1,4
 634 1888 634 1888 533 1871 c 128,-1,5
 432 1854 432 1854 402 1817 c 1,6,7
 359 1756 359 1756 412 1683 c 0,8,9
 427 1663 427 1663 421 1663 c 0,10,11
 396 1664 396 1664 359 1716 c 0,12,13
 283 1822 283 1822 338 1881 c 1,14,15
 369 1919 369 1919 470.5 1936 c 128,-1,16
 572 1953 572 1953 615 1979 c 0,17,18
 684 2021 684 2021 665 2090 c 0,19,20
 659 2111 659 2111 638 2131 c 128,-1,21
 617 2151 617 2151 620.5 2162 c 128,-1,22
 624 2173 624 2173 667 2132 c 0,0,1
EndSplineSet
EndChar
StartChar: uni08E5
Encoding: 2277 2277 6069
Width: 0
GlyphClass: 4
AnchorPoint: "TashkilAbove" 570 1640 mark 0
AnchorPoint: "TashkilAboveDot" 570 1640 mark 0
AnchorPoint: "TashkilTashkilAbove" 400 2200 basemark 0
AnchorPoint: "MarkAbove" 569 1640 mark 0
LayerCount: 2
Back
SplineSet
615 2215 m 1,30,31
 568.9995 2257 568.9995 2257 541 2210 c 1,32,33
 532.998441153 2199.00217019 532.998441153 2199.00217019 551.5 2179.5 c 128,-1,34
 569.9995 2160 569.9995 2160 636 2128 c 1,35,36
 645 2189.005 645 2189.005 615 2215 c 1,30,31
636 2348 m 0,37,38
 671 2353 671 2353 695 2315 c 0,39,40
 746 2236 746 2236 694 2101 c 1,41,42
 727 2082 727 2082 742 2075 c 0,43,44
 769.736026934 2064.1037037 769.736026934 2064.1037037 754 2034 c 2,45,-1
 731 1990 l 2,46,47
 719.583697235 1968.16011645 719.583697235 1968.16011645 700.5 1975.5 c 0,48,49
 681 1983 681 1983 645 2003 c 1,50,51
 588.725232822 1919.3508906 588.725232822 1919.3508906 470 1842 c 0,52,53
 414.028353179 1806.23010812 414.028353179 1806.23010812 373 1847 c 0,54,55
 323.372727561 1897.70612619 323.372727561 1897.70612619 300.522460938 1978.0546875 c 0,56,57
 287.910610419 2022.40183064 287.910610419 2022.40183064 316 2033 c 0,58,59
 349.561968316 2046.03625472 349.561968316 2046.03625472 359.487304688 2005.40722656 c 0,60,61
 374.808611151 1942.68997765 374.808611151 1942.68997765 407.792630702 1901 c 0,62,63
 417.91453059 1888.20647799 417.91453059 1888.20647799 430 1893.5347356 c 0,64,65
 518.536432873 1936.56879431 518.536432873 1936.56879431 592 2033 c 1,66,67
 534 2063 534 2063 506 2091 c 0,68,69
 456 2138 456 2138 479 2191 c 0,70,71
 538 2333 538 2333 636 2348 c 0,37,38
EndSplineSet
Fore
SplineSet
592 2033 m 1,0,1
 534 2063 534 2063 506 2091 c 0,2,3
 457 2140 457 2140 479 2191 c 0,4,5
 540.809 2333.425 540.809 2333.425 636 2348 c 0,6,7
 670.9995 2352.995 670.9995 2352.995 695 2315 c 0,8,9
 746 2235.995 746 2235.995 694 2101 c 1,10,11
 727 2082 727 2082 742 2075 c 0,12,13
 768.876559715 2062.45950554 768.876559715 2062.45950554 754 2034 c 2,14,-1
 731 1990 l 2,15,16
 719.583613537 1968.15995633 719.583613537 1968.15995633 700.5 1975.5 c 0,17,18
 681 1983 681 1983 645 2003 c 1,19,20
 603.143430747 1945.72258944 603.143430747 1945.72258944 539 1888.20214844 c 0,21,22
 436.311592265 1796.11660779 436.311592265 1796.11660779 379.631 1832.9 c 0,23,24
 343.578654998 1856.54498376 343.578654998 1856.54498376 346.8515625 1905.41992188 c 0,25,26
 349.783860459 1949.20847416 349.783860459 1949.20847416 368.639648438 1997.75 c 0,27,28
 400.993972756 2078.25949676 400.993972756 2078.25949676 414.590820312 2004.04589844 c 0,29,30
 426.725877053 1946.30434373 426.725877053 1946.30434373 478.5 1948.5 c 0,31,32
 506.423175998 1949.68417644 506.423175998 1949.68417644 538 1975.07718913 c 0,33,34
 563.091838118 1995.89400117 563.091838118 1995.89400117 592 2033 c 1,0,1
615 2215 m 0,35,36
 569 2257 569 2257 541 2210 c 0,37,38
 533 2199 533 2199 551.5 2179.5 c 128,-1,39
 570 2160 570 2160 636 2128 c 1,40,41
 645 2189 645 2189 615 2215 c 0,35,36
EndSplineSet
EndChar
StartChar: uni08E6
Encoding: 2278 2278 6070
Width: 0
Flags: W
AnchorPoint: "TashkilBelow" 534 -670 mark 0
AnchorPoint: "TashkilBelowDot" 534 -670 mark 0
AnchorPoint: "TashkilTashkilBelow" 297 -819 basemark 0
AnchorPoint: "MarkBelow" 450 -670 mark 0
LayerCount: 2
Back
SplineSet
724 -648 m 0,0,1
 776 -617 776 -617 761 -669 c 2,2,-1
 741 -736 l 2,3,4
 734 -761 734 -761 697 -784 c 0,5,-1
 298 -1014 l 0,6,7
 262 -1034 262 -1034 262 -995 c 2,8,-1
 263 -961 l 2,9,10
 264 -941 264 -941 298 -914 c 0,11,-1
 724 -648 l 0,0,1
EndSplineSet
Fore
Refer: 6068 2276 N 1 0 0 1 -9 -2763 2
EndChar
StartChar: uni08EA
Encoding: 2282 2282 6074
Width: 0
Flags: W
LayerCount: 2
Fore
SplineSet
278 1915 m 2,0,1
 279 1919 279 1919 283 1919 c 0,2,3
 321 1919 321 1919 383 1862 c 0,4,5
 388 1857 388 1857 386 1850 c 2,6,-1
 322 1750 l 2,7,8
 318 1744 318 1744 309 1751.5 c 128,-1,9
 300 1759 300 1759 255.5 1785 c 128,-1,10
 211 1811 211 1811 211 1813.5 c 128,-1,11
 211 1816 211 1816 213 1817 c 2,12,-1
 278 1915 l 2,0,1
EndSplineSet
EndChar
StartChar: uni08EC
Encoding: 2284 2284 6076
Width: 0
VWidth: 2818
Flags: W
LayerCount: 2
Back
SplineSet
290 1952.65527344 m 0,0,0
 190.797851562 1792.6484375 190.797851562 1792.6484375 38 1766.65527344 c 0,0,0
 -7 1759 -7 1759 -40 1776.24023438 c 0,0,0
 -88.876953125 1799.19238281 -88.876953125 1799.19238281 -88 1850.65527344 c 0,0,0
 -87.1484375 1907.15332031 -87.1484375 1907.15332031 -45 1929.46875 c 0,0,0
 7 1957 7 1957 83 1925.65527344 c 8,0,0
 178.34375 1887.83691406 178.34375 1887.83691406 251 1775.65527344 c 0,0,0
EndSplineSet
Fore
SplineSet
306.6171875 1979.45703125 m 128,-1,1
 315.272460938 1980.50976562 315.272460938 1980.50976562 316.623046875 1973.34667969 c 128,-1,2
 317.974609375 1966.18261719 317.974609375 1966.18261719 311.186523438 1955.23339844 c 0,3,4
 276.44140625 1899.19042969 276.44140625 1899.19042969 234.377929688 1856.15234375 c 1,5,6
 256.411132812 1830.52539062 256.411132812 1830.52539062 276.614257812 1799.33300781 c 0,7,8
 280.005859375 1794.09570312 280.005859375 1794.09570312 274.88671875 1783.30078125 c 128,-1,9
 269.767578125 1772.50683594 269.767578125 1772.50683594 259.3046875 1762.83398438 c 128,-1,10
 248.840820312 1753.16113281 248.840820312 1753.16113281 238.809570312 1749.95117188 c 128,-1,11
 228.779296875 1746.74023438 228.779296875 1746.74023438 225.38671875 1751.97753906 c 0,12,13
 204.735351562 1783.86523438 204.735351562 1783.86523438 181.94921875 1809.98632812 c 1,14,15
 107.961914062 1754.55957031 107.961914062 1754.55957031 22.3046875 1739.98828125 c 0,16,17
 -26.927734375 1731.61230469 -26.927734375 1731.61230469 -62.978515625 1750.22753906 c 1,18,19
 -115.895507812 1775.34667969 -115.895507812 1775.34667969 -114.923828125 1832.31640625 c 0,20,21
 -114.665039062 1849.5078125 -114.665039062 1849.5078125 -110.857421875 1864.60546875 c 0,22,23
 -102.69921875 1896.93847656 -102.69921875 1896.93847656 -77.4033203125 1923.43164062 c 0,24,25
 -60.3125 1941.33105469 -60.3125 1941.33105469 -39.18359375 1952.51757812 c 0,26,27
 23.49609375 1985.703125 23.49609375 1985.703125 105.454101562 1951.90136719 c 0,28,29
 163.84765625 1928.74023438 163.84765625 1928.74023438 213.997070312 1878.24804688 c 1,30,31
 243.041015625 1908.50683594 243.041015625 1908.50683594 268.813476562 1950.07617188 c 0,32,33
 275.6015625 1961.02539062 275.6015625 1961.02539062 286.782226562 1969.71484375 c 128,-1,0
 297.961914062 1978.40429688 297.961914062 1978.40429688 306.6171875 1979.45703125 c 128,-1,1
159.728515625 1833.48046875 m 1,34,35
 113.62109375 1878.35644531 113.62109375 1878.35644531 60.5458984375 1899.40820312 c 0,36,37
 25.42578125 1913.89257812 25.42578125 1913.89257812 -6.35546875 1914.74316406 c 0,38,39
 -37.6357421875 1915.58007812 -37.6357421875 1915.58007812 -53.521484375 1904.82128906 c 1,40,41
 -60.7119140625 1893.11914062 -60.7119140625 1893.11914062 -61.076171875 1869.00878906 c 0,42,43
 -61.85546875 1823.30566406 -61.85546875 1823.30566406 -17.021484375 1802.25292969 c 1,44,45
 13.24609375 1786.44042969 13.24609375 1786.44042969 53.6962890625 1793.32324219 c 0,46,47
 111.9765625 1803.23730469 111.9765625 1803.23730469 159.728515625 1833.48046875 c 1,34,35
EndSplineSet
EndChar

StartChar: uni08F0
Encoding: 2288 2288 4765
Width: 0
GlyphClass: 4
Flags: W
AnchorPoint: "TashkilAboveDot" 499 1640 mark 0
AnchorPoint: "TashkilAbove" 499 1640 mark 0
LayerCount: 2
Fore
SplineSet
689 2073 m 2,0,1
 755 2118 755 2118 735 2056 c 2,2,-1
 714 1992 l 2,3,4
 704 1960 704 1960 680 1946 c 2,5,-1
 322 1726 l 2,6,7
 279 1700 279 1700 286 1745 c 2,8,-1
 292 1784 l 2,9,10
 297 1812 297 1812 326 1832 c 2,11,-1
 689 2073 l 2,0,1
851 2377 m 2,12,13
 909.526560342 2413.95579555 909.526560342 2413.95579555 895 2360 c 2,14,-1
 881 2308 l 2,15,16
 871.923214286 2274.71845238 871.923214286 2274.71845238 838 2255 c 2,17,-1
 475 2044 l 2,18,19
 403.790251108 2002.8788774 403.790251108 2002.8788774 432 2064 c 2,20,-1
 450 2103 l 2,21,22
 464.440381772 2132.91221938 464.440381772 2132.91221938 482 2144 c 2,23,-1
 851 2377 l 2,12,13
EndSplineSet
EndChar
StartChar: uni08F6
Encoding: 2294 2294 6083
Width: 0
Flags: W
AnchorPoint: "MarkBelow" 77 -450 mark 0
AnchorPoint: "TashkilBelow" 247 -450 mark 0
AnchorPoint: "TashkilBelowDot" 247 -450 mark 0
AnchorPoint: "TashkilTashkilBelow" -126 -770 basemark 0
LayerCount: 2
Fore
SplineSet
307 -873 m 2,0,1
 310 -870 310 -870 312 -870 c 0,2,3
 314 -870 314 -870 338 -878 c 0,4,5
 362 -886 362 -886 376 -902 c 0,6,7
 392 -920 392 -920 390 -923 c 2,8,-1
 341 -1000 l 2,9,10
 340 -1002 340 -1002 338 -1002 c 0,11,12
 336 -1002 336 -1002 316 -986 c 0,13,14
 296 -970 296 -970 276 -962 c 0,15,16
 256 -954 256 -954 256 -951 c 0,17,18
 256 -949 256 -949 257 -948 c 2,19,-1
 307 -873 l 2,0,1
EndSplineSet
Refer: 235 1614 N 1 0 0 1 -290 -2610 2
EndChar
StartChar: uni08F7
Encoding: 2295 2295 6084
Width: 0
Flags: W
LayerCount: 2
Fore
SplineSet
335.461914062 2120.00976562 m 1,0,-1
 231.5390625 2060.00976562 l 1,1,-1
 56.1904296875 1976.07226562 l 1,2,-1
 313.461914062 1824.99023438 l 1,3,-1
 328.461914062 1799.00976562 l 1,4,-1
 224.538085938 1739.00976562 l 1,5,-1
 -73.4609375 1914.00976562 l 1,6,-1
 -88.4609375 1939.99023438 l 1,7,-1
 15.4619140625 1999.99023438 l 1,8,-1
 320.461914062 2145.99023438 l 1,9,-1
 335.461914062 2120.00976562 l 1,0,-1
EndSplineSet
EndChar
StartChar: uni08F8
Encoding: 2296 2296 6085
Width: 0
Flags: W
LayerCount: 2
Back
SplineSet
301.009765625 1064.46191406 m 1,0,-1
 326.990234375 1049.46191406 l 1,1,-1
 180.990234375 744.461914062 l 1,2,-1
 120.990234375 640.538085938 l 1,3,-1
 95.009765625 655.538085938 l 1,4,-1
 -79.990234375 953.538085938 l 1,5,-1
 -19.990234375 1057.4609375 l 1,6,-1
 5.990234375 1042.4609375 l 1,7,-1
 157.072265625 785.190429688 l 1,8,-1
 241.009765625 960.538085938 l 1,9,-1
 301.009765625 1064.46191406 l 1,0,-1
-54 1211 m 1,10,-1
 -80 1226 l 1,11,-1
 66 1531 l 1,12,-1
 126 1634 l 1,13,-1
 152 1619 l 1,14,-1
 327 1321 l 1,15,-1
 267 1218 l 1,16,-1
 241 1233 l 1,17,-1
 90 1490 l 1,18,-1
 6 1314 l 1,19,-1
 -54 1211 l 1,10,-1
-29 2103 m 25,0,-1
 276 1957 l 25,1,-1
 -22 1782 l 25,2,-1
EndSplineSet
Fore
SplineSet
-88.4609375 2085.99023438 m 1,0,-1
 15.4619140625 2145.99023438 l 1,1,-1
 320.461914062 1999.99023438 l 1,2,-1
 335.461914062 1974.00976562 l 1,3,-1
 37.4609375 1799.00976562 l 1,4,-1
 -66.4619140625 1739.00976562 l 1,5,-1
 -81.4619140625 1764.99023438 l 1,6,-1
 198.901367188 1929.6328125 l 1,7,-1
 -73.4609375 2060.00976562 l 1,8,-1
 -88.4609375 2085.99023438 l 1,0,-1
EndSplineSet
EndChar
StartChar: uni08FC
Encoding: 2300 2300 6089
Width: 0
Flags: W
AnchorPoint: "MarkAbove" 219 1640 mark 0
AnchorPoint: "TashkilAboveDot" 220 1640 mark 0
AnchorPoint: "TashkilAbove" 220 1640 mark 0
LayerCount: 2
Fore
SplineSet
-187 2002 m 2
 -185 2005 -185 2005 -183 2005 c 0
 -150 2005 -150 2005 -106 1961 c 0
 -101.27734375 1956.27734375 -101.27734375 1956.27734375 -104 1952 c 2
 -153 1875 l 2
 -156.1171875 1870.10058594 -156.1171875 1870.10058594 -163 1876 c 0
 -170 1882 -170 1882 -204 1902 c 0
 -238 1922 -238 1922 -238 1924 c 0
 -238 1925.5 -238 1925.5 -237 1927 c 2
 -187 2002 l 2
EndSplineSet
Refer: 6088 2299 N 1 0 0 1 0 0 2
EndChar
StartChar: uni08FD
Encoding: 2301 2301 6090
Width: 0
Flags: W
LayerCount: 2
Fore
SplineSet
-187 2002 m 2,0,1
 -185 2005 -185 2005 -183 2005 c 0,2,3
 -150 2005 -150 2005 -106 1961 c 0,4,5
 -101.27734375 1956.27734375 -101.27734375 1956.27734375 -104 1952 c 2,6,-1
 -153 1875 l 2,7,8
 -156.1171875 1870.10058594 -156.1171875 1870.10058594 -163 1876 c 0,9,10
 -170 1882 -170 1882 -204 1902 c 0,11,12
 -238 1922 -238 1922 -238 1924 c 0,13,14
 -238 1925.5 -238 1925.5 -237 1927 c 2,15,-1
 -187 2002 l 2,0,1
EndSplineSet
Refer: 6085 2296 N 1 0 0 1 0 0 2
EndChar
StartChar: uni08FE
Encoding: 2302 2302 6091
Width: 0
GlyphClass: 4
Flags: W
AnchorPoint: "TashkilAbove" 570 1640 mark 0
AnchorPoint: "TashkilAboveDot" 570 1640 mark 0
AnchorPoint: "TashkilTashkilAbove" 400 2200 basemark 0
AnchorPoint: "MarkAbove" 569 1640 mark 0
LayerCount: 2
Fore
SplineSet
223 2202 m 2,0,1
 225 2205 225 2205 227 2205 c 0,2,3
 260 2205 260 2205 304 2161 c 0,4,5
 308.722222222 2156.27777778 308.722222222 2156.27777778 306 2152 c 2,6,-1
 257 2075 l 2,7,8
 253.882410383 2070.1009306 253.882410383 2070.1009306 247 2076 c 0,9,10
 240 2082 240 2082 206 2102 c 0,11,12
 172 2122 172 2122 172 2124 c 0,13,14
 172 2125.5 172 2125.5 173 2127 c 2,15,-1
 223 2202 l 2,0,1
EndSplineSet
Refer: 236 1615 N 1 0 0 1 0 0 2
EndChar

StartChar: figuredash
Encoding: 8210 8210 693
Width: 970
VWidth: 0
Flags: W
LayerCount: 2
Fore
SplineSet
90 480 m 1,0,-1
 90 600 l 1,1,-1
 880 600 l 1,2,-1
 880 480 l 1,3,-1
 90 480 l 1,0,-1
EndSplineSet
EndChar

StartChar: endash
Encoding: 8211 8211 614
Width: 1024
VWidth: 0
Flags: W
LayerCount: 2
Fore
SplineSet
90 480 m 1,0,-1
 90 600 l 1,1,-1
 934 600 l 1,2,-1
 934 480 l 1,3,-1
 90 480 l 1,0,-1
EndSplineSet
EndChar

StartChar: emdash
Encoding: 8212 8212 369
Width: 2048
Flags: W
LayerCount: 2
Fore
SplineSet
90 480 m 1,0,-1
 90 600 l 1,1,-1
 1958 600 l 1,2,-1
 1958 480 l 1,3,-1
 90 480 l 1,0,-1
EndSplineSet
EndChar

StartChar: uni2015
Encoding: 8213 8213 677
Width: 2048
VWidth: 0
Flags: W
LayerCount: 2
Fore
SplineSet
0 480 m 1,0,-1
 0 600 l 1,1,-1
 2048 600 l 1,2,-1
 2048 480 l 1,3,-1
 0 480 l 1,0,-1
EndSplineSet
EndChar

StartChar: quoteright
Encoding: 8217 8217 629
Width: 709
VWidth: 0
Flags: W
LayerCount: 2
Fore
SplineSet
432 1646 m 0,0,1
 377 1577 377 1577 216 1474 c 0,2,3
 187 1456 187 1456 167 1485 c 0,4,5
 148 1514 148 1514 178 1534 c 0,6,7
 338 1636 338 1636 377 1690 c 0,8,9
 435 1769 435 1769 460 1854 c 1,10,11
 434 1843 434 1843 405 1843 c 0,12,13
 333 1843 333 1843 290 1900 c 0,14,15
 261 1939 261 1939 261 1987 c 0,16,17
 261 2059 261 2059 318 2102 c 0,18,19
 357 2131 357 2131 405 2131 c 0,20,21
 477 2131 477 2131 520 2074 c 0,22,23
 549 2035 549 2035 549 1977 c 0,24,25
 548 1791 548 1791 432 1646 c 0,0,1
EndSplineSet
EndChar

StartChar: uni201F
Encoding: 8223 8223 373
Width: 1197
UnlinkRmOvrlpSave: 1
Flags: W
LayerCount: 2
Fore
SplineSet
277 1646 m 0,0,1
 161 1791 161 1791 160 1977 c 0,2,3
 160 2035 160 2035 189 2074 c 0,4,5
 232 2131 232 2131 304 2131 c 0,6,7
 352 2131 352 2131 391 2102 c 0,8,9
 448 2059 448 2059 448 1987 c 0,10,11
 448 1939 448 1939 419 1900 c 0,12,13
 376 1843 376 1843 304 1843 c 0,14,15
 275 1843 275 1843 249 1854 c 1,16,17
 274 1769 274 1769 332 1690 c 0,18,19
 371 1636 371 1636 531 1534 c 0,20,21
 561 1514 561 1514 542 1485 c 0,22,23
 522 1456 522 1456 493 1474 c 0,24,25
 332 1577 332 1577 277 1646 c 0,0,1
765 1646 m 0,26,27
 649 1791 649 1791 648 1977 c 0,28,29
 648 2035 648 2035 677 2074 c 0,30,31
 720 2131 720 2131 792 2131 c 0,32,33
 840 2131 840 2131 879 2102 c 0,34,35
 936 2059 936 2059 936 1987 c 0,36,37
 936 1939 936 1939 907 1900 c 0,38,39
 864 1843 864 1843 792 1843 c 0,40,41
 763 1843 763 1843 737 1854 c 1,42,43
 762 1769 762 1769 820 1690 c 0,44,45
 859 1636 859 1636 1019 1534 c 0,46,47
 1049 1514 1049 1514 1030 1485 c 0,48,49
 1010 1456 1010 1456 981 1474 c 0,50,51
 820 1577 820 1577 765 1646 c 0,26,27
EndSplineSet
EndChar

StartChar: ellipsis
Encoding: 8230 8230 511
Width: 2048
VWidth: 0
Flags: W
LayerCount: 2
Fore
SplineSet
1364 0 m 128,-1,1
 1364 39 1364 39 1391.5 66.5 c 128,-1,2
 1419 94 1419 94 1458 94 c 128,-1,3
 1497 94 1497 94 1524.5 66.5 c 128,-1,4
 1552 39 1552 39 1552 0 c 128,-1,5
 1552 -39 1552 -39 1524.5 -66.5 c 128,-1,6
 1497 -94 1497 -94 1458 -94 c 128,-1,7
 1419 -94 1419 -94 1391.5 -66.5 c 128,-1,0
 1364 -39 1364 -39 1364 0 c 128,-1,1
950 0 m 128,-1,9
 950 39 950 39 977.5 66.5 c 128,-1,10
 1005 94 1005 94 1044 94 c 128,-1,11
 1083 94 1083 94 1110.5 66.5 c 128,-1,12
 1138 39 1138 39 1138 0 c 128,-1,13
 1138 -39 1138 -39 1110.5 -66.5 c 128,-1,14
 1083 -94 1083 -94 1044 -94 c 128,-1,15
 1005 -94 1005 -94 977.5 -66.5 c 128,-1,8
 950 -39 950 -39 950 0 c 128,-1,9
496 0 m 128,-1,17
 496 39 496 39 523.5 66.5 c 128,-1,18
 551 94 551 94 590 94 c 128,-1,19
 629 94 629 94 656.5 66.5 c 128,-1,20
 684 39 684 39 684 0 c 128,-1,21
 684 -39 684 -39 656.5 -66.5 c 128,-1,22
 629 -94 629 -94 590 -94 c 128,-1,23
 551 -94 551 -94 523.5 -66.5 c 128,-1,16
 496 -39 496 -39 496 0 c 128,-1,17
EndSplineSet
EndChar

StartChar: guilsinglleft
Encoding: 8249 8249 684
Width: 606
VWidth: 2045
Flags: W
LayerCount: 2
Fore
SplineSet
90 323 m 1,0,-1
 90 357 l 1,1,2
 258 481 258 481 465 734 c 1,3,-1
 516 684 l 1,4,5
 376 462 376 462 248 340 c 1,6,7
 367 223 367 223 516 -4 c 1,8,-1
 465 -54 l 1,9,10
 260 199 260 199 90 323 c 1,0,-1
EndSplineSet
EndChar

StartChar: minus
Encoding: 8722 8722 619
Width: 2048
VWidth: 0
Flags: W
LayerCount: 2
Fore
SplineSet
279 360 m 1,0,-1
 279 475 l 1,1,-1
 1769 475 l 1,2,-1
 1769 360 l 1,3,-1
 279 360 l 1,0,-1
EndSplineSet
EndChar

StartChar: radical
Encoding: 8730 8730 4700
Width: 1032
Flags: MW
LayerCount: 2
Fore
SplineSet
20 336 m 1,0,1
 -17 354 -17 354 -22 372 c 1,2,3
 -21 388 -21 388 24 412 c 0,4,5
 121 466 121 466 252 559 c 0,6,7
 274 575 274 575 282 582 c 0,8,9
 301 598 301 598 323 590 c 1,10,11
 331 586 331 586 334 580 c 1,12,13
 346 533 346 533 384 442 c 1,14,-1
 618 -62 l 1,15,-1
 902 1582 l 1,16,-1
 976 1582 l 1,17,18
 976 1582 976 1582 693 -50 c 0,19,20
 659 -241 659 -241 646 -306 c 1,21,22
 612 -346 612 -346 580 -346 c 1,23,24
 563 -345 563 -345 560 -336 c 1,25,-1
 206 440 l 1,26,-1
 20 336 l 1,0,1
EndSplineSet
EndChar

StartChar: uni25CC
Encoding: 9676 9676 4725
Width: 1392
Flags: W
AnchorPoint: "MarkBelow" 696 -510 basechar 0
AnchorPoint: "MarkAbove" 696 1210 basechar 0
LayerCount: 2
Fore
SplineSet
1138 737 m 0,0,1
 1138 720 1138 720 1125 707.5 c 128,-1,2
 1112 695 1112 695 1093 695 c 0,3,4
 1076 695 1076 695 1063.5 707.5 c 128,-1,5
 1051 720 1051 720 1051 737 c 0,6,7
 1051 756 1051 756 1063.5 769 c 128,-1,8
 1076 782 1076 782 1093 782 c 0,9,10
 1112 782 1112 782 1125 769 c 128,-1,11
 1138 756 1138 756 1138 737 c 0,0,1
955 860 m 0,12,13
 955 841 955 841 941.5 828 c 128,-1,14
 928 815 928 815 912 815 c 0,15,16
 893 815 893 815 880 828 c 128,-1,17
 867 841 867 841 867 860 c 0,18,19
 867 877 867 877 880 890 c 128,-1,20
 893 903 893 903 912 903 c 256,21,22
 931 903 931 903 943 890 c 128,-1,23
 955 877 955 877 955 860 c 0,12,13
1259 556 m 256,24,25
 1259 537 1259 537 1246 524 c 128,-1,26
 1233 511 1233 511 1216 511 c 0,27,28
 1197 511 1197 511 1184 524 c 128,-1,29
 1171 537 1171 537 1171 556 c 0,30,31
 1171 572 1171 572 1184 585.5 c 128,-1,32
 1197 599 1197 599 1216 599 c 0,33,34
 1233 599 1233 599 1246 587 c 128,-1,35
 1259 575 1259 575 1259 556 c 256,24,25
741 903 m 0,36,37
 741 885 741 885 728 872.5 c 128,-1,38
 715 860 715 860 696 860 c 256,39,40
 677 860 677 860 664 872.5 c 128,-1,41
 651 885 651 885 651 903 c 0,42,43
 651 922 651 922 664 934 c 128,-1,44
 677 946 677 946 696 946 c 256,45,46
 715 946 715 946 728 934 c 128,-1,47
 741 922 741 922 741 903 c 0,36,37
1302 340 m 256,48,49
 1302 321 1302 321 1290 308 c 128,-1,50
 1278 295 1278 295 1259 295 c 0,51,52
 1241 295 1241 295 1228.5 308 c 128,-1,53
 1216 321 1216 321 1216 340 c 256,54,55
 1216 359 1216 359 1228.5 372 c 128,-1,56
 1241 385 1241 385 1259 385 c 0,57,58
 1278 385 1278 385 1290 372 c 128,-1,59
 1302 359 1302 359 1302 340 c 256,48,49
525 860 m 0,60,61
 525 841 525 841 512 828 c 128,-1,62
 499 815 499 815 480 815 c 0,63,64
 464 815 464 815 450.5 828 c 128,-1,65
 437 841 437 841 437 860 c 0,66,67
 437 877 437 877 449 890 c 128,-1,68
 461 903 461 903 480 903 c 256,69,70
 499 903 499 903 512 890 c 128,-1,71
 525 877 525 877 525 860 c 0,60,61
1259 124 m 256,72,73
 1259 105 1259 105 1246 93 c 128,-1,74
 1233 81 1233 81 1216 81 c 0,75,76
 1197 81 1197 81 1184 94.5 c 128,-1,77
 1171 108 1171 108 1171 124 c 0,78,79
 1171 143 1171 143 1184 156 c 128,-1,80
 1197 169 1197 169 1216 169 c 0,81,82
 1233 169 1233 169 1246 156 c 128,-1,83
 1259 143 1259 143 1259 124 c 256,72,73
341 737 m 0,84,85
 341 720 341 720 328.5 707.5 c 128,-1,86
 316 695 316 695 299 695 c 0,87,88
 280 695 280 695 267 707.5 c 128,-1,89
 254 720 254 720 254 737 c 0,90,91
 254 756 254 756 267 769 c 128,-1,92
 280 782 280 782 299 782 c 0,93,94
 316 782 316 782 328.5 769 c 128,-1,95
 341 756 341 756 341 737 c 0,84,85
1138 -57 m 0,96,97
 1138 -76 1138 -76 1125 -89 c 128,-1,98
 1112 -102 1112 -102 1093 -102 c 0,99,100
 1076 -102 1076 -102 1063.5 -89 c 128,-1,101
 1051 -76 1051 -76 1051 -57 c 0,102,103
 1051 -40 1051 -40 1063.5 -27.5 c 128,-1,104
 1076 -15 1076 -15 1093 -15 c 0,105,106
 1112 -15 1112 -15 1125 -27.5 c 128,-1,107
 1138 -40 1138 -40 1138 -57 c 0,96,97
221 556 m 0,108,109
 221 537 221 537 208 524 c 128,-1,110
 195 511 195 511 176 511 c 0,111,112
 159 511 159 511 146.5 524 c 128,-1,113
 134 537 134 537 134 556 c 256,114,115
 134 575 134 575 146.5 587 c 128,-1,116
 159 599 159 599 176 599 c 0,117,118
 195 599 195 599 208 585.5 c 128,-1,119
 221 572 221 572 221 556 c 0,108,109
955 -180 m 0,120,121
 955 -197 955 -197 943 -209.5 c 128,-1,122
 931 -222 931 -222 912 -222 c 256,123,124
 893 -222 893 -222 880 -209.5 c 128,-1,125
 867 -197 867 -197 867 -180 c 0,126,127
 867 -161 867 -161 880 -148 c 128,-1,128
 893 -135 893 -135 912 -135 c 0,129,130
 928 -135 928 -135 941.5 -148 c 128,-1,131
 955 -161 955 -161 955 -180 c 0,120,121
176 340 m 256,132,133
 176 321 176 321 163.5 308 c 128,-1,134
 151 295 151 295 134 295 c 0,135,136
 114 295 114 295 102 308 c 128,-1,137
 90 321 90 321 90 340 c 256,138,139
 90 359 90 359 102 372 c 128,-1,140
 114 385 114 385 134 385 c 0,141,142
 151 385 151 385 163.5 372 c 128,-1,143
 176 359 176 359 176 340 c 256,132,133
741 -222 m 0,144,145
 741 -242 741 -242 728 -254 c 128,-1,146
 715 -266 715 -266 696 -266 c 256,147,148
 677 -266 677 -266 664 -254 c 128,-1,149
 651 -242 651 -242 651 -222 c 0,150,151
 651 -205 651 -205 664 -192.5 c 128,-1,152
 677 -180 677 -180 696 -180 c 256,153,154
 715 -180 715 -180 728 -192.5 c 128,-1,155
 741 -205 741 -205 741 -222 c 0,144,145
221 124 m 0,156,157
 221 108 221 108 208 94.5 c 128,-1,158
 195 81 195 81 176 81 c 0,159,160
 159 81 159 81 146.5 93 c 128,-1,161
 134 105 134 105 134 124 c 256,162,163
 134 143 134 143 146.5 156 c 128,-1,164
 159 169 159 169 176 169 c 0,165,166
 195 169 195 169 208 156 c 128,-1,167
 221 143 221 143 221 124 c 0,156,157
525 -180 m 0,168,169
 525 -197 525 -197 512 -209.5 c 128,-1,170
 499 -222 499 -222 480 -222 c 256,171,172
 461 -222 461 -222 449 -209.5 c 128,-1,173
 437 -197 437 -197 437 -180 c 0,174,175
 437 -161 437 -161 450.5 -148 c 128,-1,176
 464 -135 464 -135 480 -135 c 0,177,178
 499 -135 499 -135 512 -148 c 128,-1,179
 525 -161 525 -161 525 -180 c 0,168,169
341 -57 m 0,180,181
 341 -76 341 -76 328.5 -89 c 128,-1,182
 316 -102 316 -102 299 -102 c 0,183,184
 280 -102 280 -102 267 -89 c 128,-1,185
 254 -76 254 -76 254 -57 c 0,186,187
 254 -40 254 -40 267 -27.5 c 128,-1,188
 280 -15 280 -15 299 -15 c 0,189,190
 316 -15 316 -15 328.5 -27.5 c 128,-1,191
 341 -40 341 -40 341 -57 c 0,180,181
EndSplineSet
EndChar

StartChar: uniFD3E
Encoding: 64830 64830 4887
Width: 1463
Flags: W
LayerCount: 2
Fore
SplineSet
697 340 m 0,0,1
 697 297 697 297 722 262 c 0,2,3
 763 206 763 206 831 206 c 0,4,5
 873 206 873 206 909 231 c 0,6,7
 965 272 965 272 965 340 c 0,8,9
 965 382 965 382 940 418 c 0,10,11
 899 474 899 474 831 474 c 0,12,13
 789 474 789 474 753 449 c 0,14,15
 697 408 697 408 697 340 c 0,0,1
990 748 m 1,16,17
 1034 737 1034 737 1070.5 722 c 128,-1,18
 1107 707 1107 707 1088 681 c 2,19,-1
 944 486 l 2,20,21
 943 485 943 485 942 483 c 1,22,23
 959 465 959 465 977 448 c 1,24,-1
 1171 592 l 2,25,26
 1197 611 1197 611 1209 581 c 0,27,28
 1236 514 1236 514 1248 447 c 1,29,30
 1311 417 1311 417 1358 355 c 1,31,32
 1367 340 1367 340 1358 326 c 1,33,34
 1312 264 1312 264 1248 234 c 1,35,36
 1227 117 1227 117 1198 85 c 0,37,38
 1189 75 1189 75 1171 88 c 2,39,-1
 976 232 l 1,40,41
 958 215 958 215 942 197 c 1,42,43
 943 196 943 196 944 194 c 2,44,-1
 1088 -1 l 2,45,46
 1107 -27 1107 -27 1070.5 -42 c 128,-1,47
 1034 -57 1034 -57 990 -68 c 1,48,49
 1082 -437 1082 -437 1290 -730 c 1,50,51
 1325 -785 1325 -785 1289 -819 c 128,-1,52
 1253 -853 1253 -853 1203 -803 c 1,53,54
 891 -481 891 -481 777 -84 c 1,55,56
 687 -75 687 -75 595 -39 c 1,57,58
 566 -26 566 -26 584 -1 c 2,59,-1
 726 192 l 1,60,61
 688 234 688 234 686 232 c 2,62,-1
 491 88 l 2,63,64
 466 70 466 70 453 99 c 1,65,66
 427 167 427 167 415 234 c 1,67,68
 350 264 350 264 304 326 c 1,69,70
 296 341 296 341 304 355 c 1,71,72
 350 417 350 417 414 447 c 1,73,74
 426 515 426 515 453 581 c 0,75,76
 465 611 465 611 491 592 c 2,77,-1
 686 448 l 1,78,-1
 687 448 l 1,79,80
 708 467 708 467 727 488 c 1,81,-1
 584 681 l 2,82,83
 566 706 566 706 595 719 c 1,84,85
 687 755 687 755 778 764 c 1,86,87
 892 1159 892 1159 1203 1480 c 1,88,89
 1254 1529 1254 1529 1289.5 1494.5 c 128,-1,90
 1325 1460 1325 1460 1290 1406 c 1,91,92
 1078 1097 1078 1097 990 748 c 1,16,17
930 709 m 1,93,94
 1014 1086 1014 1086 1249 1434 c 0,95,96
 1263 1455 1263 1455 1257 1458 c 1,97,98
 1249 1455 1249 1455 1239 1444 c 0,99,100
 933 1128 933 1128 823 739 c 1,101,-1
 817 716 l 1,102,103
 732 713 732 713 644 684 c 1,104,-1
 760 527 l 1,105,106
 783 557 783 557 797.5 581 c 128,-1,107
 812 605 812 605 831.5 606 c 128,-1,108
 851 607 851 607 867 581.5 c 128,-1,109
 883 556 883 556 906 526 c 1,110,-1
 912 526 l 1,111,-1
 1028 684 l 1,112,113
 980 701 980 701 930 709 c 1,93,94
460 269 m 1,114,115
 468 209 468 209 488 148 c 1,116,-1
 646 265 l 1,117,-1
 646 267 l 1,118,119
 617 290 617 290 592.5 306 c 128,-1,120
 568 322 568 322 569 340 c 128,-1,121
 570 358 570 358 593.5 374 c 128,-1,122
 617 390 617 390 646 413 c 1,123,-1
 646 415 l 1,124,-1
 488 532 l 1,125,126
 468 473 468 473 460 413 c 1,127,-1
 437 402 l 2,128,129
 390 380 390 380 356 340 c 1,130,131
 390 300 390 300 437 279 c 2,132,-1
 460 269 l 1,114,115
1016 414 m 1,133,134
 1045 390 1045 390 1070.5 374 c 128,-1,135
 1096 358 1096 358 1094.5 339.5 c 128,-1,136
 1093 321 1093 321 1069 305.5 c 128,-1,137
 1045 290 1045 290 1016 266 c 1,138,-1
 1016 265 l 1,139,-1
 1174 148 l 1,140,141
 1194 209 1194 209 1202 269 c 1,142,-1
 1226 279 l 1,143,144
 1272 300 1272 300 1306 340 c 1,145,146
 1273 380 1273 380 1226 402 c 2,147,-1
 1202 413 l 1,148,149
 1194 473 1194 473 1174 532 c 1,150,-1
 1016 415 l 1,151,-1
 1016 414 l 1,133,134
930 -29 m 1,152,153
 980 -21 980 -21 1028 -4 c 1,154,-1
 912 154 l 1,155,-1
 905 154 l 1,156,157
 882 124 882 124 867 99 c 128,-1,158
 852 74 852 74 833 74 c 128,-1,159
 814 74 814 74 798 98.5 c 128,-1,160
 782 123 782 123 759 152 c 1,161,-1
 644 -4 l 1,162,163
 731 -33 731 -33 817 -36 c 1,164,-1
 821 -56 l 1,165,166
 930 -450 930 -450 1239 -769 c 0,167,168
 1250 -780 1250 -780 1257 -782 c 1,169,170
 1261 -777 1261 -777 1249 -758 c 1,171,172
 1030 -448 1030 -448 930 -29 c 1,152,153
EndSplineSet
EndChar
StartChar: uniFD3F
Encoding: 64831 64831 4835
Width: 1463
Flags: W
LayerCount: 2
Fore
SplineSet
767 340 m 0,0,1
 767 408 767 408 711 449 c 0,2,3
 675 474 675 474 633 474 c 0,4,5
 565 474 565 474 523 418 c 0,6,7
 499 382 499 382 499 340 c 0,8,9
 499 272 499 272 555 231 c 0,10,11
 591 206 591 206 633 206 c 0,12,13
 701 206 701 206 741 262 c 0,14,15
 767 297 767 297 767 340 c 0,0,1
473 748 m 1,16,17
 385 1097 385 1097 173 1406 c 1,18,19
 139 1460 139 1460 174.5 1494.5 c 128,-1,20
 210 1529 210 1529 261 1480 c 1,21,22
 571 1159 571 1159 685 764 c 1,23,24
 777 755 777 755 869 719 c 1,25,26
 897 706 897 706 879 681 c 2,27,-1
 737 488 l 1,28,29
 757 467 757 467 777 448 c 1,30,-1
 777 448 l 1,31,-1
 973 592 l 2,32,33
 999 611 999 611 1011 581 c 0,34,35
 1037 515 1037 515 1049 447 c 1,36,37
 1113 417 1113 417 1159 355 c 1,38,39
 1167 341 1167 341 1159 326 c 1,40,41
 1113 264 1113 264 1049 234 c 1,42,43
 1037 167 1037 167 1011 99 c 1,44,45
 999 70 999 70 973 88 c 2,46,-1
 777 232 l 2,47,48
 775 234 775 234 737 192 c 1,49,-1
 879 -1 l 2,50,51
 897 -26 897 -26 869 -39 c 1,52,53
 777 -75 777 -75 687 -84 c 1,54,55
 573 -481 573 -481 261 -803 c 1,56,57
 211 -853 211 -853 174.5 -819 c 128,-1,58
 138 -785 138 -785 173 -730 c 1,59,60
 381 -437 381 -437 473 -68 c 1,61,62
 429 -57 429 -57 392.5 -42 c 128,-1,63
 356 -27 356 -27 375 -1 c 2,64,-1
 519 194 l 2,65,66
 519 196 519 196 521 197 c 1,67,68
 505 215 505 215 487 232 c 1,69,-1
 293 88 l 2,70,71
 275 75 275 75 265 85 c 0,72,73
 235 117 235 117 215 234 c 1,74,75
 151 264 151 264 105 326 c 1,76,77
 95 340 95 340 105 355 c 1,78,79
 151 417 151 417 215 447 c 1,80,81
 227 514 227 514 255 581 c 0,82,83
 267 611 267 611 293 592 c 2,84,-1
 487 448 l 1,85,86
 505 465 505 465 521 483 c 1,87,88
 519 485 519 485 519 486 c 2,89,-1
 375 681 l 2,90,91
 357 707 357 707 393 722 c 128,-1,92
 429 737 429 737 473 748 c 1,16,17
533 709 m 1,93,94
 483 701 483 701 435 684 c 1,95,-1
 551 526 l 1,96,-1
 557 526 l 1,97,98
 581 556 581 556 597 581.5 c 128,-1,99
 613 607 613 607 632 606 c 128,-1,100
 651 605 651 605 665.5 581 c 128,-1,101
 680 557 680 557 703 527 c 1,102,-1
 819 684 l 1,103,104
 731 713 731 713 647 716 c 1,105,-1
 641 739 l 1,106,107
 531 1128 531 1128 225 1444 c 0,108,109
 215 1455 215 1455 207 1458 c 1,110,111
 201 1455 201 1455 215 1434 c 0,112,113
 449 1086 449 1086 533 709 c 1,93,94
1003 269 m 1,114,115
 1027 279 l 2,116,117
 1073 300 1073 300 1107 340 c 1,118,119
 1073 380 1073 380 1027 402 c 2,120,-1
 1003 413 l 1,121,122
 995 473 995 473 975 532 c 1,123,-1
 817 415 l 1,124,-1
 817 413 l 1,125,126
 847 390 847 390 870 374 c 128,-1,127
 893 358 893 358 894 340 c 128,-1,128
 895 322 895 322 870.5 306 c 128,-1,129
 846 290 846 290 817 267 c 1,130,-1
 817 265 l 1,131,-1
 975 148 l 1,132,133
 995 209 995 209 1003 269 c 1,114,115
447 414 m 1,134,-1
 447 415 l 1,135,-1
 289 532 l 1,136,137
 269 473 269 473 261 413 c 1,138,-1
 237 402 l 2,139,140
 189 380 189 380 157 340 c 1,141,142
 191 300 191 300 237 279 c 1,143,144
 261 269 l 1,145,146
 269 209 269 209 289 148 c 1,147,-1
 447 265 l 1,148,-1
 447 266 l 1,149,150
 419 290 419 290 395 305.5 c 128,-1,151
 371 321 371 321 369 339.5 c 128,-1,152
 367 358 367 358 392.5 374 c 128,-1,153
 418 390 418 390 447 414 c 1,134,-1
533 -29 m 1,154,155
 433 -448 433 -448 215 -758 c 1,156,157
 203 -777 203 -777 207 -782 c 1,158,159
 215 -780 215 -780 225 -769 c 0,160,161
 535 -450 535 -450 643 -56 c 1,162,-1
 647 -36 l 1,163,164
 733 -33 733 -33 819 -4 c 1,165,-1
 705 152 l 1,166,167
 681 123 681 123 665 98.5 c 128,-1,168
 649 74 649 74 630 74 c 128,-1,169
 611 74 611 74 596.5 99 c 128,-1,170
 582 124 582 124 559 154 c 1,171,-1
 551 154 l 1,172,-1
 435 -4 l 1,173,174
 483 -21 483 -21 533 -29 c 1,154,155
EndSplineSet
EndChar

StartChar: uniFDFA
Encoding: 65018 65018 5740
Width: 2048
VWidth: 0
LayerCount: 2
Fore
SplineSet
909 755 m 1,0,-1
 908 755 l 1,1,2
 914 794 914 794 920 798 c 0,3,4
 956 830 956 830 976 897.5 c 128,-1,5
 996 965 996 965 985 1054 c 0,6,7
 969 1174 969 1174 962 1227 c 2,8,-1
 935 1419 l 2,9,10
 933 1434 933 1434 961 1546 c 0,11,12
 963 1554 963 1554 971.5 1553 c 128,-1,13
 980 1552 980 1552 981 1547 c 8,14,15
 1044 1118 1044 1118 1094 1033 c 128,-1,16
 1144 948 1144 948 1238 952 c 0,17,18
 1345 957 1345 957 1416 1028 c 1,19,20
 1423 1040 1423 1040 1436.5 1040.5 c 128,-1,21
 1450 1041 1450 1041 1461 1026 c 1,22,23
 1492 977 1492 977 1567 954 c 1,24,25
 1609 1001 1609 1001 1651 1038 c 0,26,27
 1776 1146 1776 1146 1852 1146 c 0,28,29
 1880 1146 1880 1146 1922 1115.5 c 128,-1,30
 1964 1085 1964 1085 1964 1055.5 c 128,-1,31
 1964 1026 1964 1026 1935.5 974 c 128,-1,32
 1907 922 1907 922 1895 912 c 1,33,34
 1803 846 1803 846 1654 846 c 1,35,36
 1596 847 1596 847 1544 860 c 1,37,-1
 1517 779 l 2,38,39
 1514 770 1514 770 1505 768 c 1,40,41
 1485 768 1485 768 1483 788 c 1,42,-1
 1483 791 l 1,43,44
 1488 826 1488 826 1508 874 c 1,45,46
 1457 896 1457 896 1436.5 920 c 128,-1,47
 1416 944 1416 944 1410.5 944 c 128,-1,48
 1405 944 1405 944 1391 930 c 0,49,50
 1317 858 1317 858 1209 861 c 128,-1,51
 1101 864 1101 864 1032 998 c 1,52,53
 1027 912 1027 912 971 812 c 1,54,55
 1067 797 1067 797 1095 775 c 128,-1,56
 1123 753 1123 753 1124 746 c 0,57,58
 1132 659 1132 659 1072 610 c 1,59,60
 928 496 928 496 784.5 496 c 128,-1,61
 641 496 641 496 577 568 c 0,62,63
 466 692 466 692 627 961 c 0,64,65
 630 966 630 966 637 968 c 1,66,67
 653 966 653 966 646 950 c 1,68,69
 593 859 593 859 586 823 c 0,70,71
 570 746 570 746 606 678 c 0,72,73
 654 587 654 587 810 597.5 c 128,-1,74
 966 608 966 608 1084 710 c 1,75,76
 1049 731 1049 731 909 755 c 1,0,-1
1896 994 m 0,77,78
 1844 1041 1844 1041 1794 1041.5 c 128,-1,79
 1744 1042 1744 1042 1686 1004 c 128,-1,80
 1628 966 1628 966 1608 944 c 1,81,82
 1666 935 1666 935 1776 947.5 c 128,-1,83
 1886 960 1886 960 1899 989 c 0,84,85
 1899 991 1899 991 1896 994 c 0,77,78
820 868 m 0,86,87
 816 861 816 861 810.5 861 c 128,-1,88
 805 861 805 861 805 877 c 0,89,90
 805 1014 805 1014 798 1068 c 0,91,92
 789 1138 789 1138 777 1258 c 1,93,-1
 755 1454 l 2,94,95
 753 1470 753 1470 760 1488 c 2,96,-1
 782 1539 l 2,97,98
 789 1557 789 1557 794 1557 c 128,-1,99
 799 1557 799 1557 801 1541 c 2,100,-1
 824 1288 l 1,101,102
 863 951 863 951 820 868 c 0,86,87
447 1528 m 0,103,104
 451 1540 451 1540 460 1539.5 c 128,-1,105
 469 1539 469 1539 469 1527 c 0,106,107
 470 1491 470 1491 494 1491 c 128,-1,108
 518 1491 518 1491 522 1519.5 c 128,-1,109
 526 1548 526 1548 537 1548 c 1,110,111
 546 1546 546 1546 546 1519 c 128,-1,112
 546 1492 546 1492 531 1455.5 c 128,-1,113
 516 1419 516 1419 489 1417.5 c 128,-1,114
 462 1416 462 1416 445 1436 c 1,115,116
 423 1399 423 1399 391 1399 c 0,117,118
 344 1399 344 1399 344 1446 c 0,119,120
 344 1483 344 1483 352.5 1508 c 128,-1,121
 361 1533 361 1533 369.5 1534 c 128,-1,122
 378 1535 378 1535 378 1521 c 2,123,-1
 377 1503 l 2,124,125
 377 1491 377 1491 386 1475.5 c 128,-1,126
 395 1460 395 1460 413.5 1470 c 128,-1,127
 432 1480 432 1480 447 1528 c 0,103,104
478 1017 m 1,128,129
 437 1211 437 1211 432.5 1252.5 c 128,-1,130
 428 1294 428 1294 435 1305 c 2,131,-1
 464 1351 l 2,132,133
 474 1367 474 1367 480 1345 c 1,134,135
 481 1346 481 1346 501.5 1204 c 128,-1,136
 522 1062 522 1062 546 1026 c 0,137,138
 588 960 588 960 651 979 c 1,139,140
 650 1004 650 1004 620 1131 c 128,-1,141
 590 1258 590 1258 588.5 1277 c 128,-1,142
 587 1296 587 1296 593 1306 c 2,143,-1
 617 1348 l 2,144,145
 625 1362 625 1362 633 1338 c 1,146,-1
 684 1103 l 1,147,148
 700 1023 700 1023 695 982 c 0,149,150
 683 863 683 863 627 862 c 0,151,152
 583 862 583 862 555 887.5 c 128,-1,153
 527 913 527 913 501 964 c 1,154,155
 463 860 463 860 377.5 862 c 128,-1,156
 292 864 292 864 276 963 c 1,157,158
 244 916 244 916 221 911 c 0,159,160
 141 894 141 894 93 927 c 1,161,162
 78 939 78 939 91 980.5 c 128,-1,163
 104 1022 104 1022 152 1063 c 0,164,165
 201 1104 201 1104 259 1118 c 1,166,-1
 258 1167 l 1,167,-1
 258 1168 l 1,168,169
 259 1196 259 1196 295 1249 c 0,170,171
 306 1265 306 1265 308 1247 c 1,172,173
 308 1222 308 1222 310 1130 c 0,174,175
 314 968 314 968 384.5 967.5 c 128,-1,176
 455 967 455 967 478 1017 c 1,128,129
262 1070 m 1,177,178
 242 1066 242 1066 206.5 1048.5 c 128,-1,179
 171 1031 171 1031 159 1011 c 1,180,181
 176 998 176 998 215 1000.5 c 128,-1,182
 254 1003 254 1003 267 1015 c 1,183,184
 265 1027 265 1027 262 1070 c 1,177,178
256 679 m 1,185,-1
 253 741 l 2,186,187
 252 762 252 762 262 772 c 2,188,-1
 283 792 l 2,189,190
 296 804 296 804 299 782 c 1,191,192
 298 775 298 775 308 668 c 0,193,194
 332 398 332 398 663 398 c 0,195,196
 954 398 954 398 1075 498 c 1,197,198
 1155 393 1155 393 1215.5 432 c 128,-1,199
 1276 471 1276 471 1293 532 c 1,200,201
 1248 755 1248 755 1236 1128 c 0,202,203
 1236 1141 1236 1141 1244 1156 c 2,204,-1
 1282 1227 l 2,205,206
 1284 1230 1284 1230 1289 1232 c 1,207,208
 1292 1231 1292 1231 1293 1222 c 0,209,210
 1316 803 1316 803 1332 685 c 0,211,212
 1364 440 1364 440 1534 424 c 1,213,214
 1501 468 1501 468 1500.5 535.5 c 128,-1,215
 1500 603 1500 603 1558 660 c 0,216,217
 1685 785 1685 785 1806 650 c 0,218,219
 1816 639 1816 639 1809 628 c 1,220,221
 1801 618 1801 618 1788 622 c 0,222,223
 1692 655 1692 655 1598 622 c 0,224,225
 1550 605 1550 605 1549.5 579.5 c 128,-1,226
 1549 554 1549 554 1584.5 499 c 128,-1,227
 1620 444 1620 444 1672 445 c 0,228,229
 1757 447 1757 447 1865 511 c 0,230,231
 1926 547 1926 547 1910 513 c 1,232,-1
 1882 446 l 1,233,234
 1877 430 1877 430 1835 407 c 0,235,236
 1688 327 1688 327 1524.5 331 c 128,-1,237
 1361 335 1361 335 1311 480 c 1,238,239
 1303 460 1303 460 1284 430 c 0,240,241
 1209 314 1209 314 1143 331 c 0,242,243
 1098 343 1098 343 1049 394 c 1,244,245
 914 308 914 308 664 308 c 0,246,247
 361 308 361 308 291 506 c 1,248,249
 263 453 263 453 231.5 440.5 c 128,-1,250
 200 428 200 428 160 435 c 0,251,252
 87 448 87 448 85 486 c 1,253,254
 86 506 86 506 105 542 c 128,-1,255
 124 578 124 578 134 589 c 0,256,257
 177 639 177 639 256 679 c 1,185,-1
149 546 m 1,258,259
 153 529 153 529 208.5 530 c 128,-1,260
 264 531 264 531 279 544 c 1,261,262
 272 571 272 571 263 618 c 1,263,264
 164 590 164 590 149 546 c 1,258,259
971 270 m 2,265,266
 973.16811915 273.283151855 973.16811915 273.283151855 996 265.5 c 0,267,268
 1018 258 1018 258 1050 230 c 1,269,270
 1053 226 1053 226 1052 222 c 1,271,-1
 1004 146 l 2,272,273
 1001.74393307 142.427894028 1001.74393307 142.427894028 994.5 148 c 0,274,275
 988 153 988 153 938 183 c 1,276,-1
 900 123 l 2,277,278
 899.706054688 126.224609375 899.706054688 126.224609375 889.5 125.5 c 0,279,280
 865.223632812 123.776367188 865.223632812 123.776367188 820 169 c 0,281,282
 818 171 818 171 818 175 c 1,283,-1
 867 247 l 2,284,285
 869.211104962 250.248970556 869.211104962 250.248970556 889 244 c 0,286,287
 908 238 908 238 936 217 c 1,288,-1
 971 270 l 2,265,266
1532 -111 m 1,289,290
 1533 -105 1533 -105 1556.5 -107 c 128,-1,291
 1580 -109 1580 -109 1615 -109 c 128,-1,292
 1650 -109 1650 -109 1693 -99 c 128,-1,293
 1736 -89 1736 -89 1815.5 -19 c 128,-1,294
 1895 51 1895 51 1911 99 c 1,295,296
 1906 140 1906 140 1898 144 c 1,297,298
 1873 105 1873 105 1848 106 c 1,299,300
 1767 106 1767 106 1767 181 c 0,301,302
 1767 214 1767 214 1784 262 c 0,303,304
 1818 358 1818 358 1866 358 c 0,305,306
 1894 358 1894 358 1923.5 311.5 c 128,-1,307
 1953 265 1953 265 1953 211 c 0,308,309
 1953 46 1953 46 1848 -73 c 0,310,311
 1783 -148 1783 -148 1738.5 -152 c 128,-1,312
 1694 -156 1694 -156 1613 -142 c 128,-1,313
 1532 -128 1532 -128 1532 -113 c 2,314,-1
 1532 -111 l 1,289,290
1874 224 m 0,315,316
 1845 271 1845 271 1812 229 c 1,317,318
 1837 201 1837 201 1874 224 c 0,315,316
1641 129 m 1,320,321
 1671 131 1671 131 1650 196 c 1,322,323
 1649 222 1649 222 1666.5 239 c 128,-1,324
 1684 256 1684 256 1691 243.5 c 128,-1,325
 1698 231 1698 231 1698.5 190.5 c 128,-1,326
 1699 150 1699 150 1692 119 c 0,327,328
 1672 40 1672 40 1639 37 c 1,329,-1
 1632 37 l 2,330,331
 1565 37 1565 37 1515 87 c 1,332,333
 1472 -13 1472 -13 1395 -15 c 1,334,335
 1345 -14 1345 -14 1293 40 c 1,336,337
 1158 -34 1158 -34 922 -34 c 0,338,339
 518 -33 518 -33 463 241 c 1,340,341
 458 157 458 157 422 112 c 1,342,343
 467 94 467 94 487 57.5 c 128,-1,344
 507 21 507 21 466 -63 c 1,345,346
 456 -80 456 -80 427 -80 c 2,347,-1
 426 -80 l 1,348,349
 363 -79 363 -79 319 -46 c 1,350,351
 299 -107 299 -107 265 -125 c 0,352,353
 188 -165 188 -165 99 -158 c 0,354,355
 86 -157 86 -157 85 -147 c 1,356,357
 86 -141 86 -141 95 -137 c 0,358,359
 293 -58 293 -58 293 -5 c 2,360,-1
 293 11 l 2,361,362
 293 81 293 81 330 107 c 0,363,364
 351 122 351 122 371 124 c 1,365,366
 442 174 442 174 442 294 c 2,367,-1
 442 308 l 1,368,-1
 412 633 l 1,369,-1
 412 634 l 2,370,371
 412 643 412 643 418 655 c 2,372,-1
 439 697 l 2,373,374
 445 708 445 708 451 708 c 128,-1,375
 457 708 457 708 469 584.5 c 128,-1,376
 481 461 481 461 488 406 c 0,377,378
 507 258 507 258 561 181 c 1,379,380
 651 55 651 55 934.5 55.5 c 128,-1,381
 1218 56 1218 56 1345 149 c 0,382,383
 1359 159 1359 159 1363 151 c 0,384,385
 1370 140 1370 140 1344 114 c 1,386,387
 1374 78 1374 78 1426 82 c 1,388,389
 1473 87 1473 87 1539 218 c 0,390,391
 1541 224 1541 224 1551 224 c 1,392,393
 1561 223 1561 223 1561 210 c 1,394,-1
 1551 168 l 1,395,396
 1587 131 1587 131 1641 129 c 1,320,321
456 -2 m 1,397,398
 422 63 422 63 355 63 c 0,399,400
 332 63 332 63 321 45 c 1,401,402
 384 0 384 0 456 -2 c 1,397,398
1551 1544 m 2,403,404
 1586 1556 1586 1556 1569 1529 c 2,405,-1
 1551 1500 l 2,406,407
 1542 1486 1542 1486 1358 1425 c 0,408,409
 1176 1363 1176 1363 1113 1341 c 0,410,411
 1083 1331 1083 1331 1105 1361 c 2,412,-1
 1118 1379 l 2,413,414
 1130 1396 1130 1396 1148 1403 c 2,415,-1
 1551 1544 l 2,403,404
1938 1444 m 2,416,417
 1973 1456 1973 1456 1956 1429 c 2,418,-1
 1938 1400 l 2,419,420
 1930 1386 1930 1386 1746 1325 c 0,421,422
 1564 1263 1564 1263 1500 1241 c 0,423,424
 1470 1231 1470 1231 1492 1261 c 2,425,-1
 1505 1279 l 2,426,427
 1518 1297 1518 1297 1535 1303 c 2,428,-1
 1938 1444 l 2,416,417
EndSplineSet
EndChar
StartChar: uniFDFB
Encoding: 65019 65019 6092
Width: 1902
VWidth: 0
UnlinkRmOvrlpSave: 1
Flags: W
LayerCount: 2
Fore
SplineSet
1780 1617 m 2,0,1
 1829 1635 1829 1635 1806 1597 c 2,2,-1
 1780 1556 l 2,3,4
 1769 1538 1769 1538 1752 1532 c 2,5,6
 1054 1287 l 2,7,8
 1013 1273 1013 1273 1044 1315 c 2,9,-1
 1062 1340 l 2,10,11
 1080 1365 1080 1365 1104 1374 c 2,12,-1
 1780 1617 l 2,0,1
1814 1142 m 2,13,14
 1862 1159 1862 1159 1839 1122 c 2,15,-1
 1814 1081 l 2,16,17
 1808 1071 1808 1071 1791 1063 c 2,18,19
 1338 908 l 2,20,21
 1297 894 1297 894 1327 936 c 2,22,-1
 1345 961 l 2,23,24
 1363 986 1363 986 1387 994 c 2,25,-1
 1814 1142 l 2,13,14
1287 208 m 1,26,27
 1196 261 1196 261 1118 261 c 0,28,29
 1074 261 1074 261 1038 228.5 c 128,-1,30
 1002 196 1002 196 980 135 c 1,31,32
 981 135 981 135 982.5 134 c 128,-1,33
 984 133 984 133 985 132 c 1,34,35
 1052 130 1052 130 1226 176 c 1,36,-1
 1287 192 l 2,37,38
 1294 193 1294 193 1296 198 c 0,39,40
 1297 201 1297 201 1287 208 c 1,26,27
1377 324 m 0,41,42
 1435 298 1435 298 1520 274 c 0,43,44
 1599 254 1599 254 1683 254 c 0,45,46
 1695 254 1695 254 1703 247.5 c 128,-1,47
 1711 241 1711 241 1705 228 c 0,48,49
 1680 172 1680 172 1666 149 c 128,-1,50
 1652 126 1652 126 1640 126 c 0,51,52
 1563 136 1563 136 1468.5 119 c 128,-1,53
 1374 102 1374 102 1298 76 c 0,54,55
 1088 4 1088 4 1034 1 c 0,56,57
 859 -12 859 -12 817 187 c 1,58,59
 819 98 819 98 805 62 c 0,60,61
 787 16 787 16 708 -40 c 0,62,63
 550 -153 550 -153 411 -155 c 0,64,65
 268 -157 268 -157 187 -78 c 0,66,67
 105 2 105 2 123.5 141 c 128,-1,68
 142 280 142 280 249 423 c 0,69,70
 255 431 255 431 265.5 430.5 c 128,-1,71
 276 430 276 430 279.5 422 c 128,-1,72
 283 414 283 414 274 400 c 0,73,74
 155 221 155 221 202 115 c 0,75,76
 258 -15 258 -15 459 -3 c 0,77,78
 625 7 625 7 756 136 c 1,79,-1
 675 1302 l 2,80,81
 671 1357 671 1357 678 1374 c 2,82,-1
 712 1459 l 2,83,84
 734 1508 734 1508 741 1430 c 0,85,-1
 789 861 l 2,86,87
 826 415 826 415 847 321 c 0,88,89
 875 199 875 199 942 157 c 1,90,91
 980 234 980 234 1032 298 c 0,92,93
 1114 402 1114 402 1164.5 401 c 128,-1,94
 1215 400 1215 400 1377 324 c 0,41,42
696 476 m 0,95,96
 696 447 696 447 681 442 c 0,97,98
 658 435 658 435 655 466 c 0,99,100
 620 783 620 783 338 1087 c 0,101,102
 320 1106 320 1106 312 1093 c 2,103,-1
 301 1077 l 2,104,105
 295 1067 295 1067 282 1068 c 0,106,107
 281 1068 281 1068 249 1093 c 2,108,-1
 180 1149 l 1,109,110
 160 1174 160 1174 164 1198 c 2,111,-1
 184 1332 l 2,112,113
 186 1346 186 1346 207 1351 c 0,114,115
 229 1356 229 1356 242 1342 c 0,116,117
 690 904 690 904 696 476 c 0,95,96
1401 62 m 2,118,119
 1405 68 1405 68 1413 66 c 0,120,121
 1469 47 1469 47 1515 6 c 0,122,123
 1521 0 1521 0 1518 -8 c 2,124,-1
 1449 -116 l 2,125,126
 1444 -122 1444 -122 1434 -114 c 128,-1,127
 1424 -106 1424 -106 1334 -51 c 0,128,129
 1328 -47 1328 -47 1332 -42 c 2,130,-1
 1401 62 l 2,118,119
1784 134 m 2,131,132
 1788 140 1788 140 1796 136 c 0,133,134
 1852 117 1852 117 1897 76 c 0,135,136
 1903 70 1903 70 1899 64 c 2,137,-1
 1831 -45 l 2,138,139
 1826 -51 1826 -51 1816 -42.5 c 128,-1,140
 1806 -34 1806 -34 1716 21 c 0,141,142
 1710 25 1710 25 1713 30 c 2,143,-1
 1784 134 l 2,131,132
867 1442 m 2,144,-1
 906 1501 l 2,145,146
 931 1539 931 1539 933 1485 c 0,147,148
 968 843 968 843 1035 560 c 0,149,150
 1061 452 1061 452 1120 420 c 1,151,152
 1168 521 1168 521 1231 590 c 0,153,154
 1304 675 1304 675 1351 673 c 0,155,156
 1403 671 1403 671 1514 620 c 0,157,158
 1725 524 1725 524 1878 526 c 0,159,160
 1912 526 1912 526 1899 499 c 0,161,162
 1873 443 1873 443 1859.5 420.5 c 128,-1,163
 1846 398 1846 398 1834 398 c 0,164,165
 1688 415 1688 415 1480 346 c 0,166,167
 1222 260 1222 260 1130 271 c 0,168,169
 976 290 976 290 942 594 c 0,170,171
 922 776 922 776 916 780 c 0,172,173
 911 781 911 781 904 714 c 0,174,175
 868 385 868 385 727 237 c 0,176,177
 663 172 663 172 586 153 c 0,178,179
 350 97 350 97 350 127 c 0,180,181
 350 137 350 137 358 140 c 0,182,183
 452 175 452 175 600 266 c 128,-1,184
 748 357 748 357 789 436 c 0,185,186
 844 545 844 545 864 721 c 128,-1,187
 884 897 884 897 858 1334 c 0,188,189
 853 1419 853 1419 867 1442 c 2,144,-1
1476 481 m 1,190,191
 1386 533 1386 533 1304 534 c 0,192,193
 1260 534 1260 534 1222 500 c 128,-1,194
 1184 466 1184 466 1161 404 c 1,195,196
 1228 399 1228 399 1413 448 c 1,197,-1
 1474 464 l 2,198,199
 1481 465 1481 465 1483.5 469.5 c 128,-1,200
 1486 474 1486 474 1476 481 c 1,190,191
479 1451.5 m 128,-1,202
 484 1468 484 1468 495 1466.5 c 128,-1,203
 506 1465 506 1465 511 1452 c 0,204,205
 531 1390 531 1390 572 1352 c 0,206,207
 588 1338 588 1338 572 1314.5 c 128,-1,208
 556 1291 556 1291 540 1269 c 1,209,210
 536 1267 536 1267 568.5 1061.5 c 128,-1,211
 601 856 601 856 607 753 c 128,-1,212
 613 650 613 650 602 544 c 0,213,214
 580 338 580 338 490 336 c 0,215,216
 441 334 441 334 402 366 c 0,217,218
 319 437 319 437 284 640 c 1,219,220
 252 519 252 519 208 512.5 c 128,-1,221
 164 506 164 506 100 512 c 128,-1,222
 36 518 36 518 24 531 c 0,223,224
 -8 563 -8 563 3 595 c 0,225,226
 49 705 49 705 68 727 c 0,227,228
 128 791 128 791 247 838 c 1,229,-1
 241 897 l 2,230,231
 237 925 237 925 244 937 c 2,232,-1
 277 1003 l 2,233,234
 291 1032 291 1032 300 981 c 1,235,236
 322 778 322 778 367 633 c 0,237,238
 399 525 399 525 499 495 c 0,239,240
 533 489 533 489 544 494 c 1,241,242
 562 525 562 525 551.5 646.5 c 128,-1,243
 541 768 541 768 500.5 1045.5 c 128,-1,244
 460 1323 460 1323 454 1347 c 128,-1,245
 448 1371 448 1371 461 1403 c 128,-1,201
 474 1435 474 1435 479 1451.5 c 128,-1,202
258 764 m 1,246,247
 217 757 217 757 164.5 729.5 c 128,-1,248
 112 702 112 702 87 658 c 1,249,250
 146 617 146 617 249 646 c 0,251,252
 267 651 267 651 270 686 c 1,253,-1
 258 764 l 1,246,247
EndSplineSet
EndChar
